<svg xmlns="http://www.w3.org/2000/svg" height="48" width="48"><g transform="matrix(.188976 0 0 .188976 -.188976 -.188976)"><path d="M128 1C67 1 16 44 3.8 101.4h248.4C240 44 189 1 128 1z" fill="#506c77"/><path d="M3.8 101.4C2 110 1 118.9 1 128c0 70.1 56.9 127 127 127s127-56.9 127-127c0-9.1-1-18-2.8-26.6z" fill="#36505f"/><path d="M171.3 65.1H84.7c-10.4 0-18.9 8.5-18.9 18.9v23h124.4V84c0-10.4-8.5-18.9-18.9-18.9z" fill="#98816b"/><path d="M53.8 178.7h20.7v9.4H53.8zm127.7 0h20.7v9.4h-20.7z" fill="#403018"/><path d="M79.5 120.4c10.2-2.9 20.6-7 31.2-5.5 6.8 1 13.4 4.3 20.3 3.7 3.7-.4 7.1-1.9 10.6-2.9 17.5-5.3 36.5-.4 54.5-3.4l-5.9-7.6H65.8l-12.7 16.2c8.1 3.3 17.8 1.9 26.4-.5z" fill="#fdfeff"/><path d="M213.8 134.7l-17.7-22.5c-18 3-37-2-54.5 3.4-3.5 1.1-7 2.6-10.6 2.9-6.9.7-13.4-2.7-20.3-3.7-10.5-1.5-20.9 2.6-31.2 5.5-8.6 2.4-18.4 3.8-26.4.4l-10.9 13.9h171.6z" fill="#f2cd56"/><path d="M205.8 125.9H50.2c-4 0-8 4.9-8 8.9v41.4h171.6v-41.4c-.1-4-4.1-8.9-8-8.9z" fill="#aa998a"/><path d="M206.5 128.4h-157a7.17 7.17 0 0 0-7.2 7.2v43h171.6v-43a7.41 7.41 0 0 0-7.4-7.2z" fill="#957f69"/><path d="M112.5 89.2H85.7c-5.5 0-10 4.5-10 10s4.5 10 10 10h26.7c5.5 0 10-4.5 10-10s-4.4-10-9.9-10zm57.8-.001h-26.7c-5.5 0-10 4.5-10 10.002s4.5 10 10 10h26.7c5.5 0 10-4.5 10-10-.1-5.5-4.5-10.002-10-10.002z" fill="#6db8e0"/></g><path d="M22.4 47.914c-2.674-.254-4.08-.54-6.16-1.254-5.977-2.05-11.033-6.536-13.776-12.22-1.192-2.47-1.957-5.102-2.283-7.855-.243-2.05-.14-5.005.247-7.065l.123-.655 11.703-.038v.68c0 .252-.047.143-1 1.375l-2.228 2.738c-.432.15-1.075.825-1.204 1.274-.06.208-.052 1.355-.037 4.386l.02 4.225 2.138.04v1.744h3.986V33.54H34.07v1.748h3.986V33.54h2.174V24.908l-.17-.37c-.19-.413-.722-.863-1.04-.996-.14-.06-.648-.705-1.7-2.052-1.5-1.92-1.6-1.673-1.562-2.087l.054-.578h11.647l.156.965c.267 1.65.325 2.368.327 4.06.003 2.28-.198 3.91-.748 6.078-.81 3.2-2.375 6.337-4.457 8.964-.77.97-2.863 3.075-3.808 3.826-4.335 3.45-9.638 5.284-15.107 5.23l-1.417-.036z" fill="#506c77"/></svg>