<svg xmlns="http://www.w3.org/2000/svg" xmlns:xlink="http://www.w3.org/1999/xlink" width="48" height="48"><g transform="scale(.375)"><circle r="64" cy="64" cx="64" fill="#8ed8f1"/><defs><circle r="64" id="A" cy="64" cx="64"/><path id="B" d="M59.7 37h-3.5c-.7 0-1.3-.6-1.3-1.3V25.3c0-.7.6-1.3 1.3-1.3h3.5c.7 0 1.3.6 1.3 1.3v10.5c0 .6-.6 1.2-1.3 1.2z"/></defs><clipPath id="C"><use xlink:href="#A"/></clipPath><path clip-path="url(#C)" d="M0 84c3.3 0 5 1.4 6.5 2.6 1.4 1.2 2.7 2.2 5.2 2.2s3.8-1 5.2-2.2c1.5-1.2 3.2-2.6 6.5-2.6s5 1.4 6.5 2.6c1.4 1.2 2.7 2.2 5.2 2.2s3.8-1 5.2-2.2c1.5-1.2 3.2-2.6 6.5-2.6s5 1.4 6.5 2.6c1.4 1.2 2.7 2.2 5.2 2.2s3.8-1 5.2-2.2c1.5-1.2 3.2-2.6 6.5-2.6s5 1.4 6.5 2.6c1.4 1.2 2.7 2.2 5.2 2.2s3.8-1 5.2-2.2c1.5-1.2 3.2-2.6 6.5-2.6s5 1.4 6.5 2.6c1.4 1.2 2.7 2.2 5.2 2.2s3.8-1 5.2-2.2c1.5-1.2 3.2-2.6 6.5-2.6s5 1.4 6.5 2.6c1.4 1.2 2.7 2.2 5.2 2.2V100H0z" fill="#65c6f2"/><defs><circle r="64" id="D" cy="64" cx="64"/></defs><clipPath id="E"><use xlink:href="#D"/></clipPath><path clip-path="url(#E)" d="M128 79.8V128H67.9l-32.2-28 25-75.7 8.1 8.1 3.9-8.1z" opacity=".26" fill="#0086be"/><defs><circle r="64" id="F" cy="64" cx="64"/></defs><clipPath id="G"><use xlink:href="#F"/></clipPath><g clip-path="url(#G)"><path d="M80.9 0h-46c.5 2.5 2.9 4.8 6.5 6.6a1.92 1.92 0 0 0-.4 1.2c0 1.9 1.8 3.6 4.6 4.9v.4c0 2 2.2 3.8 5.6 4.9 0 .1-.1.2-.1.3 0 1.1 1 2 2.6 2.6-.1.2-.2.5-.2.7 0 1.3 1.9 2.4 4.3 2.4s4.3-1.1 4.3-2.4c0-.2-.1-.5-.2-.7 1.6-.6 2.6-1.6 2.6-2.6 0-.1 0-.2-.1-.3 3.4-1 5.6-2.8 5.6-4.9v-.2c3.2-1.3 5.2-3.1 5.2-5.1 0-.5-.1-1-.4-1.5 3.4-1.7 5.5-3.9 6.1-6.3z" fill="#d4edfc"/></g><g clip-path="url(#G)"><path d="M91 0H49.7c.5 2.5 2.6 4.8 5.8 6.6-.2.4-.2.8-.2 1.2 0 1.9 1.6 3.6 4.1 4.9v.4c0 2 2 3.8 5 4.9 0 .1-.1.2-.1.3 0 1.1.9 2 2.3 2.6-.1.2-.2.5-.2.7 0 1.3 1.7 2.4 3.8 2.4s3.8-1.1 3.8-2.4c0-.2-.1-.5-.2-.7 1.4-.6 2.3-1.6 2.3-2.6 0-.1 0-.2-.1-.3 3-1 5-2.8 5-4.9v-.2c2.9-1.3 4.7-3.1 4.7-5.1 0-.5-.1-1-.4-1.5C88.6 4.6 90.5 2.4 91 0z" fill="#d4edfc"/></g><g fill="#58505b"><use xlink:href="#B"/><use xlink:href="#B" x="12"/></g><path d="M75 61.6H51.8c-.9 0-1.7-.8-1.7-1.7V34.1c0-.9.8-1.7 1.7-1.7H75c.9 0 1.7.8 1.7 1.7v25.8c0 .9-.7 1.7-1.7 1.7z" fill="#f2f2f2"/><defs><path id="H" d="M75 61.6H51.8c-.9 0-1.7-.8-1.7-1.7V34.1c0-.9.8-1.7 1.7-1.7H75c.9 0 1.7.8 1.7 1.7v25.8c0 .9-.7 1.7-1.7 1.7z"/></defs><clipPath id="I"><use xlink:href="#H"/></clipPath><path clip-path="url(#I)" d="M77.7 42.2L72.6 37l-17.2 2 5.4 5.4h16.9z" opacity=".57" fill="#cad2dc"/><path d="M84.5 43.9H43.4c-1.5 0-2.8 1.1-3 2.6l-2.9 21c-.2 1.8 1.2 3.4 3 3.4h46.8c1.8 0 3.2-1.6 3-3.4l-2.9-21c-.1-1.5-1.4-2.6-2.9-2.6z" fill="#fff"/><defs><path id="J" d="M84.5 43.9H43.4c-1.5 0-2.8 1.1-3 2.6l-2.9 21c-.2 1.8 1.2 3.4 3 3.4h46.8c1.8 0 3.2-1.6 3-3.4l-2.9-21c-.1-1.5-1.4-2.6-2.9-2.6z"/></defs><clipPath id="K"><use xlink:href="#J"/></clipPath><path clip-path="url(#K)" d="M91.4 68.1l-.6-6.8-11.7-11.6-3.7 3.3 12.5 12.6-9.2-3.1-12.9-12.9-3.6 3.5 8.8 8.7-8.3-1.9-10.2-10.2-3.7 3.3 8.6 8.5L80.1 65z" opacity=".25" fill="#cad2dc"/><path d="M64 58l-35.2 9.6c-1.1.3-1.8 1.4-1.5 2.4l8.9 32.4c.2.9 1.2 1.5 2.2 1.5h51.2c1 0 1.9-.6 2.2-1.5l8.9-32.4c.3-1-.4-2.1-1.5-2.4z" fill="#f2f2f2"/><path d="M64 103.8h25.6c1 0 1.9-.6 2.2-1.5l8.9-32.4c.3-1-.4-2.1-1.5-2.4L64 58z" fill="#fff"/><g fill="#525d70"><circle r="2.5" cy="66.4" cx="71.2"/><circle r="2.5" cy="66.4" cx="56.6"/></g><g fill="#4b9cd0"><circle r="2.5" cy="51.3" cx="77.3"/><circle r="2.5" cy="51.3" cx="64"/><circle r="2.5" cy="51.3" cx="50.7"/><path d="M73 38a1.54 1.54 0 0 1-1.5 1.5h-15A1.54 1.54 0 0 1 55 38a1.54 1.54 0 0 1 1.5-1.5h15A1.54 1.54 0 0 1 73 38z"/></g><defs><path id="L" d="M64 58l-35.2 9.6c-1.1.3-1.8 1.4-1.5 2.4l8.9 32.4c.2.9 1.2 1.5 2.2 1.5h51.2c1 0 1.9-.6 2.2-1.5l8.9-32.4c.3-1-.4-2.1-1.5-2.4z"/></defs><clipPath id="M"><use xlink:href="#L"/></clipPath><path clip-path="url(#M)" d="M27.2 84.9L64 73.2l36.8 11.7" fill="none" stroke="#f54f33" stroke-width="5" stroke-miterlimit="10"/><defs><circle r="64" id="N" cy="64" cx="64"/></defs><clipPath id="O"><use xlink:href="#N"/></clipPath><g clip-path="url(#O)"><path d="M0 95.3c3.3 0 5 1.4 6.5 2.6 1.4 1.2 2.7 2.2 5.2 2.2s3.8-1 5.2-2.2c1.5-1.2 3.2-2.6 6.5-2.6s5 1.4 6.5 2.6c1.4 1.2 2.7 2.2 5.2 2.2s3.8-1 5.2-2.2c1.5-1.2 3.2-2.6 6.5-2.6s5 1.4 6.5 2.6c1.4 1.2 2.7 2.2 5.2 2.2s3.8-1 5.2-2.2c1.5-1.2 3.2-2.6 6.5-2.6s5 1.4 6.5 2.6c1.4 1.2 2.7 2.2 5.2 2.2s3.8-1 5.2-2.2c1.5-1.2 3.2-2.6 6.5-2.6s5 1.4 6.5 2.6c1.4 1.2 2.7 2.2 5.2 2.2s3.8-1 5.2-2.2c1.5-1.2 3.2-2.6 6.5-2.6s5 1.4 6.5 2.6c1.4 1.2 2.7 2.2 5.2 2.2v11.3H0z" fill="#1ea8db"/><path d="M0 106.6c3.3 0 5 1.4 6.5 2.6 1.4 1.2 2.7 2.2 5.2 2.2s3.8-1 5.2-2.2c1.5-1.2 3.2-2.6 6.5-2.6s5 1.4 6.5 2.6c1.4 1.2 2.7 2.2 5.2 2.2s3.8-1 5.2-2.2c1.5-1.2 3.2-2.6 6.5-2.6s5 1.4 6.5 2.6c1.4 1.2 2.7 2.2 5.2 2.2s3.8-1 5.2-2.2c1.5-1.2 3.2-2.6 6.5-2.6s5 1.4 6.5 2.6c1.4 1.2 2.7 2.2 5.2 2.2s3.8-1 5.2-2.2c1.5-1.2 3.2-2.6 6.5-2.6s5 1.4 6.5 2.6c1.4 1.2 2.7 2.2 5.2 2.2s3.8-1 5.2-2.2c1.5-1.2 3.2-2.6 6.5-2.6s5 1.4 6.5 2.6c1.4 1.2 2.7 2.2 5.2 2.2V128H0z" fill="#0071a0"/></g><path d="M67 26.6h6v3h-6zm-12 0h6v3h-6z" fill="#f4c600"/><path d="M55 26.6h1.9v3H55zm12 0h1.9v3H67z" fill="#f7e595"/></g></svg>