<svg xmlns="http://www.w3.org/2000/svg" height="48" width="48"><g transform="scale(.09375)"><path d="M512 256l-.555 16.542C502.938 406.212 391.796 512 256 512c-10.046 0-19.932-.593-29.657-1.734C98.93 495.615 0 387.346 0 256 0 114.608 114.607 0 256 0c141.35 0 256 114.608 256 256z" fill="#26b99a"/><path d="M511.446 272.542C502.938 406.212 391.796 512 256 512c-10.046 0-19.932-.593-29.657-1.734L73.57 357.496c-18.512-15.678-30.29-39.073-30.29-65.223 0-47.144 38.204-85.348 85.347-85.348a84.96 84.96 0 0 1 39.623 9.771l24.3-44.9-1.3-1.376v-.2c-.04-.196-30.365-30.127-30.523-30.285v-.238c-.158-4.608 1.182-5.946 6.773-5.08 8.98.277 16.856 1.38 24.733 2.562.08 0 .158.04.277.04l7.796 1.104c.473.12.946.158 1.458.234l11.776 1.262 2.047.12c6.5.746 9.6 1.3 10.046 6.496l20.32 20.323c-.315.592 82.194.396 82.864.396l-1.416-4.688c-.12-.392-.08-.865.158-1.22s.588-.63 1.022-.67l.436-.08-3.23-12.523h-.354c-.827 0-1.496-.67-1.496-1.496v-4.57c0-1.18.984-2.166 2.165-2.166h44.938v.43c6.302.473 12.29 3.388 16.305 8.035 3.82 4.41 74.36 74.752 124.103 124.336z" opacity=".15"/><path d="M238.212 301.61l5.86-42.1-2.85-.482-7.654 41.966z" fill="#fff"/><path d="M232.708 257.35h19.262v4.63h-19.262zm209.714 3.395l-1.1-2.052 5.016-2.693 1.1 2.052zm-59.065-53.828c-47.135 0-85.342 38.214-85.342 85.35 0 47.146 38.207 85.36 85.342 85.36s85.35-38.22 85.35-85.36c-.001-47.135-38.213-85.35-85.35-85.35zm0 160.333c-41.407 0-74.973-33.568-74.973-74.984 0-41.406 33.564-74.98 74.973-74.98 41.416 0 74.98 33.573 74.98 74.98.001 41.417-33.565 74.984-74.98 74.984z" fill="#0d2038"/><path d="M383.357 212.484c-43.988 0-79.775 35.79-79.775 79.782s35.787 79.79 79.775 79.79c44 0 79.79-35.796 79.79-79.79s-35.79-79.782-79.79-79.782zm0 152.25c-39.95 0-72.46-32.508-72.46-72.47 0-39.955 32.51-72.458 72.46-72.458 39.958 0 72.466 32.504 72.466 72.458 0 39.962-32.508 72.47-72.466 72.47z" fill="#e6e7e8"/><path d="M391.865 292.27c0 4.692-3.812 8.504-8.508 8.504s-8.496-3.812-8.496-8.504 3.804-8.496 8.496-8.496a8.5 8.5 0 0 1 8.508 8.496z" fill="#fff"/><path d="M383.357 301.857c-5.284 0-9.588-4.3-9.588-9.588s4.304-9.6 9.588-9.6a9.61 9.61 0 0 1 9.597 9.59c0 5.29-4.308 9.588-9.597 9.588zm0-17a7.42 7.42 0 0 0-7.411 7.412 7.42 7.42 0 0 0 7.411 7.41 7.42 7.42 0 0 0 7.419-7.41c0-4.088-3.323-7.412-7.42-7.412z" fill="#0d2038"/><path d="M331.834 171.474l-6.92-26.943 6.87-1.766 6.92 26.943z" fill="#fff"/><g fill="#ec3611"><path d="M327.393 162.458c-.123-.408-.062-.85.16-1.22.23-.365.606-.61 1.026-.677l8.115-1.25c.653-.1 1.273.315 1.432.954C351.604 214.734 365.23 271.143 383.6 292.4c-.323-.043-.35.51-.35.51-15.742-4.653-37.42-70.054-55.857-130.453z"/><path d="M198.153 167.143h137.162v7.796H198.153z"/></g><path d="M196.034 168.408h4.424l-6.254-21.793-4.192.477z" fill="#fff"/><g fill="#ec3611"><path d="M193.565 168.823a1.52 1.52 0 0 1 .196-1.231c.242-.36.63-.592 1.065-.642l6.3-.72a1.48 1.48 0 0 1 1.585 1.062l38.265 133.035-8.927 4.584z"/><path d="M343.82 197.115L243.966 302.86l-5.99-3.415L338.6 192.212zm27.214-49.146h-45.6a1.48 1.48 0 0 1-1.48-1.479v-4.578a2.15 2.15 0 0 1 2.157-2.156h44.935z"/></g><path d="M356.25 198.15v-7.585c13.09 0 26.804-2.227 29.227-18.758 1.162-7.935-.17-14.38-3.85-18.642-2.984-3.454-7.602-5.512-12.348-5.512v-7.588c6.924 0 13.678 3.046 18.085 8.14 3.604 4.173 7.5 11.842 5.62 24.708-3.703 25.238-28.57 25.238-36.733 25.238z" fill="#fff"/><path d="M225.63 146.427c-.686 1.285-29.602-4.323-45.13 4.423-6.3 1.738-12.75-3.23-19.763-10.908v-.227c-.177-4.638 1.162-5.984 6.777-5.08 8.962.27 16.835 1.373 24.723 2.535.077.01.166.035.255.042l9.266 1.33 11.77 1.257 2.065.143c6.495.73 9.59 1.273 10.037 6.485z" fill="#0d2038"/><path d="M213.53 139.8c-.477 3.173-34.02-.92-36.025 4.635-.992.7-2.154.166-2.954-.365-9.265-6.273-13.115-3.54-13.812-4.354-.177-4.638 1.162-5.984 6.777-5.08 8.962.27 16.835 1.373 24.723 2.535.077.01.166.035.255.042l9.266 1.33 11.77 1.257z" fill="#eb3611"/><path d="M71.242 327.65l-5.012 2.685-1.103-2.047 5.012-2.692zm57.373-120.733c-47.136 0-85.347 38.214-85.347 85.35 0 47.146 38.21 85.36 85.347 85.36s85.35-38.22 85.35-85.36c0-47.135-38.212-85.35-85.35-85.35zm0 160.333c-41.408 0-74.978-33.568-74.978-74.984 0-41.406 33.57-74.98 74.978-74.98s74.978 33.573 74.978 74.98c0 41.417-33.566 74.984-74.978 74.984z" fill="#0d2038"/><path d="M128.615 212.484c-43.992 0-79.785 35.79-79.785 79.782s35.792 79.79 79.785 79.79 79.783-35.796 79.783-79.79-35.79-79.782-79.783-79.782zm0 152.25c-39.958 0-72.462-32.508-72.462-72.47 0-39.955 32.505-72.458 72.462-72.458s72.466 32.504 72.466 72.458c0 39.962-32.508 72.47-72.466 72.47z" fill="#e6e7e8"/><path d="M138.488 292.27a9.87 9.87 0 1 1-19.741 0c0-5.45 4.42-9.87 9.87-9.87a9.87 9.87 0 0 1 9.872 9.869z" fill="#fff"/><path d="M128.615 303.407c-6.143 0-11.14-4.996-11.14-11.138a11.15 11.15 0 0 1 11.139-11.136 11.15 11.15 0 0 1 11.139 11.136c0 6.142-4.996 11.138-11.14 11.138zm0-19.746a8.62 8.62 0 0 0-8.607 8.608 8.62 8.62 0 0 0 8.607 8.61c4.745 0 8.61-3.86 8.61-8.6s-3.865-8.608-8.61-8.608z" fill="#0d2038"/><path d="M127.326 288.026l-.277-3.932 108.28-7.64.277 3.932zm105.953 37l-109.618-26.25.917-3.833 109.618 26.25z" fill="#fff"/><path d="M128.166 293.75c-.312 0-.608-.165-.767-.432s-.17-.606-.02-.877l67.396-124.695c.635-.827 1.162-.285 1.162-.285l2.292.243s.07.642-.207 1.65c-.262 1.01-1.026 2.308-1.854 4.027-1.708 3.415-67.034 120.37-67.034 120.37z" fill="#ec3611"/><path d="M128.615 291.654l51.488 3.1 31.02 3.027 13.95 1.01c1.23.146 2.212.13 2.85.416.643.265.958.646.958.65l-.258 2.508s-.386.312-1.065.44c-.68.146-1.643-.058-2.877-.156l-13.942-1.065-30.995-3.263-51.877-4.572z" fill="#eb3611"/><g fill="#fff"><path d="M235.446 324.335c-13.233 0-24.008-10.772-24.008-24.004 0-13.238 10.773-24.008 24.008-24.008s24 10.77 24 24.008c0 13.23-10.77 24.004-24 24.004zm0-45.48c-11.843 0-21.477 9.63-21.477 21.48 0 11.838 9.634 21.473 21.477 21.473s21.478-9.635 21.478-21.473c-.001-11.85-9.64-21.48-21.478-21.48zm10.608 21.48a10.61 10.61 0 0 1-10.607 10.609c-5.864 0-10.614-4.75-10.614-10.61 0-5.87 4.75-10.62 10.614-10.62a10.61 10.61 0 0 1 10.607 10.62z"/><path d="M239.67 293.63h-8.446l.74-15.572h6.97zm-5.796-2.53h3.143l-.5-10.515h-2.143zm9.246 11.17l-2.607-8.03 15.038-4.115 2.15 6.635zm.62-6.292l.967 2.995 9.846-3.724-.66-2.042zm1.978 24.41l-9.754-12.16 6.834-4.964 8.558 13.03zm-6.116-11.677l6.577 8.224 1.742-1.27-5.78-8.792zm-14.427 11.677l-5.64-4.094 8.56-13.03 6.83 4.964zm-2.203-4.724l1.738 1.27 6.584-8.224-2.542-1.84z"/><path d="M227.77 302.273l-14.585-5.517 2.154-6.63 15.042 4.115zm-11.435-7.023l9.85 3.72.97-2.99L217 293.208zm21.984 5.72l-8.242 41.703-2.85-.48 6.503-42.156z"/></g><path d="M218.712 340.512h19.26v4.63h-19.26z" fill="#0d2038"/></g></svg>