<svg xmlns="http://www.w3.org/2000/svg" height="48" width="48"><g transform="matrix(.081269 0 0 .081269 -.188952 -10.209844)"><circle r="295.315" cy="420.945" cx="297.64" fill="#f3756f"/><g fill="#0b2c48"><path d="M297.64 339.792v249.97l-183.002-78.596 6.51-249.738z"/><path d="M297.64 339.792v249.97l183.002-78.596-8.37-252.296z"/></g><path d="M134.404 261.43l163.236 78.363V579.3l-170.678-76.736z" fill="#bbc2c6"/><path d="M297.64 579.3S193 509.074 150.913 492.565l4.883-240.437s96.268 40.46 141.844 87.664z" fill="#fff"/><path d="M460.877 261.43L297.64 339.792V579.3l170.678-76.736z" fill="#bbc2c6"/><path d="M297.64 579.3s104.64-70.225 146.728-86.734l-4.884-240.437s-96.268 40.46-141.844 87.664z" fill="#e7e8e9"/><path d="M351.355 298.168l5.115 101.15 14.65-25.578 21.626 13.022-9.766-106.965" fill="#6db8e0"/></g><path d="M9.15 31.355l16.525 16.587s14.8-.415 20.772-15.428c0 0 2.274-4.897 1.302-12l-9.56-9.687.684 20.473L24 37.72z" fill="#df6a67"/></svg>