<svg xmlns="http://www.w3.org/2000/svg" height="48" width="48"><g transform="matrix(.377953 0 0 .377953 -.188976 -.377953)"><circle cx="64" cy="64.5" r="63.5" fill="#1b3035"/><path d="M87.98 31.758L80.2 36l-4.535 5.6-5.865-8-2.934-1.066-2.22 5.064 5.42 3.735L51.4 59.2 36.466 70.4l-7.617 9.705L43.4 95.2l-1.424 1.778 30.71 30.413c28.973-3.966 51.72-27.463 54.514-56.795z" fill="#132528"/><path d="M46.477 70.244H81.79v25.338H46.477z" fill="#ed5e53"/><path d="M70.92 40.312c-.453 0-.96.073-1.402.005-.7-.107-1.244-.354-1.918-.56-1.066-.326-2.355-1.186-2.953-2.157-.875-1.43-1.188-3.422-.9-5.146.115-.676.664-1.445 1.313-1.733.607-.272 1.822-.335 2.482-.167 2.004.506 3.66 2.203 4.713 3.9 1.06 1.698 1.932 3.983 3.52 5.195-3.053.702-4.28-2.415-6.328-3.9-.352-.253-1.084-.584-1.553-.35-.615.303-.486 1.285-.164 1.723.482.66 1.396 1.06 2.088 1.477l2.2 1.132c.398.163.803.48 1.193.604m7.92-.023c.453 0 .96.073 1.402.005.7-.107 1.244-.354 1.92-.56 1.064-.326 2.355-1.186 2.95-2.157.875-1.43 1.188-3.422.9-5.146-.115-.676-.664-1.445-1.313-1.733-.6-.272-1.822-.335-2.482-.167-2.004.506-3.66 2.203-4.7 3.9-1.06 1.698-1.934 3.983-3.525 5.195 3.055.702 4.285-2.415 6.33-3.9.352-.253 1.086-.584 1.553-.35.615.303.486 1.285.164 1.723-.48.66-1.396 1.06-2.088 1.477l-2.2 1.132c-.396.163-.803.48-1.193.604" fill="#b06977"/><path d="M60.537 48.68l-.674.223.674.117zm30.977 0l.674.223-.674.117z" fill="#a51e22"/><path d="M69.56 47.514v18.023l6.466 1.563V46.747zm-9.2 15.794l4.305 1.042V48.092l-4.305.512z" fill="#d3919b"/><path d="M64.664 64.35l4.895 1.187V47.514l-4.895.578z" fill="#c17c87"/><path d="M59.863 48.904l4.26-.504v-7.455l-4.26.672z" fill="#facacc"/><path d="M76.025 67.1l6.77-1.638V47.55l-6.77-.802zM87.7 48.13v16.144l4.002-.966V48.604z" fill="#b06977"/><path d="M82.795 65.462l4.896-1.188V48.13l-4.896-.58z" fill="#eab0b6"/><path d="M88.23 40.993v7.443l3.958.468v-7.287zm-12.205 5.994l7.3.867V40.22l-7.3-1.155z" fill="#c17c87"/><path d="M83.336 47.854l4.894.582v-7.443l-4.894-.774z" fill="#d3919b"/><path d="M69.018 40.172v7.644l7.007-.83v-7.923z" fill="#facacc"/><path d="M64.123 48.4l4.895-.584v-7.644l-4.895.773z" fill="#b06977"/><path d="M41.666 39.998c-.203.156-.326.582-.506.832a3.09 3.09 0 0 1-.631.666c-.414.313-.94.57-1.393.768-.86.37-2.008.64-2.408 1.686-.572 1.5.803 3.83 1.096 5.418.412 2.24 1.156 4.552 1.822 6.754l1.787 5.904 1.258 4.358c.21.526.703 1.368 1.19 1.583.61.273 1.613-.096 2.197-.275l4.146-1.188c3.514-1.063 7.016-2.177 10.37-3.58 1.05-.436 2.08-.816 3.174-1.146.844-.256 1.844-.486 2.457-1.107.855-.867-.08-2.916-.42-4.035l-1.668-5.52-3.24-10.358c-.195-.65-.363-1.33-.594-1.972-.186-.51-.482-1.516-.883-1.838-.94-.76-2.664.002-3.594.285-1.348.413-2.787.03-4.148.373l-4.473 1.162c-.928.26-1.916.15-2.855.233-.307.027-.574 0-.883.14-.293.133-.518.404-.824.502" fill="#60a89a"/><path d="M51.328 56.258c.164.835.758 1.656 1 2.5l.496 1.646 1.232 4.07c.143.477.102.79.623.54.36-.176.783-.303 1.193-.45l.545-.207c.28-.13.3-.023.318-.318.02-.346-.27-.834-.354-1.17l-.305-1.147c-.248-.816-.584-1.658-.713-2.497-.26-1.684-.723-3.385-1.31-5-.63.117-1.016.684-1.607.86" fill="#73bcae"/><path d="M41.658 38.455c-.203-.7.29-1.16.883-1.492.795-.446 1.756-.79 2.646-1.058l2.313-.698 1.236-.336c.35-.065.684-.063 1.025-.163.434-.128.627-.008 1.05-.02.256-.008.686-.143.902.093.207.228.273.905.254 1.188-.037.51-.242.995-.492 1.438-.326.568-.656.74-1.14 1.145-.303.248-.543.566-.85.773-.568.387-1.19.59-1.824.837-.473.188-.994.49-1.516.536-.305.03-.65-.1-.967-.117-.283-.014-.55.02-.818-.02-.686-.093-1.748-.82-2.06-1.445" fill="#4c9385"/><path d="M49.527 43.506l.807-1.885-2.523-1.38-1.334 2.548 1.752 1.145c.318-.194.775-.386 1.298-.428z" fill="#a51e22"/><path d="M48.238 43.92l.936 12.462 4.006 1.613 2.44-3.563-6.15-10.934c-.498.048-.942.25-1.233.422z" fill="#cc3636"/><g fill="#8cd0c2"><path d="M41.47 37.586c.096.53.88.987 1.287 1.315.443.358 1.03.568 1.564.76.67.238 1.322.29 2.018.377.518.063 1.012.16 1.535.133-.535.738-.502 1.934-.676 2.8l-.3 1.433c-.057.387-.082.92-.24 1.256-.17-.133-.418-.16-.613-.25-.232-.104-.445-.255-.682-.35-.494-.195-.902-.354-1.332-.696-.775-.618-1.61-1.185-2.258-1.944-.418-.488-.855-1.42-.734-2.076.146-.795.56-1.546.5-2.345-.006-.093 0-.15-.027-.243"/><path d="M51.664 34.502c.213.5-.188 1.313-.344 1.812-.17.544-.54 1.042-.88 1.498-.426.57-.94.975-1.47 1.43-.396.34-.754.696-1.205.965.855.317 1.488 1.332 2.115 1.955l1.043 1.025c.26.29.576.72.898.912.064-.206.256-.366.37-.55l.37-.67c.303-.437.555-.797.725-1.32.3-.942.684-1.876.8-2.868.078-.637-.074-1.656-.54-2.135-.563-.578-1.324-.977-1.723-1.668-.047-.08-.084-.125-.113-.218"/></g><path d="M64.434 52.81l-3.914 1.184c-.52.164-.754.482-.96-.102l-.502-1.522c-.656-1.84-1.797-3.542-2.158-5.49 1.004-.525 2.23-.773 3.322-1.104.55-.165 1.297-.275 1.777-.58" fill="#73bcae"/><path d="M60 54.282c-.1.027-.172.035-.252 0-.11-.048-.19-.16-.262-.366l-.236-.724-.264-.796c-.25-.7-.574-1.39-.89-2.057-.516-1.098-1.05-2.23-1.275-3.447l-.01-.06.05-.024c.752-.396 1.623-.636 2.47-.866l.87-.246.518-.138c.447-.108.908-.224 1.24-.433l.084.132c-.354.224-.828.34-1.287.454l-.5.135-.873.248c-.816.22-1.662.453-2.385.824.23 1.178.748 2.28 1.25 3.352l.895 2.072.266.804.234.72c.055.155.115.245.178.272.076.033.195-.02.348-.1l.338-.13 2.61-.794 1.303-.39.047.15-1.307.39-2.605.79c-.12.037-.227.086-.32.128l-.224.09z" fill="#8cd0c2"/><path d="M57.566 48.706c.764-.23 1.65-.37 2.328-.792a3.61 3.61 0 0 1 .996-.469c.6-.182 1.143-.395 1.766-.363" fill="#73bcae"/><path d="M58.89 48.426l-.67.183-.63.173-.045-.148.637-.175c.584-.15 1.186-.308 1.672-.608.37-.23.604-.354 1.016-.48l.28-.088c.5-.158.97-.306 1.512-.278l-.008.155c-.512-.027-.973.117-1.457.27l-.283.09a3.53 3.53 0 0 0-.979.461c-.317.194-.676.33-1.045.442z" fill="#8cd0c2"/><path d="M86.81 63.245H41.19c-2.545 0-4.355 2.066-4.025 4.59l3.424 26.12c.33 2.522 2.686 4.587 5.23 4.587H82.18c2.545 0 4.896-2.064 5.23-4.587l3.424-26.12c.332-2.522-1.48-4.59-4.025-4.59zM52.27 94.42c-1.504 0-2.807-1.355-2.896-3.033L48.5 74.625c-.102-1.94 1.162-3.552 2.813-3.552s3.047 1.6 3.105 3.552l.508 16.762c.05 1.677-1.14 3.033-2.645 3.033zm14.387-3.03c-.03 1.676-1.283 3.03-2.787 3.03s-2.744-1.355-2.752-3.033l-.08-16.762c-.01-1.94 1.334-3.552 2.98-3.552s2.97 1.6 2.938 3.552zm11.746-.002c-.11 1.678-1.43 3.033-2.936 3.033s-2.676-1.355-2.604-3.03l.72-16.764c.084-1.94 1.504-3.552 3.152-3.552s2.895 1.6 2.768 3.552z" fill="#cc3636"/><path d="M90.305 71.925l.634-4.965-52.613-.48-1.074 1.78z" fill="#a51e22"/><path d="M94.146 66.05c0 1.197-1.13 2.174-2.512 2.174h-55.27c-1.383 0-2.512-.977-2.512-2.174v-6.994c0-1.195 1.13-2.174 2.512-2.174h55.27c1.38 0 2.512.98 2.512 2.174z" fill="#ed5e53"/><circle cx="31.537" cy="76.514" r="4.488" fill="#a51e22"/><path d="M30.375 78.07c.877.656 2.152.455 2.828-.45l10.463-13.988c.676-.904.5-2.182-.37-2.84s-2.152-.456-2.83.448L30.004 75.23c-.676.904-.5 2.18.37 2.84zM42.45 61.922a.67.67 0 1 1-.804 1.075c-.297-.224-.357-.644-.137-.94a.67.67 0 0 1 .941-.136zM32.04 75.84c.297.223.357.646.137.942s-.645.358-.943.136-.355-.645-.135-.942a.67.67 0 0 1 .941-.136z" fill="#d3d8d2"/><circle cx="96.462" cy="76.514" r="4.487" fill="#a51e22"/><path d="M97.996 75.23L87.533 61.24c-.676-.904-1.95-1.107-2.83-.448s-1.047 1.936-.37 2.84L94.797 77.62c.676.904 1.95 1.105 2.828.45s1.045-1.937.37-2.84zm-11.508-13.17a.67.67 0 1 1-1.078.803.67.67 0 1 1 1.078-.803zm10.4 13.918a.67.67 0 1 1-1.076.806c-.223-.296-.16-.72.135-.942a.67.67 0 0 1 .941.136z" fill="#d3d8d2"/><path d="M75.176 48.725c-1.197-6.57-4.4-6.542-6.334-6.94-.314.08-.313-.253-.315.08 1.322.6 2.55 1.905 2.836 3.848.365 2.484.215 5.682.05 7.718 1.564-.163 2.764-.554 3.398-.82 1.124-.47.364-3.883.364-3.883zm-10.636-5.37c.947-.805 2.078-1.3 2.982-1.596-1.934-.058-4.566.613-6.43 1.96-2.215 1.596-2.432 8.564-2.432 8.564l3.713.13c.066-1.365.456-7.605 2.167-9.058z" fill="#e2a048"/><path d="M71.5 45.496c-.287-1.947-1.66-3.03-2.982-3.633-.305-.063-.643-.096-1.006-.105-.904.296-2.035.79-2.982 1.596-1.71 1.453-2.102 7.693-2.166 9.06 1.598.1 3.45.28 4.998.596s2.98.328 4.19.203c.162-2.038.312-5.233-.05-7.716z" fill="#ce8933"/><ellipse cx="67.861" cy="41.793" rx=".998" ry=".398" fill="#273f47"/><path d="M72.824 52.902l-.914.3v.105c-1.355.07-3.998.08-6.703-.637-3.885-1.03-6.62-.516-6.62-.516l-3.715 3.16c-.22.246.104.294.104.294s2.605-1.536 5.182-.704 6.67 2.735 8.867 1.598 3.826-3.27 3.826-3.27z" fill="#aa6427"/><path d="M54.98 55.488s2.586-1.566 5.172-.768c2.586.803 6.7 2.66 8.885 1.494s3.787-3.313 3.787-3.313-3.75.51-7.646-.473-6.63-.44-6.63-.44l-3.678 3.207c-.217.247.11.292.11.292z" fill="#ce8933"/></g></svg>