<svg xmlns="http://www.w3.org/2000/svg" width="48" height="48"><circle r="24" cy="24" cx="24" fill="#ebeeee"/><path d="M37.69 14.9l10.21 10.21c.077 3.624-1.582 8.992-4.278 12.693-3.117 4.28-7.43 7.643-12.908 9.24l-8.198-8.198z" fill-opacity=".078"/><path d="M24 39.36c-1.2 0-2-.84-2-.84L10.64 27.96c-3.2-2.96-3.8-9.6 0-13.28C17.52 7.8 24 15.2 24 15.2s6.56-7.4 13.44-.52c3.8 3.68 3.2 10.32 0 13.28L26.08 38.52s-.88.84-2.08.84z" fill="#e45647"/><path d="M22.08 38.56l-11.44-10.6S7.96 25.76 8 21.08c.84 3.16 2.88 5.28 2.88 5.28L23.2 37.64s1.24 1.08 2.48 1.12c-1.2.92-2.6.72-3.6-.2zm6.96-6.6l-1.68-6.2-.8 3.88c-.12.68-.76 1.2-1.44 1.2H19.6c-.32 0-.6-.28-.6-.6v-.8l5.72.16 1.88-8.52a.56.56 0 0 1 .56-.48.6.6 0 0 1 .6.44l2.72 9.56 1.72-4.04c.08-.2.32-.36.56-.36s.44.12.56.36l1.08 2.24h2.16L35.28 30h-1.36c-.2 0-.4-.12-.56-.28l-.44-.68-1.2 3.08c-.24.52-.68.92-1.36.92s-1.16-.48-1.32-1.08z" fill="#cc4d40"/><path d="M30.4 32.2s-.04 0 0 0c-.28 0-.52-.2-.56-.44l-2.56-8.92-1.48 6.68c-.08.28-.32.48-.6.48h-5.6c-.32 0-.6-.28-.6-.6s.28-.6.6-.6h5.12l1.88-8.52a.56.56 0 0 1 .56-.48.6.6 0 0 1 .6.44l2.72 9.56 1.72-4.04c.08-.2.32-.36.56-.36s.44.12.56.36L34.4 28h4.4c.32 0 .6.28.6.6s-.28.6-.6.6H34c-.24 0-.44-.12-.56-.36l-.64-1.36-1.88 4.36a.57.57 0 0 1-.52.36z"/></svg>