<svg xmlns="http://www.w3.org/2000/svg" viewBox="0 0 48 48.665" height="49" width="48"><g transform="matrix(.081269 0 0 .081269 -.188952 -10.209844)"><circle r="295.315" cy="420.945" cx="297.64" fill="#5fc3b0"/><path d="M120.22 312.585H82.78c-3.953 0-7.674 2.79-8.604 6.744-4.187 16.51-14.185 59.528-10.93 79.758z" fill="#c64a48"/><path d="M531.8 437.223l-.697-1.396c-4.884-10-13.72-18.603-24.648-26.044-28.602-19.532-69.76-30.23-79.06-32.554-5.813 1.86-12.092 1.86-17.208-3.255-13.02-12.79-57.9-36.74-65.108-41.39-2.8-1.86-3.953-4.186-4.418-6.743-20.23-8.14-33.02-11.162-33.02-11.162l-95.105-2.093h-100.92c-17.44 0-32.555 12.092-36.508 29.066-9.302 39.53-23.02 107.662-14.185 130.45 8.37 21.858 22.09-6.976 30.462-29.066 19.997 3.72 43.716 3.256 43.716 3.256h403.674z" fill="#758092"/><path d="M459.947 446.29c-36.042 0-49.296 38.367-53.947 58.598 7.21 0 64.18-.465 97.43-3.953.23-13.72-2.79-54.645-43.484-54.645zm-331.59.002c-36.043 0-49.064 21.856-53.947 42.083 28.834 17.445 91.617 16.514 91.617 16.514 0-14.416-2.79-58.597-37.67-58.597z" fill="#131313"/><circle r="39.996" cy="489.309" cx="458.086" fill="#343434"/><circle r="27.904" cy="489.309" cx="458.086" fill="gray"/><circle r="8.371" cy="489.31" cx="458.086" fill="#bcbfc2"/><path d="M445.995 491.17h-8.604c-1.86 0-3.487 1.86-3.022 3.72.697 2.56 1.628 4.884 2.8 6.977.93 1.628 3.488 2.093 4.884.697l6.046-6.046c1.86-1.86.464-5.348-2.094-5.348zm2.093-9.067l-6.046-6.045c-1.396-1.4-3.72-1.166-4.884.697-1.395 2.09-2.325 4.417-2.8 6.977-.465 1.857.93 3.72 3.022 3.72h8.604c2.56 0 3.954-3.257 2.094-5.348zm4.186-16.514c-2.56.697-4.884 1.63-6.977 2.794-1.628.93-2.093 3.485-.697 4.88l6.046 6.045c1.86 1.863 5.115.47 5.115-2.09v-8.605c.232-1.857-1.628-3.25-3.487-3.023zm7.673 3.023v8.605c0 2.788 3.256 4.19 5.116 2.09l6.046-6.045c1.395-1.394 1.162-3.72-.698-4.88-2.093-1.4-4.418-2.326-6.976-2.794-1.628-.228-3.488 1.166-3.488 3.023zm7.906 27.907l6.046 6.045c1.396 1.394 3.72 1.16 4.883-.697 1.396-2.09 2.325-4.417 2.79-6.977.465-1.863-.93-3.72-3.023-3.72h-8.604c-2.558 0-3.954 3.485-2.093 5.348zm2.325-9.068h8.604c1.86 0 3.488-1.863 3.023-3.726-.698-2.554-1.628-4.88-2.79-6.97-.93-1.63-3.487-2.097-4.883-.703l-6.046 6.05c-2.093 2.09-.697 5.348 2.093 5.348zm-10.23 13.948v8.605c0 1.863 1.86 3.485 3.72 3.023 2.558-.697 4.883-1.63 6.976-2.788 1.628-.93 2.093-3.49.698-4.886l-6.046-6.045c-2.094-2.09-5.35-.697-5.35 2.09zm-9.07-2.09l-6.046 6.045c-1.396 1.4-1.163 3.72.697 4.886 2.093 1.394 4.418 2.326 6.977 2.788 1.86.47 3.72-.93 3.72-3.023v-8.6c-.233-2.794-3.487-4.19-5.348-2.097z" fill="#2f333d"/><circle r="39.996" cy="489.309" cx="122.312" fill="#343434"/><circle r="27.904" cy="489.309" cx="122.312" fill="gray"/><circle r="8.371" cy="489.31" cx="122.312" fill="#bcbfc2"/><path d="M110.22 491.17h-8.604c-1.86 0-3.488 1.86-3.023 3.72.698 2.56 1.628 4.884 2.79 6.977.93 1.628 3.487 2.093 4.883.697l6.046-6.046c1.86-1.86.465-5.348-2.093-5.348zm2.093-9.067l-6.046-6.045c-1.396-1.4-3.72-1.166-4.883.697-1.396 2.09-2.325 4.417-2.79 6.977-.465 1.857.93 3.72 3.023 3.72h8.604c2.558 0 3.953-3.257 2.093-5.348zm4.185-16.514c-2.558.697-4.883 1.63-6.976 2.794-1.628.93-2.093 3.485-.698 4.88l6.046 6.045c1.86 1.863 5.116.47 5.116-2.09v-8.605c.233-1.857-1.627-3.25-3.488-3.023zm7.674 3.023v8.605c0 2.788 3.255 4.19 5.115 2.09l6.046-6.045c1.396-1.394 1.163-3.72-.697-4.88-2.093-1.4-4.418-2.326-6.977-2.794-1.627-.228-3.487 1.166-3.487 3.023zm7.905 27.907l6.046 6.045c1.396 1.394 3.72 1.16 4.884-.697 1.395-2.09 2.325-4.417 2.8-6.977.465-1.863-.93-3.72-3.022-3.72h-8.604c-2.558 0-3.953 3.485-2.094 5.348zm2.327-9.068h8.604c1.86 0 3.487-1.863 3.022-3.726-.697-2.554-1.628-4.88-2.8-6.97-.93-1.63-3.488-2.097-4.884-.703l-6.045 6.05c-2.093 2.09-.698 5.348 2.093 5.348zM124.172 501.4v8.605c0 1.863 1.86 3.485 3.72 3.023 2.56-.697 4.884-1.63 6.977-2.788 1.628-.93 2.093-3.49.697-4.886l-6.046-6.045c-2.093-2.09-5.348-.697-5.348 2.09zm-9.07-2.09l-6.046 6.045c-1.395 1.4-1.162 3.72.698 4.886 2.093 1.394 4.418 2.326 6.976 2.788 1.86.47 3.72-.93 3.72-3.023v-8.6c-.233-2.794-3.49-4.19-5.35-2.097z" fill="#2f333d"/><path d="M538.775 446.29H135.1s-61.62-3.023-76.503-16.277c0 0-5.813 8.37 2.325 42.32 1.628 6.744 6.51 11.86 13.72 16.277 4.883-20.23 17.904-42.088 53.947-42.088 34.88 0 37.902 44.18 37.902 58.598h239.74c4.418-20.23 17.905-58.598 53.947-58.598 40.693 0 43.716 40.926 43.483 54.878 11.86-1.163 20.695-2.79 23.02-4.65 9.767-8.37 12.093-50.46 12.093-50.46z" fill="#425064"/><path d="M345.076 332.583c7.208 4.65 52.087 28.602 65.108 41.39 5.116 5.116 11.395 5.116 17.208 3.255l-2.093-.465c-31.625-26.043-62.552-41.623-84.642-50.692.466 2.325 1.63 4.65 4.42 6.51z" fill="#caced7"/><g fill="#283341"><ellipse ry="4.883" rx="11.859" cy="399.087" cx="142.309"/><ellipse ry="4.883" rx="11.859" cy="399.087" cx="276.015"/></g><path d="M392.513 382.112c-44.182-51.622-109.987-51.854-109.987-51.854h-32.1l7.906 51.854zm-159.284.002l-3.487-51.854h-73.016c-20.23 0-31.392 41.392-33.95 51.854zm-119.987 0c2.325-24.187 17.905-51.854 17.905-51.854-33.252 0-39.995 10.462-45.344 21.856-3.022 6.742-9.767 26.044-11.16 30h38.6z" fill="#caced7"/><path d="M531.8 437.223c-6.278-22.09-27.206-39.298-49.994-40.926 12.092 18.138 29.764 32.555 49.994 40.926z" fill="#edf0f2"/><g fill="#5b6778"><path d="M253.924 501.168l-1.86-.232c3.72-44.646-14.417-178.12-14.417-179.28l1.86-.232c0 1.394 18.37 134.867 14.417 179.745z"/><path d="M387.63 501.866h-218.81v-.93c4.186-51.854-54.412-75.805-55.11-76.037l-.466-.232v-.466c-5.348-54.877 31.625-98.36 31.857-98.826l.232-.232h.465c.465 0 49.064-3.488 94.64-3.488 26.74 0 47.203 1.163 60.923 3.72 46.97 8.14 95.57 42.088 105.337 60.923v.232c0 .7 10.696 64.412-19.07 115.337zm-216.95-1.628h215.79c28.602-49.297 19.067-110.22 18.603-113.475-9.767-18.603-57.668-51.622-103.94-59.76-13.487-2.325-33.95-3.488-60.7-3.488-43.483 0-89.524 3.255-94.176 3.488-3.022 3.72-36.042 45.11-31.392 96.733 6.045 2.326 59.295 26.51 55.807 76.503z"/></g><path d="M63.608 479.61" stroke-miterlimit="10" fill="none" stroke="#000"/></g><path d="M8.94 32.704L24.213 48s17.446.963 23.104-18.293l-3.72-3.77s-.186 3.992-1.125 4.298c0 0-1.547.355-2.34.32 0 0-.58 2.096-2.942 2.25 0 0-2.233.1-3.15-1.996l-21.302.03s-.92 2.34-3.666 1.893" fill="#4b9989"/><path d="M112.327 528.05" stroke-miterlimit="10" fill="none" stroke="#000" transform="matrix(.081269 0 0 .081269 -.188952 -10.209844)"/><path d="M4.98 28.767l1.666 1.752s-.135-.46-.135-.7c0 0-.665-.177-1.53-1.043z" fill="#4b9989"/></svg>