<svg xmlns="http://www.w3.org/2000/svg" width="48" height="48"><style><![CDATA[.B{fill:#ffd755}.C{fill:#ebb123}.D{fill:#efbe43}.E{fill:#fef49f}.F{fill:#c18b10}.G{fill:#f5f4e0}.H{fill:#7f8135}]]></style><circle r="24" cy="24" cx="24" fill="#4caf50"/><path d="M41.623 19.56l-.652.88-2.898 1.62-7.425-6.854h-4.324l-3.67-3.508-3.186 7.27-12.48 7.09-.392.75 21.11 20.905c10.914-1.69 19.39-10.737 20.222-21.913z" fill="#3c893f"/><g transform="scale(.375)"><ellipse ry="3.902" rx="9.425" cy="52.294" cx="51.029" class="B"/><path d="M51.03 56.196c-5.204 0-9.425-1.747-9.425-3.902v2.225c0 2.156 4.22 3.902 9.425 3.902s9.425-1.746 9.425-3.902v-2.225c0 2.155-4.22 3.902-9.425 3.902z" class="D"/><ellipse ry="3.638" rx="8.786" cy="52.294" cx="51.029" class="C"/><g class="B"><ellipse ry="3.486" rx="8.421" cy="52.294" cx="51.029"/><path d="M50.958 56.383V58.2l.07.001.07-.001v-1.818h-.142zm-.748 1.804l.144.003v-1.818l-.144-.003zm-.794-.043l.142.01v-1.817l-.142-.01zm-.77-.068l.143.014v-1.814l-.143-.015zm-.757-.097l.143.02v-1.812l-.143-.02zm-.796-.133l.143.025v-1.81l-.143-.026zm-.795-.172l.143.034v-1.806l-.143-.034zm-.77-.206l.142.042v-1.802l-.142-.042zm-.55-.176l.143.047V55.54l-.143-.047zm-.56-.212l.143.058v-1.794l-.143-.057zm-.482-.213l.143.067v-1.79l-.143-.064zm-.458-.232l.143.076v-1.784l-.143-.075zm-.43-.26a2.98 2.98 0 0 0 .144.092v-1.778l-.144-.086zm-.433-.314l.143.114v-1.766l-.143-.108zm-.38-.356l.143.146v-1.745l-.143-.133zm-.364-.484c.042.074.09.146.142.218v-1.7c-.05-.058-.1-.118-.142-.178zm9.835 2.97l.143-.003V56.37l-.143.003zm.795-.036l.142-.01v-1.817l-.142.01zm.77-.064l.143-.014V56.26l-.143.015zm.756-.09l.142-.02v-1.813l-.142.02zm.796-.127l.142-.025v-1.8l-.142.026zm.796-.164l.142-.034v-1.806l-.142.034zm.77-.198l.142-.042v-1.802l-.142.042zm.548-.17l.143-.047v-1.798l-.143.047zm.56-.202l.142-.058v-1.793l-.142.057zm.482-.202l.144-.067V55.08l-.144.064zm.457-.224l.143-.076V54.85l-.143.075zm.43-.245l.143-.092v-1.77c-.046.03-.096.058-.143.086zm.432-.293l.142-.114V54.3l-.142.108zm.382-.324l.142-.146V53.97l-.142.133zm.364-2.112v1.7c.053-.072.1-.144.144-.218v-1.66l-.144.18z"/></g><path d="M55.007 52.903h-.045c-.222-.462-1.31-.754-3.252-.995-1.85-.23-2.637-.4-2.637-.733 0-.258.617-.556 2.255-.556 1.36 0 2.23.143 2.678.22l.527-.422h.005v-.19h-.39v.125c-.58-.083-1.346-.15-2.374-.163v-.625h-1.32v.65c-1.734.087-2.916.415-3.16.86h-.06v.19h.013c.022.55 1.356.845 3.505 1.1 1.574.193 2.403.412 2.403.766 0 .367-1.02.63-2.53.63-1.19 0-2.298-.122-3.062-.277l-.3.245h-.222v.2h.016c.746.16 2.014.274 3.237.28v.65h1.34v-.67c2.18-.1 3.35-.583 3.358-1.09h.002v-.187z" class="C"/><path d="M50.307 54.665v-.65c-1.233-.006-2.51-.122-3.253-.284l.512-.43c.764.154 1.87.277 3.062.277 1.51 0 2.53-.264 2.53-.63 0-.354-.83-.574-2.403-.767-2.168-.258-3.508-.554-3.508-1.113 0-.535 1.254-.94 3.21-1.04v-.65h1.32v.624c1.276.013 2.146.117 2.763.225l-.532.427c-.446-.077-1.316-.22-2.678-.22-1.638 0-2.255.295-2.255.555 0 .334.786.502 2.637.734 2.2.27 3.295.605 3.295 1.178 0 .51-1.168.985-3.358 1.095v.67z" class="E"/><ellipse ry="3.73" rx="9.047" cy="51.629" cx="52.515" class="F"/><ellipse ry="3.903" rx="9.424" cy="48.843" cx="52.925" class="B"/><path d="M52.925 52.746c-5.204 0-9.424-1.747-9.424-3.903v2.226c0 2.156 4.22 3.903 9.424 3.903s9.425-1.748 9.425-3.903v-2.226c0 2.156-4.22 3.903-9.425 3.903z" class="D"/><ellipse ry="3.637" rx="8.786" cy="48.843" cx="52.925" class="C"/><g class="B"><ellipse ry="3.487" rx="8.421" cy="48.843" cx="52.926"/><path d="M52.854 52.932v1.818H52.924 52.995v-1.818l-.07.001c-.023 0-.046-.001-.07-.001zm-.748 1.802l.143.007v-1.82c-.047 0-.096-.003-.143-.004zm-.794-.043l.143.01v-1.815l-.143-.01zm-.77-.066l.143.014v-1.816l-.143-.014zm-.758-.097l.143.02v-1.813l-.143-.02zm-.795-.134a2.08 2.08 0 0 0 .143.026v-1.81c-.048-.007-.095-.018-.143-.025zm-.797-.17l.144.033v-1.805l-.144-.033zm-.768-.21l.144.043v-1.8l-.144-.042zm-.548-.175l.143.047V52.09l-.143-.048zm-.56-.21l.143.057v-1.794l-.143-.057zm-.483-.213l.144.068v-1.792l-.144-.063zm-.456-.23l.143.075v-1.784l-.143-.075zm-.432-.26l.143.092v-1.78l-.143-.085zm-.43-.317l.143.113v-1.765l-.143-.107zm-.38-.355a2.18 2.18 0 0 0 .142.145v-1.744l-.142-.133zm-.365-.485c.043.074.1.147.143.22v-1.7c-.05-.06-.098-.12-.143-.18zM53.6 54.74l.144-.007v-1.816l-.144.004zm.796-.038l.143-.01v-1.814l-.143.01zm.77-.062l.143-.014V52.81l-.143.014zm.758-.1l.14-.02v-1.812l-.14.02zm.795-.13l.143-.026v-1.81l-.143.025zm.795-.163l.143-.033V52.42l-.143.033zm.77-.2l.143-.043v-1.8l-.143.042zm.55-.17c.048-.014.095-.03.143-.047v-1.8l-.143.048zm.56-.2l.143-.057v-1.794l-.143.057zm.482-.202l.143-.068V51.63l-.143.063zm.457-.224l.143-.075V51.4l-.143.076zm.43-.243l.143-.092V51.15c-.045.03-.094.057-.143.085zm.432-.296l.142-.113V50.85l-.142.105zm.382-.324a2.48 2.48 0 0 0 .143-.145V50.52l-.143.133zm.365-2.112v1.7c.053-.072.1-.145.143-.22v-1.66a2.61 2.61 0 0 1-.143.179z"/></g><path d="M56.903 49.45h-.046c-.22-.463-1.308-.754-3.25-.993-1.85-.232-2.637-.4-2.637-.735 0-.258.615-.554 2.254-.554a14.87 14.87 0 0 1 2.68.219l.525-.422h.005v-.2h-.39v.125c-.58-.084-1.347-.153-2.374-.164v-.625h-1.318v.65c-1.735.086-2.916.416-3.16.86h-.06v.2h.012c.02.552 1.356.845 3.506 1.102 1.574.192 2.402.412 2.402.766 0 .367-1.02.63-2.53.63-1.19 0-2.297-.123-3.062-.276l-.3.244h-.22v.19h.015c.747.16 2.015.273 3.237.28v.65h1.34v-.67c2.182-.11 3.35-.583 3.36-1.09h.002z" class="C"/><path d="M52.202 51.213v-.65c-1.232-.007-2.508-.123-3.252-.285l.51-.43c.765.154 1.87.278 3.062.278 1.5 0 2.53-.265 2.53-.633 0-.354-.828-.573-2.402-.766-2.168-.257-3.508-.554-3.508-1.114 0-.534 1.254-.94 3.21-1.036v-.65h1.318v.626c1.276.01 2.146.115 2.763.224l-.53.425c-.447-.077-1.318-.22-2.68-.22-1.64 0-2.254.296-2.254.554 0 .335.787.502 2.637.734 2.19.27 3.295.605 3.295 1.18 0 .508-1.17.984-3.36 1.094v.67h-1.34z" class="E"/><ellipse ry="3.458" rx="9.077" cy="47.797" cx="54.008" class="F"/><ellipse ry="3.902" rx="9.424" cy="44.806" cx="54.293" class="B"/><path d="M54.294 48.708c-5.205 0-9.425-1.746-9.425-3.902v2.226c0 2.154 4.22 3.9 9.425 3.9s9.424-1.747 9.424-3.9v-2.226c0 2.156-4.22 3.902-9.424 3.902z" class="D"/><ellipse ry="3.637" rx="8.786" cy="44.806" cx="54.293" class="C"/><g class="B"><ellipse ry="3.486" rx="8.421" cy="44.806" cx="54.293"/><path d="M54.223 48.894v1.82h.14v-1.82l-.07.001c-.024 0-.048-.001-.07-.001zm-.747 1.804l.142.004v-1.818l-.142-.004zm-.796-.043l.142.01v-1.818c-.047-.001-.094-.007-.142-.01zm-.77-.068l.142.014v-1.816l-.142-.013zm-.757-.096l.142.02V48.7l-.142-.02zm-.797-.135l.143.027v-1.81l-.143-.027zm-.794-.17l.143.034v-1.805l-.143-.034zm-.77-.207l.143.042v-1.8l-.143-.04zm-.55-.176l.144.048v-1.798l-.144-.05zm-.56-.212l.143.057v-1.794l-.143-.058zm-.483-.212l.143.067v-1.79l-.143-.064zm-.457-.232l.143.076V47.44l-.143-.077zm-.43-.26c.047.033.093.063.143.09V47.2l-.143-.087zm-.433-.316l.144.113v-1.766l-.144-.107zm-.38-.355l.142.146v-1.743l-.142-.134zm-.366-.485a2.5 2.5 0 0 0 .143.218v-1.7l-.143-.18zm9.836 2.973l.143-.004v-1.82l-.143.004zm.795-.037c.048-.002.096-.007.144-.01V48.84l-.144.01zm.77-.065c.05-.003.096-.01.143-.014v-1.815l-.143.013zm.758-.1l.143-.02v-1.813l-.143.02zm.795-.128l.143-.027v-1.81l-.143.027zm.796-.163l.144-.034V48.38l-.144.034zm.77-.2l.143-.042v-1.8l-.143.04zm.547-.17l.145-.048v-1.8l-.145.05zm.562-.203l.144-.057v-1.794l-.144.058zm.483-.202l.142-.067V47.59l-.142.064zm.456-.223l.142-.076v-1.785l-.142.077zm.43-.245c.05-.028.096-.06.143-.09v-1.773c-.045.03-.095.058-.143.087zm.432-.294l.143-.113v-1.758l-.143.106zm.38-.324a2.46 2.46 0 0 0 .143-.146v-1.732l-.143.134zm.367-2.112v1.7a2.5 2.5 0 0 0 .143-.218v-1.662a3.44 3.44 0 0 1-.143.18z"/></g><path d="M58.27 45.415h-.045c-.22-.464-1.31-.755-3.25-.994-1.852-.232-2.64-.4-2.64-.736 0-.257.617-.552 2.255-.552 1.36 0 2.232.14 2.68.218l.527-.42h.004v-.19h-.39v.124c-.58-.083-1.346-.15-2.375-.16v-.626H53.72v.65c-1.734.087-2.914.416-3.16.86h-.06v.19h.012c.022.55 1.356.844 3.505 1.1 1.576.192 2.403.413 2.403.766 0 .367-1.02.63-2.53.63-1.19 0-2.298-.122-3.062-.277l-.29.245h-.223v.19h.016c.746.16 2.014.273 3.238.28v.65h1.34v-.67c2.182-.108 3.35-.582 3.357-1.087h.002v-.19z" class="C"/><path d="M53.57 47.176v-.65c-1.234-.007-2.5-.123-3.254-.284l.512-.432c.764.154 1.87.277 3.062.277 1.51 0 2.53-.265 2.53-.632 0-.353-.827-.572-2.403-.765-2.168-.26-3.508-.555-3.508-1.115 0-.533 1.255-.94 3.21-1.036v-.65h1.318v.625c1.277.012 2.147.115 2.764.224l-.53.426c-.446-.077-1.317-.22-2.68-.22-1.638 0-2.255.295-2.255.554 0 .335.787.503 2.64.734 2.188.27 3.293.605 3.293 1.18 0 .508-1.168.985-3.357 1.095v.67h-1.34z" class="E"/><ellipse ry="3.73" rx="9.239" cy="43.554" cx="53.691" class="F"/><ellipse ry="3.903" rx="9.424" cy="40.769" cx="53.175" class="B"/><path d="M53.175 44.67c-5.205 0-9.424-1.747-9.424-3.903v2.227c0 2.155 4.22 3.902 9.424 3.902S62.6 45.15 62.6 42.995v-2.227c0 2.157-4.22 3.903-9.424 3.903z" class="D"/><ellipse ry="3.639" rx="8.786" cy="40.769" cx="53.175" class="C"/><g class="B"><ellipse ry="3.487" rx="8.421" cy="40.769" cx="53.175"/><path d="M53.104 44.856v1.82h.142v-1.82l-.072.002c-.023 0-.046-.002-.07-.002zm-.748 1.805l.143.004v-1.818l-.143-.004zm-.794-.043l.142.01v-1.817l-.142-.01zm-.77-.068l.143.015V44.75l-.143-.012zm-.758-.096l.143.02v-1.813l-.143-.02zm-.795-.133l.142.027v-1.81l-.142-.027zm-.796-.173l.142.035v-1.805l-.142-.034zm-.77-.206l.142.042v-1.8l-.142-.04zm-.55-.176l.144.048v-1.8l-.144-.047zm-.56-.212l.142.056V43.82l-.142-.058zm-.482-.212l.142.066v-1.79l-.142-.064zm-.457-.233l.142.076V43.4l-.142-.075zm-.43-.26l.143.092v-1.78l-.143-.085zm-.43-.317l.143.113V42.88c-.05-.034-.096-.07-.143-.106zm-.38-.355l.142.145v-1.745c-.05-.043-.097-.088-.142-.133zm-.365-.485c.042.074.088.146.142.22v-1.7l-.142-.18zm9.834 2.972l.144-.004v-1.818l-.144.004zm.795-.036l.144-.01v-1.815l-.144.01zm.77-.065l.144-.015v-1.813l-.144.012zm.757-.09l.143-.02V44.64l-.143.02zm.796-.128l.144-.027v-1.81l-.144.027zm.796-.164l.143-.034v-1.805l-.143.035zm.77-.2l.144-.042v-1.8l-.144.04zm.55-.17l.143-.048v-1.798l-.143.047zm.56-.204l.143-.056V43.76l-.143.058zm.482-.2l.143-.066v-1.79l-.143.064zm.457-.223l.142-.076v-1.785l-.142.075zm.43-.245l.142-.092v-1.772c-.045.03-.095.057-.142.085zm.43-.295c.05-.037.097-.075.143-.113v-1.76l-.143.106zm.383-.323c.05-.048.096-.097.143-.145v-1.732l-.143.133zm.365-2.112v1.7c.053-.072.1-.146.143-.22v-1.66c-.045.062-.092.12-.143.18z"/></g><path d="M57.152 41.377h-.046c-.22-.463-1.307-.755-3.25-.994-1.852-.23-2.637-.4-2.637-.734 0-.258.615-.553 2.254-.553a14.95 14.95 0 0 1 2.678.218l.527-.42h.005v-.2h-.39v.124c-.58-.084-1.347-.153-2.374-.163v-.625H52.6v.65c-1.733.084-2.914.414-3.16.86h-.06v.19h.012c.022.552 1.357.845 3.506 1.1 1.574.192 2.402.412 2.402.767 0 .367-1.02.63-2.53.63-1.19 0-2.297-.122-3.063-.276l-.29.245h-.222v.188h.017c.745.16 2.012.273 3.236.28v.65h1.34v-.67c2.182-.11 3.35-.583 3.358-1.088h.002v-.19z" class="C"/><path d="M52.452 43.14v-.65c-1.232-.006-2.508-.123-3.253-.283l.51-.432c.766.155 1.87.277 3.063.277 1.51 0 2.53-.265 2.53-.63 0-.354-.828-.572-2.402-.765-2.17-.26-3.508-.555-3.508-1.115 0-.534 1.254-.94 3.21-1.037v-.65h1.32v.625c1.275.012 2.146.115 2.763.225l-.532.425a14.77 14.77 0 0 0-2.678-.22c-1.64 0-2.254.297-2.254.554 0 .335.785.503 2.637.734 2.19.27 3.294.606 3.294 1.18 0 .51-1.17.985-3.358 1.096v.67h-1.34z" class="E"/><ellipse ry="3.73" rx="9.239" cy="39.927" cx="52.707" class="F"/><ellipse ry="3.902" rx="9.425" cy="37.142" cx="52.191" class="B"/><path d="M52.2 41.044c-5.204 0-9.424-1.746-9.424-3.902v2.226c0 2.154 4.22 3.902 9.424 3.902s9.426-1.748 9.426-3.902v-2.226c0 2.156-4.22 3.902-9.426 3.902z" class="D"/><ellipse ry="3.637" rx="8.785" cy="37.142" cx="52.191" class="C"/><g class="B"><ellipse ry="3.486" rx="8.421" cy="37.142" cx="52.191"/><path d="M52.12 41.23v1.818l.07.001.07-.001V41.23H52.2c-.023 0-.046-.001-.07-.001zm-.748 1.805l.143.004V41.22l-.143-.005zM50.577 43H50.72v-1.817l-.143-.01zm-.77-.067l.143.014V41.12l-.143-.013zm-.757-.096l.142.02v-1.813l-.142-.02zm-.796-.136l.143.027V40.9l-.143-.027zm-.796-.17l.144.033V40.75l-.144-.034zm-.77-.208l.144.042v-1.8l-.144-.04zm-.547-.174l.143.047v-1.798l-.143-.048zm-.56-.212l.143.057V40.2l-.143-.058zm-.483-.212l.144.067V40l-.144-.063zm-.456-.233a2.04 2.04 0 0 0 .143.076v-1.783l-.143-.076zm-.432-.258l.143.1v-1.78l-.143-.086zm-.432-.318l.143.114v-1.766l-.143-.107zm-.38-.355c.045.05.092.098.142.146V38.95l-.142-.133zm-.365-.484a2.6 2.6 0 0 0 .143.218v-1.7c-.05-.06-.098-.118-.143-.178zm9.834 2.972l.144-.004v-1.82l-.144.005zm.796-.036c.048-.001.095-.007.144-.01v-1.815l-.144.01zm.77-.064l.143-.014v-1.815l-.143.013zm.755-.1l.143-.02v-1.812l-.143.02zm.797-.128l.143-.027v-1.81l-.143.027zm.795-.164l.143-.033v-1.806c-.047.013-.094.023-.143.034zm.77-.2l.144-.042v-1.8l-.144.04zm.55-.17l.143-.047v-1.8l-.143.048zm.56-.203l.143-.057v-1.794l-.143.058zm.483-.2l.144-.067v-1.788l-.144.063zm.457-.224l.143-.075V39.7l-.143.076zm.43-.244l.142-.1V39.45c-.045.03-.094.057-.142.086zm.432-.295c.05-.037.097-.075.142-.114v-1.758l-.142.106zm.382-.323c.05-.048.098-.096.143-.146v-1.73l-.143.133zm.365-2.113v1.7a2.6 2.6 0 0 0 .143-.218v-1.66l-.143.178z"/></g><path d="M56.17 37.75h-.046c-.22-.464-1.308-.755-3.25-.993-1.852-.232-2.637-.4-2.637-.736 0-.257.615-.553 2.254-.553a15 15 0 0 1 2.68.218l.525-.42h.005v-.2h-.39v.125c-.58-.084-1.347-.153-2.374-.163v-.625h-1.318v.65c-1.735.086-2.916.416-3.16.86h-.06v.2h.01c.022.55 1.357.844 3.506 1.1 1.574.192 2.402.413 2.402.766 0 .367-1.02.632-2.53.632-1.19 0-2.297-.123-3.062-.277l-.3.245h-.22v.19h.016c.746.158 2.014.273 3.236.28v.65h1.34v-.67c2.182-.108 3.35-.583 3.36-1.088h.002v-.192z" class="C"/><path d="M51.468 39.512v-.65c-1.232-.007-2.508-.124-3.252-.285l.51-.432c.765.155 1.87.278 3.062.278 1.5 0 2.53-.265 2.53-.633 0-.353-.828-.572-2.402-.765-2.168-.258-3.508-.554-3.508-1.115 0-.534 1.254-.94 3.21-1.036v-.65h1.318v.625c1.276.012 2.147.115 2.763.225l-.53.425a14.85 14.85 0 0 0-2.68-.219c-1.64 0-2.254.295-2.254.553 0 .336.785.503 2.637.734 2.19.27 3.295.605 3.295 1.18 0 .51-1.17.985-3.36 1.095v.67h-1.34z" class="E"/><g class="F"><ellipse ry="3.73" rx="8.869" cy="36.03" cx="52.991"/><ellipse ry="3.729" rx="9.088" cy="36.161" cx="52.772"/></g><ellipse ry="3.902" rx="9.424" cy="33.246" cx="52.845" class="B"/><path d="M52.845 37.148c-5.205 0-9.424-1.747-9.424-3.902v2.226c0 2.154 4.22 3.9 9.424 3.9s9.424-1.747 9.424-3.9v-2.226c0 2.155-4.22 3.902-9.424 3.902z" class="D"/><ellipse ry="3.637" rx="8.786" cy="33.246" cx="52.845" class="C"/><g class="B"><ellipse ry="3.486" rx="8.421" cy="33.246" cx="52.845"/><path d="M52.774 37.333v1.82l.07.001.07-.001v-1.82l-.07.001c-.023 0-.046-.001-.07-.001zm-.748 1.805l.143.004v-1.818l-.143-.004zm-.797-.044l.144.01v-1.818c-.048-.001-.095-.006-.144-.01zm-.77-.067l.144.013v-1.814l-.144-.013zm-.756-.096l.143.02V37.14l-.143-.02zm-.796-.136l.143.027v-1.81l-.143-.027zm-.796-.17l.143.034v-1.806l-.143-.034zm-.77-.208l.143.042v-1.802l-.143-.04zm-.548-.174l.144.047v-1.798l-.144-.05zm-.56-.212l.142.057v-1.793l-.142-.058zm-.483-.214l.143.067v-1.792l-.143-.064zm-.456-.232c.046.027.095.05.142.076v-1.784l-.142-.077zm-.43-.26l.142.092v-1.78l-.142-.087zm-.432-.317l.144.114v-1.766l-.144-.107zm-.38-.355l.14.146v-1.745l-.14-.133zm-.367-.484a2.39 2.39 0 0 0 .144.218v-1.7l-.144-.18zm9.836 2.972l.143-.004v-1.82l-.143.004zm.795-.037c.048-.001.095-.007.142-.01v-1.816l-.142.01zm.77-.065c.05-.003.096-.008.144-.013v-1.814l-.144.013zm.758-.1l.143-.02v-1.812l-.143.02zm.796-.128l.142-.027v-1.81l-.142.027zm.796-.163l.142-.034V36.82c-.047.013-.094.023-.142.034zm.77-.2l.143-.042v-1.8l-.143.04zm.547-.17l.144-.047v-1.8l-.144.05zm.562-.202l.142-.057v-1.794l-.142.06zm.483-.2l.143-.067v-1.79l-.143.064zm.457-.224l.142-.076v-1.784l-.142.077zm.43-.244l.143-.092v-1.773l-.143.087zm.43-.295c.05-.037.096-.075.143-.114V35.25l-.143.105zm.38-.323l.144-.146v-1.732l-.144.133zm.366-2.113v1.7a2.36 2.36 0 0 0 .142-.218v-1.662c-.043.06-.1.12-.142.18z"/></g><path d="M56.822 33.854h-.046c-.22-.464-1.308-.755-3.25-.993-1.852-.232-2.638-.4-2.638-.736 0-.257.616-.552 2.255-.552 1.36 0 2.232.14 2.678.218l.527-.42h.004v-.2h-.39v.125a17.73 17.73 0 0 0-2.374-.163v-.624h-1.32v.65c-1.734.086-2.914.416-3.16.86h-.06v.2h.012c.02.55 1.355.844 3.504 1.1 1.575.192 2.404.413 2.404.766 0 .367-1.02.632-2.53.632-1.19 0-2.298-.122-3.063-.277l-.29.245h-.223v.2h.017c.746.16 2.013.274 3.237.28v.65h1.34v-.67c2.182-.11 3.35-.583 3.358-1.088h.002v-.192z" class="C"/><path d="M52.122 35.615v-.65c-1.233-.007-2.5-.123-3.254-.284l.512-.432c.765.154 1.87.278 3.063.278 1.5 0 2.53-.266 2.53-.632 0-.353-.83-.573-2.404-.765-2.167-.258-3.507-.554-3.507-1.115 0-.534 1.255-.94 3.2-1.036v-.65h1.32v.625c1.276.012 2.147.115 2.763.224l-.53.426c-.445-.078-1.316-.22-2.678-.22-1.64 0-2.255.295-2.255.553 0 .335.786.503 2.638.734 2.19.27 3.294.605 3.294 1.18 0 .508-1.17.985-3.358 1.095v.67z" class="E"/><ellipse ry="3.902" rx="9.424" cy="57.791" cx="72.781" class="B"/><path d="M72.78 61.692c-5.205 0-9.424-1.748-9.424-3.902v2.224c0 2.156 4.22 3.902 9.424 3.902s9.425-1.746 9.425-3.902V57.8c0 2.154-4.22 3.902-9.425 3.902z" class="D"/><ellipse ry="3.637" rx="8.785" cy="57.791" cx="72.78" class="C"/><path d="M81.2 57.79c0 1.924-3.77 3.484-8.42 3.484s-8.422-1.56-8.422-3.484 3.77-3.488 8.422-3.488 8.42 1.56 8.42 3.488zm-8.5 4.086v1.82h.14v-1.82h-.14zm-.748 1.804l.143.005v-1.82c-.048 0-.096-.002-.143-.004zm-.795-.042l.143.008v-1.816l-.143-.01zm-.77-.068l.143.014V61.77l-.143-.015zm-.756-.096l.143.02v-1.812l-.143-.02zm-.795-.134l.14.026v-1.81l-.14-.027zm-.797-.173l.143.035v-1.805l-.143-.035zm-.77-.205l.143.04v-1.8l-.143-.042zm-.547-.177l.142.048v-1.8l-.142-.047zm-.562-.21l.144.057v-1.794l-.144-.056zm-.482-.212l.143.066v-1.79l-.143-.064zm-.458-.232l.144.075v-1.784l-.144-.076zm-.43-.26l.143.09v-1.778l-.143-.086zm-.432-.316l.143.113V59.9l-.143-.106zm-.382-.355l.144.144V59.6l-.144-.133zm-.365-.485l.142.218v-1.7c-.05-.06-.098-.118-.142-.18zm9.836 2.972l.142-.005v-1.817l-.142.004zm.794-.038l.143-.008V61.82l-.143.01zm.77-.062l.142-.014v-1.816l-.142.015zm.755-.092l.144-.02V61.66c-.047.008-.095.015-.144.02zm.796-.126l.143-.026v-1.8l-.143.027zm.797-.164l.143-.035v-1.805l-.143.035zm.77-.2l.143-.04V61.16l-.143.042zm.548-.17l.142-.048v-1.798l-.142.047zm.56-.203l.143-.057V60.78l-.143.056zm.482-.2l.143-.066v-1.79l-.143.064zm.457-.224l.142-.075v-1.785l-.142.076zm.43-.245c.05-.03.096-.06.143-.09v-1.773c-.045.03-.095.058-.143.086zm.432-.294l.143-.113v-1.76l-.143.106zm.383-.324l.142-.144v-1.733l-.142.133zm.365-2.11v1.7a3.23 3.23 0 0 0 .143-.219v-1.66l-.143.18z" class="B"/><path d="M76.757 58.397h-.045c-.22-.462-1.307-.754-3.25-.994-1.852-.232-2.637-.4-2.637-.734 0-.257.616-.554 2.253-.554 1.362 0 2.232.142 2.68.22l.527-.42h.004v-.192h-.39v.125c-.58-.083-1.345-.152-2.373-.163v-.625h-1.32v.65c-1.735.086-2.915.414-3.16.86h-.06v.2H69c.02.55 1.356.845 3.505 1.1 1.573.193 2.403.412 2.403.767 0 .367-1.02.632-2.53.632-1.19 0-2.297-.124-3.063-.277l-.29.243h-.22v.19h.015c.747.16 2.014.274 3.237.28v.65h1.34v-.67c2.182-.11 3.35-.583 3.358-1.09h.001v-.19z" class="C"/><path d="M72.058 60.16v-.65c-1.232-.005-2.508-.122-3.252-.283l.5-.43c.766.154 1.87.277 3.063.277 1.5 0 2.53-.264 2.53-.63 0-.354-.83-.573-2.403-.767-2.167-.258-3.507-.555-3.507-1.114 0-.534 1.253-.94 3.2-1.038v-.65h1.32v.625c1.275.013 2.146.116 2.762.224l-.53.426a14.88 14.88 0 0 0-2.679-.22c-1.637 0-2.253.297-2.253.555 0 .334.785.502 2.637.734 2.19.27 3.295.606 3.295 1.18 0 .51-1.17.986-3.36 1.094v.67z" class="E"/><ellipse ry="3.73" rx="9.046" cy="57.123" cx="74.266" class="F"/><ellipse ry="3.902" rx="9.425" cy="54.338" cx="74.676" class="B"/><path d="M74.677 58.24c-5.205 0-9.426-1.746-9.426-3.902v2.226c0 2.155 4.22 3.903 9.426 3.903S84.1 58.72 84.1 56.564v-2.226c0 2.156-4.22 3.902-9.424 3.902z" class="D"/><ellipse ry="3.638" rx="8.786" cy="54.338" cx="74.676" class="C"/><g class="B"><ellipse ry="3.487" rx="8.42" cy="54.338" cx="74.676"/><path d="M74.604 58.426v1.82h.142v-1.82l-.07.002c-.023 0-.046-.002-.072-.002zm-.747 1.804l.144.004v-1.818l-.144-.005zm-.795-.042l.144.01v-1.817l-.144-.01zm-.77-.07l.144.015v-1.816l-.144-.013zm-.756-.096l.143.02V58.23l-.143-.02zm-.796-.133l.143.027v-1.81l-.143-.027zm-.796-.17l.143.034v-1.805l-.143-.035zm-.77-.207l.143.042v-1.8l-.143-.04zm-.548-.177l.142.048v-1.8l-.142-.046zm-.56-.2l.142.056v-1.792l-.142-.058zm-.483-.212l.143.067v-1.79l-.143-.064zm-.456-.232c.045.026.095.05.142.076V56.97l-.142-.076zm-.43-.262l.142.092v-1.78l-.142-.085zm-.432-.316l.143.113V56.45l-.143-.106zm-.382-.355l.143.145v-1.745l-.143-.133zm-.365-.485a2.32 2.32 0 0 0 .144.219v-1.7a3.01 3.01 0 0 1-.144-.18zm9.836 2.972l.143-.004v-1.82l-.143.005zm.795-.036c.048-.002.095-.007.142-.01v-1.815l-.142.01zm.77-.064l.144-.015v-1.814l-.144.013zm.758-.1l.142-.02V58.21l-.142.02zm.795-.128l.143-.027v-1.81l-.143.027zm.795-.164l.144-.034v-1.805l-.144.035zm.77-.2c.048-.012.095-.027.143-.042v-1.8l-.143.04zm.547-.17l.144-.048v-1.798l-.144.046zm.56-.203l.144-.056V57.33l-.144.058zm.484-.2l.143-.067v-1.79l-.143.064zm.455-.224l.143-.076v-1.785l-.143.076zm.432-.245l.143-.092v-1.772l-.143.085zm.43-.295l.143-.113v-1.758l-.143.106zm.382-.323a3.52 3.52 0 0 0 .144-.145v-1.732l-.144.133zm.365-2.112v1.7a2.29 2.29 0 0 0 .142-.219V55.6c-.043.062-.092.12-.142.18z"/></g><path d="M78.654 54.946h-.046c-.22-.463-1.308-.755-3.25-.994-1.85-.23-2.637-.4-2.637-.734 0-.258.616-.554 2.255-.554a14.96 14.96 0 0 1 2.678.219l.527-.42h.004v-.19h-.39v.125c-.58-.084-1.346-.153-2.373-.163v-.625h-1.32v.652c-1.734.084-2.915.414-3.16.86h-.06v.2h.013c.02.552 1.355.845 3.504 1.1 1.575.192 2.404.412 2.404.767 0 .367-1.02.63-2.53.63-1.192 0-2.298-.123-3.063-.276l-.29.245H70.7v.19h.016c.747.16 2.014.273 3.238.28v.65h1.34v-.67c2.18-.108 3.35-.583 3.358-1.088h.002z" class="C"/><path d="M73.954 56.71v-.65c-1.233-.007-2.5-.124-3.254-.284l.512-.432c.765.155 1.87.277 3.063.277 1.5 0 2.53-.265 2.53-.632 0-.353-.83-.572-2.404-.765-2.167-.26-3.507-.555-3.507-1.116 0-.534 1.253-.94 3.2-1.037v-.65h1.32v.625c1.275.013 2.146.115 2.762.225l-.53.425c-.447-.078-1.318-.22-2.678-.22-1.64 0-2.255.297-2.255.554 0 .336.786.503 2.637.734 2.2.27 3.295.606 3.295 1.18 0 .51-1.17.985-3.358 1.096v.67h-1.34z" class="E"/><ellipse ry="3.458" rx="9.077" cy="53.292" cx="75.759" class="F"/><ellipse ry="3.903" rx="9.424" cy="50.301" cx="76.044" class="B"/><path d="M76.044 54.204c-5.205 0-9.424-1.748-9.424-3.903v2.226c0 2.156 4.22 3.903 9.424 3.903s9.425-1.747 9.425-3.903V50.3c0 2.156-4.22 3.903-9.425 3.903z" class="D"/><ellipse ry="3.638" rx="8.786" cy="50.301" cx="76.045" class="C"/><g class="B"><ellipse ry="3.486" rx="8.421" cy="50.301" cx="76.045"/><path d="M75.974 54.39v1.82l.07.001.072-.001v-1.82l-.072.001c-.023 0-.047-.001-.07-.001zm-.748 1.803l.143.005v-1.82c-.048 0-.094-.002-.143-.003zm-.796-.042l.144.01v-1.817l-.144-.01zm-.77-.067l.143.014V54.28l-.143-.014zm-.758-.098l.143.02v-1.813l-.143-.02zm-.795-.133l.143.027v-1.81l-.143-.027zm-.796-.17l.144.033V53.9l-.144-.034zm-.77-.208l.144.042v-1.8l-.144-.042zm-.547-.176l.143.048v-1.8l-.143-.048zm-.56-.21l.142.056V53.35l-.142-.056zm-.483-.214l.142.067V53.15l-.142-.063zm-.457-.232l.142.076v-1.784l-.142-.076zm-.43-.26l.142.092v-1.78l-.142-.085zm-.432-.317l.143.113v-1.766l-.143-.107zm-.38-.355l.143.145V52.11l-.143-.133zm-.366-.485a2.31 2.31 0 0 0 .144.219v-1.7a3.48 3.48 0 0 1-.144-.18zm9.836 2.973l.142-.005v-1.816l-.142.003zm.796-.037l.142-.01v-1.816l-.142.01zm.768-.064l.144-.014v-1.814l-.144.014zm.758-.09l.142-.02v-1.812l-.142.02zm.796-.128l.142-.027v-1.81l-.142.027zm.795-.163l.143-.033v-1.806l-.143.034zm.77-.2l.142-.042v-1.8l-.142.042zm.547-.17l.144-.048v-1.8c-.047.018-.095.033-.144.048zm.562-.202l.143-.056v-1.794l-.143.056zm.483-.203l.142-.067v-1.788l-.142.063zm.456-.223l.143-.076v-1.785l-.143.076zm.43-.244l.143-.092V52.6l-.143.085zm.43-.295l.144-.113v-1.758l-.144.106zm.383-.325c.05-.047.097-.095.143-.145v-1.732l-.143.133zm.366-2.1v1.7a2.51 2.51 0 0 0 .143-.219v-1.66l-.143.18z"/></g><path d="M80.022 50.91h-.047c-.22-.463-1.307-.754-3.25-.994-1.85-.232-2.637-.4-2.637-.734 0-.26.616-.554 2.254-.554 1.36 0 2.232.14 2.68.22l.526-.422h.006v-.2h-.39v.124c-.582-.084-1.347-.152-2.375-.164v-.625h-1.32v.65c-1.735.086-2.915.415-3.16.86h-.06v.2h.012c.02.552 1.356.846 3.505 1.102 1.575.192 2.403.412 2.403.767 0 .366-1.02.63-2.53.63-1.19 0-2.297-.123-3.063-.276l-.29.244h-.222v.19h.017c.746.16 2.013.274 3.237.28v.65h1.34v-.67c2.182-.1 3.35-.583 3.36-1.09h.002v-.19z" class="C"/><path d="M75.322 52.67v-.65c-1.233-.005-2.5-.123-3.254-.285l.51-.43c.766.155 1.87.278 3.063.278 1.51 0 2.53-.264 2.53-.632 0-.354-.828-.572-2.403-.766-2.167-.258-3.507-.555-3.507-1.114 0-.534 1.254-.94 3.2-1.037v-.65h1.32v.626c1.275.012 2.146.115 2.764.225l-.532.425a14.89 14.89 0 0 0-2.679-.22c-1.638 0-2.254.296-2.254.555 0 .334.786.502 2.637.734 2.19.27 3.295.606 3.295 1.18 0 .507-1.17.984-3.36 1.094v.67z" class="E"/><ellipse ry="3.729" rx="9.238" cy="49.05" cx="75.442" class="F"/><ellipse ry="3.903" rx="9.424" cy="46.264" cx="74.926" class="B"/><path d="M74.927 50.167c-5.205 0-9.425-1.747-9.425-3.903v2.227c0 2.155 4.22 3.902 9.425 3.902s9.424-1.748 9.424-3.902v-2.227c0 2.156-4.22 3.903-9.424 3.903z" class="D"/><ellipse ry="3.637" rx="8.786" cy="46.264" cx="74.926" class="C"/><g class="B"><ellipse ry="3.486" rx="8.421" cy="46.264" cx="74.926"/><path d="M74.855 50.352v1.818H74.926 74.996v-1.818l-.07.001c-.024 0-.047-.001-.07-.001zm-.748 1.804l.142.004v-1.818l-.142-.004zm-.795-.043l.143.01v-1.816l-.143-.01zm-.77-.068l.143.015v-1.815l-.143-.014zm-.757-.096l.142.02v-1.812l-.142-.02zm-.796-.135l.143.027v-1.81l-.143-.027zm-.796-.17l.144.034v-1.805l-.144-.033zm-.768-.208l.143.043v-1.803l-.143-.04zm-.55-.174l.143.048V49.51l-.143-.05zm-.56-.212l.143.056v-1.793l-.143-.058zm-.482-.213l.143.067v-1.792l-.143-.063zm-.457-.233c.046.027.096.05.143.076v-1.784l-.143-.076zm-.43-.26l.142.092v-1.78l-.142-.085zm-.433-.317l.144.113v-1.764l-.144-.108zm-.38-.356l.143.146v-1.745l-.143-.133zm-.365-.484a2.5 2.5 0 0 0 .143.218v-1.7c-.05-.057-.098-.118-.143-.18zm9.836 2.972l.143-.004v-1.82l-.143.004zm.794-.036l.143-.01v-1.816l-.143.01zm.77-.064l.143-.015V50.23l-.143.014zm.758-.09l.143-.02v-1.813l-.143.02zm.795-.128l.143-.027v-1.81l-.143.027zm.796-.164l.144-.034v-1.805l-.144.033zm.77-.198l.142-.043v-1.8l-.142.04zm.547-.17l.144-.048v-1.8l-.144.05zm.56-.204l.144-.056v-1.795l-.144.058zm.484-.2l.142-.067V49.05l-.142.063zm.455-.225l.143-.076V48.82l-.143.076zm.43-.243c.05-.03.095-.06.142-.092v-1.772c-.045.03-.094.057-.142.085zm.432-.296l.143-.113V48.27l-.143.107zm.38-.324a2.28 2.28 0 0 0 .143-.146V47.94l-.143.133zm.366-2.113v1.7c.054-.072.1-.145.142-.218v-1.662c-.043.06-.092.122-.142.18z"/></g><path d="M78.903 46.872h-.046c-.22-.463-1.308-.755-3.25-.993-1.85-.232-2.638-.4-2.638-.735 0-.258.617-.553 2.254-.553 1.36 0 2.232.14 2.68.218l.527-.422h.004v-.19h-.39v.124c-.58-.084-1.346-.153-2.375-.163v-.624h-1.318v.65c-1.734.086-2.914.416-3.16.86h-.06v.2h.012c.022.55 1.356.845 3.505 1.1 1.575.192 2.403.413 2.403.766 0 .367-1.02.632-2.53.632-1.19 0-2.298-.122-3.062-.277l-.288.244h-.223v.2h.016c.746.158 2.014.273 3.238.28v.65h1.34v-.67c2.18-.11 3.35-.583 3.357-1.088h.002z" class="C"/><path d="M74.204 48.634v-.65c-1.234-.007-2.5-.123-3.254-.284l.512-.432c.764.155 1.87.278 3.062.278 1.51 0 2.53-.264 2.53-.632 0-.353-.828-.572-2.403-.765-2.168-.257-3.508-.554-3.508-1.114 0-.534 1.254-.94 3.21-1.036v-.65h1.318v.625c1.276.012 2.147.116 2.764.225l-.53.425c-.447-.077-1.318-.22-2.68-.22-1.637 0-2.254.295-2.254.554 0 .334.787.502 2.638.734 2.19.27 3.294.605 3.294 1.178 0 .51-1.168.985-3.357 1.096v.67h-1.34z" class="E"/><ellipse ry="3.73" rx="9.238" cy="45.422" cx="74.458" class="F"/><ellipse ry="3.903" rx="9.424" cy="42.636" cx="73.942" class="B"/><path d="M73.942 46.54c-5.205 0-9.425-1.747-9.425-3.903v2.227c0 2.156 4.22 3.903 9.425 3.903s9.424-1.748 9.424-3.903v-2.227c0 2.156-4.22 3.903-9.424 3.903z" class="D"/><ellipse ry="3.638" rx="8.786" cy="42.636" cx="73.942" class="C"/><g class="B"><ellipse ry="3.487" rx="8.42" cy="42.636" cx="73.942"/><path d="M73.87 46.725v1.818l.07.001.07-.001v-1.818l-.07.001c-.023 0-.046-.001-.07-.001zm-.748 1.803l.144.005v-1.82c-.048 0-.096-.003-.144-.004zm-.796-.043l.144.01V46.68l-.144-.01zm-.768-.067l.144.015v-1.815l-.144-.014zm-.757-.097l.143.02V46.53l-.143-.02zm-.795-.134l.142.027v-1.81l-.142-.027zm-.797-.17l.143.034v-1.806l-.143-.033zm-.77-.208l.143.043V46.05l-.143-.042zm-.547-.175l.142.047v-1.8l-.142-.046zm-.56-.21l.142.056v-1.794l-.142-.056zm-.483-.213l.143.066v-1.793l-.143-.062zm-.456-.232c.045.026.095.05.142.075V45.27l-.142-.075zm-.43-.26l.142.092v-1.78l-.142-.084zm-.432-.318l.142.115v-1.766l-.142-.107zm-.383-.355l.143.146v-1.743l-.143-.133zm-.365-.484a2.74 2.74 0 0 0 .144.219v-1.7c-.052-.06-.1-.12-.144-.18zm9.836 2.972l.143-.005V46.7l-.143.004zm.795-.037c.05-.002.096-.007.143-.01V46.67l-.143.01zm.77-.063l.145-.015v-1.814l-.145.014zm.757-.09l.143-.02V46.51l-.143.02zm.795-.128l.144-.027v-1.81l-.144.027zm.796-.163l.144-.034v-1.805l-.144.033zm.77-.2l.143-.043v-1.8l-.143.042zm.547-.17l.144-.047v-1.798l-.144.046zm.56-.202l.144-.056V45.63l-.144.056zm.485-.202l.143-.066v-1.788l-.143.063zm.455-.224l.143-.075v-1.784l-.143.075zm.43-.243l.143-.092v-1.773l-.143.084zm.432-.296l.143-.115v-1.758l-.143.106zm.382-.324a2.56 2.56 0 0 0 .142-.146v-1.73l-.142.133zm.365-2.11v1.7a2.02 2.02 0 0 0 .142-.219v-1.66c-.043.06-.092.12-.142.18z"/></g><path d="M77.92 43.244h-.045c-.22-.462-1.307-.754-3.25-.993-1.85-.232-2.636-.4-2.636-.734 0-.26.615-.555 2.254-.555a14.83 14.83 0 0 1 2.678.22l.527-.422h.004v-.2h-.39v.125c-.58-.085-1.346-.153-2.373-.164v-.625h-1.32v.65c-1.734.085-2.914.415-3.16.86h-.06v.19h.013c.02.552 1.355.846 3.504 1.102 1.575.192 2.404.412 2.404.767 0 .366-1.02.63-2.53.63-1.192 0-2.297-.123-3.063-.276l-.29.244h-.222v.2h.015c.746.16 2.014.273 3.238.28v.65h1.34v-.67c2.18-.11 3.35-.583 3.357-1.09h.002v-.19z" class="C"/><path d="M73.22 45.007v-.65c-1.232-.006-2.51-.123-3.253-.284l.51-.432c.766.155 1.87.278 3.063.278 1.5 0 2.53-.265 2.53-.633 0-.354-.83-.572-2.404-.765-2.167-.258-3.507-.555-3.507-1.114 0-.535 1.253-.94 3.2-1.037v-.65h1.32v.626c1.275.012 2.146.115 2.762.225l-.53.425c-.447-.078-1.318-.22-2.678-.22-1.64 0-2.254.296-2.254.554 0 .335.785.502 2.636.734 2.2.27 3.294.606 3.294 1.18 0 .508-1.168.984-3.357 1.095v.67z" class="E"/><path d="M35.755 50.603l67.892 12.93-13.414 19.212-72.996-16.07z" class="G"/><path d="M89.6 81.12l11.578-16.582-65.002-12.38-15.808 13.72z" class="H"/><path d="M88.964 79.495l9.742-13.95-62.112-11.83-13.097 11.37z" class="G"/><g class="H"><path d="M66.226 62.204c-.057-.22-.576-.683-.792-.87-.433-.374-1.612-.57-2.484-.65-1.643-.15-4.102.32-4.82 1.115-.247.274-.208.62-.495.888-.214.193-.54.196-.854.348-.235.113-.58.438-.697.592-.315.417-.165.622.302.94.106.07.31.137.335.2.018.062-.19.08-.16.156.072.175.103.163.397.31.69.344.118.385-.476.647-.78.346-1.06.637-2.182.604-.776-.022-1.846-.253-2.564-.075-.686.173-.586.62-.426.896.488.84 1.027 1.738 2.274 2.372.73.373 1.204.502 2.233.6.598.055 1.775.24 2.19-.015.38-.232.41-.97.23-1.2-.25-.317-.41-.36-.166-.734.23-.352.232-.5.738-.264.258.123.35.35.633.45.402.144.428.038.667.25.537.477.05.865.07 1.374.37-.123.77-.266 1.22-.353.57-.1 1.405-.085 1.9-.275-.13-.327.607-.746.174-1.04-.313-.212-.712-.06-1.098-.122-.49-.078-.485-.3-.868-.46-.28-.115-.78-.205-1.16-.227l-.388-.03c-.093-.004-.398.038-.564.035-.95-.02-1.512-.294-2.03-.595-.33-.188-1.426-.686-.476-.91.675-.16 1.024.25 1.33.42.5.27.996.554 1.768.608.89.065 1.56.09 2.294-.238.688-.307 1.263-.726 1.468-1.157-.385-.013-1.512.446-1.974.6l.104-.048c-.536-.056-1.154.153-1.563-.097-.096-.06-.18-.188-.14-.263.063-.11.338-.13.283-.256-.434-.07-1.066.05-1.532.04-.297-.006-.542-.03-.776-.11-.148-.05-.302-.15-.472-.204-.126-.128-.27-.244-.485-.3.318-.23.55-.383.17-.54-.284-.118-.75-.066-.912-.3-.146-.214.117-.642.354-.85.256-.228.166-.186.72-.262.3-.042.508.056.718-.135.34-.3-.41-.627.687-.67.4-.016.715.137 1.043-.035.136-.07.002-.333.164-.428.363-.214 1.63-.193 2.122-.14.563.063 1.052.144 1.4.36.28.174.398.425.56.637.15.2.224.306.654.367.375.052 1.027.013 1.18-.202l-.104-.04c.004-.21.318-.512.273-.722zm-5.41 1.76c-.05.18.248.305.63.277.5-.035.383-.255.48-.425.132.04.258.088.454.087.437-.19-.172-.396-.487-.472-.503-.124-1.514-.006-2.01.076l.165.017.918.1c.6.1-.1.124-.15.34zm2.813-.158l-.105.007c-.148.133.26.135.308.24.02.05-.026.143-.01.2.012.05.074.11.076.174.537.092.346-.08.468-.238.177-.225.46-.036.774.025.383-.236-1.252-.583-1.5-.4zm-5.715.602c.375.06.736-.567.836-.704s.157-.288-.063-.372c-.17-.07-.488-.072-.61.058l.066.006c.594.03-.027.844-.228 1.012zm3.83.908c.145.02.225.08.438.094.13.006.337.02.472.01.377-.035.32-.17.322-.32.002-.066 0-.137-.035-.187-.047-.072-.273-.133-.08-.225l-.096-.008c-.422.174.178.523-.288.642-.296.074-1.286-.06-1.364-.19-.162.196.414.155.63.186zm1.46-5.672c-5.525-.516-11.512 1.7-13.34 4.962s1.183 6.313 6.71 6.828 11.514-1.714 13.34-4.964-1.18-6.316-6.71-6.827zm5.6 6.724c-1.66 2.952-7.018 4.984-11.938 4.525s-7.576-3.23-5.914-6.186 7.017-4.985 11.94-4.528 7.575 3.233 5.913 6.188zM42.16 60.55c-2.043-.404-4.252.213-4.926 1.38s.438 2.44 2.48 2.843 4.25-.214 4.925-1.38-.44-2.44-2.478-2.843zm1.744 2.7c-.54.934-2.312 1.43-3.947 1.105s-2.528-1.347-1.986-2.28 2.3-1.43 3.947-1.105 2.527 1.345 1.986 2.28z"/><path d="M41.958 61.304l-.372-.073-.2.345c-.58-.06-1.054.088-1.218.37-.172.297.112.53.645.785.383.19.55.352.44.54-.113.194-.48.277-.905.192-.333-.065-.608-.19-.774-.316l-.277.2c.162.126.484.26.828.33l-.2.344.377.074.206-.354c.648.063 1.122-.123 1.277-.394.176-.303-.03-.54-.563-.805-.448-.226-.62-.358-.517-.536.08-.138.343-.258.804-.168.383.075.582.2.686.265l.277-.194c-.14-.092-.352-.195-.706-.273zm39.783 7.08c-2.042-.404-4.252.215-4.926 1.378s.438 2.44 2.48 2.844 4.248-.214 4.922-1.378-.436-2.44-2.477-2.844zm1.745 2.698c-.54.934-2.313 1.43-3.948 1.105s-2.527-1.347-1.986-2.28 2.31-1.43 3.947-1.105 2.527 1.345 1.987 2.28z"/><path d="M81.538 69.137l-.37-.073-.198.342c-.58-.056-1.058.088-1.22.37-.172.297.113.527.644.786.384.188.548.35.44.538-.113.194-.48.277-.905.192-.333-.064-.608-.2-.774-.315l-.277.2c.162.127.484.26.828.33l-.2.345.377.074.205-.354c.65.063 1.123-.124 1.278-.393.176-.302-.03-.542-.563-.806-.447-.226-.62-.358-.516-.536.078-.137.342-.26.803-.168.383.075.584.2.686.266l.278-.195c-.14-.092-.353-.196-.707-.274zm-53.834-5.264l.01.003-1.267.896.457.12 1.45-1.027-.403-.106-.934-.08-.057.132zm2.244.387c-.71-.185-1.483-.128-1.97.215-.47.342-.272.652.412.83.773.203 1.486.126 1.98-.224.463-.326.316-.628-.423-.822zm-.058.706c-.37.26-.836.367-1.32.24-.432-.112-.497-.337-.12-.604.395-.28.905-.35 1.32-.24.5.128.475.352.12.605zm2.82.017c-.71-.186-1.483-.13-1.97.216-.47.342-.27.65.412.83.775.202 1.487.126 1.98-.223.464-.327.315-.63-.422-.823zm-.06.706c-.37.262-.836.367-1.32.24-.43-.112-.496-.338-.118-.604a1.62 1.62 0 0 1 1.319-.24c.5.128.477.353.12.605zm50.63 9.86l.01.003-1.267.897.457.12 1.45-1.025-.405-.106-.933-.082-.058.13zm2.246.388c-.71-.186-1.484-.13-1.972.216-.468.342-.27.65.412.83.775.202 1.488.126 1.98-.224.464-.326.316-.63-.42-.822zm-.06.705a1.56 1.56 0 0 1-1.322.239c-.43-.11-.495-.337-.118-.604.395-.28.906-.35 1.32-.24.5.128.475.353.12.605zm2.82.017c-.71-.186-1.484-.127-1.97.217-.47.342-.27.65.412.83.775.203 1.488.126 1.98-.222.464-.327.315-.63-.42-.824zm-.06.706c-.37.262-.836.367-1.32.24-.43-.113-.497-.34-.12-.605.396-.278.906-.35 1.32-.24.5.128.476.35.118.604z"/></g><path d="M89.907 82.746l-72.67-16.07v4.27l72.67 16.67z" fill="#e0d8b3"/><path d="M89.907 82.746l13.74-19.212v5.53l-13.74 18.554z" fill="#bdb591"/><path d="M110.763 52.325c-.372 8.715-1.537 17.113-3.44 25.078-26.26 2.79-51.214-1.432-73.626-10.437 6.303-2.43 12.11-5.944 17.265-10.396 19.19 3.033 39.467 2.1 59.8-4.245z" class="G"/><path d="M109.256 54.5c-19.726 5.65-39.334 6.338-57.916 3.314a59.22 59.22 0 0 1-14.634 9.203c21.27 7.937 44.74 11.552 69.354 8.952 1.625-6.858 2.703-14.04 3.196-21.47z" class="H"/><path d="M107.7 56.643c-19.087 4.996-38 5.442-55.964 2.44a59.82 59.82 0 0 1-12.035 7.898c20.117 6.937 42.118 9.994 65.12 7.575 1.355-5.755 2.323-11.742 2.88-17.913z" class="G"/><path d="M78.606 63.585c-.096-.194-.653-.53-.882-.665-.457-.266-1.528-.228-2.3-.15-1.464.16-3.55.964-4.068 1.778-.18.283-.1.593-.306.872-.163.204-.456.246-.716.422-.195.132-.46.465-.545.617-.227.4-.063.58.4.814.108.053.304.09.338.154.025.054-.163.096-.125.16.094.15.12.135.41.234.685.233.168.337-.34.64-.67.394-.9.684-1.936.754-.726.045-1.747-.08-2.395.125-.618.196-.477.584-.297.817.553.715 1.165 1.482 2.432 1.968.74.284 1.21.368 2.207.372.576.002 1.727.06 2.082-.213.322-.25.232-.926.03-1.11-.286-.262-.44-.283-.27-.65.16-.346.137-.48.647-.32.263.082.384.278.667.338.4.085.408-.02.668.15.588.373.197.8.303 1.256.33-.158.682-.337 1.092-.48.518-.173 1.31-.267 1.735-.517-.185-.286.424-.786-.038-.995-.334-.15-.674.05-1.047.05-.472-.003-.506-.21-.894-.305-.28-.068-.76-.082-1.118-.055l-.365.02c-.086.01-.363.087-.52.103-.9.097-1.456-.094-1.984-.31-.337-.136-1.42-.472-.577-.774.6-.218.983.114 1.293.233.506.188 1.014.4 1.738.34.833-.054 1.46-.126 2.078-.537.577-.385 1.022-.867 1.124-1.306-.352.054-1.296.655-1.692.864l.086-.062c-.502.03-1.034.31-1.455.132-.1-.042-.197-.148-.172-.224.04-.1.287-.166.216-.273-.41-.006-.97.188-1.4.237-.272.032-.502.04-.73-.004-.146-.03-.302-.102-.467-.13a1.06 1.06 0 0 0-.49-.226c.256-.245.443-.412.072-.512-.277-.074-.696.027-.878-.168-.165-.18.013-.594.195-.81.198-.238.123-.188.612-.326.264-.074.467-.013.625-.213.257-.328-.465-.516.51-.707.354-.07.663.025.927-.18.11-.084-.056-.308.072-.42.288-.25 1.414-.43 1.86-.463.513-.036.96-.045 1.312.096.282.112.438.326.626.497.173.16.262.247.657.226.346-.02.918-.178 1.007-.41l-.1-.018c-.038-.197.173-.543.09-.732zm-4.488 2.568c-.012.173.278.243.618.162.454-.112.3-.294.354-.466.126.014.25.04.426.008.356-.248-.23-.34-.527-.36-.473-.034-1.36.23-1.793.37l.15-.01.846-.04c.55.003-.058.13-.074.336zm2.506-.593l-.094.025c-.108.148.26.08.323.173.028.045.004.137.03.188.02.045.09.1.104.15.502-.007.295-.135.373-.303.112-.24.406-.113.7-.113.296-.288-1.24-.32-1.436-.12zm-5.062 1.4c.353.01.578-.61.646-.748s.095-.284-.116-.332c-.164-.04-.452-.003-.543.132.02-.002.04-.002.06-.002.542-.05.112.775-.046.95zm3.642.314c.135-.003.22.04.416.02.12-.014.312-.032.433-.064.335-.092.258-.206.23-.35-.012-.06-.025-.127-.068-.168-.055-.06-.272-.08-.114-.196l-.09.01c-.35.23.262.458-.14.64-.257.115-1.183.14-1.278.028-.114.205.405.085.61.08zm.232-5.51c-4.86.58-9.827 3.194-11.224 6.104-1.39 2.9 1.732 5.56 7.158 5.613 5.426.06 10.683-3.058 11.506-6.588.83-3.536-2.585-5.695-7.44-5.13zM81.853 67c-.78 3.18-5.463 5.972-10.272 5.946-4.812-.02-7.583-2.4-6.347-5.077 1.242-2.677 5.688-5.078 10.043-5.57 4.345-.48 7.36 1.517 6.576 4.7zm-24.97-2.347c-1.857-.3-3.824.19-4.42 1.114s.453 2.016 2.37 2.404 3.94-.145 4.476-1.16-.572-2.06-2.427-2.36zm1.744 2.25c-.434.807-2.053 1.23-3.584.926s-2.376-1.176-1.904-1.924 2.053-1.143 3.548-.897 2.374 1.086 1.94 1.895zm-1.89-1.615l-.34-.058-.164.3c-.53-.044-.955.076-1.093.31-.146.245.124.44.622.658.36.157.52.294.428.45s-.43.23-.824.154c-.3-.06-.568-.168-.725-.273l-.248.16c.152.11.456.223.775.29l-.17.28.35.07.176-.292c.602.06 1.03-.096 1.16-.322.146-.255-.057-.454-.557-.675-.42-.188-.582-.3-.495-.448.066-.113.302-.215.724-.142.353.062.54.163.64.218l.242-.168c-.13-.076-.33-.158-.656-.222l.156-.28zm37.366.442c-1.962.217-3.762 1.415-4.048 2.718s1.114 2.28 3.157 2.138 3.896-1.415 4.1-2.788-1.25-2.28-3.21-2.068zm2.488 2.15c-.17 1.095-1.654 2.1-3.283 2.23s-2.756-.66-2.533-1.71 1.668-2.017 3.248-2.183 2.74.566 2.568 1.662zm-2.424-1.343l-.36.037-.068.396c-.545.112-.932.39-.993.71-.063.34.27.49.84.594.412.078.616.19.576.405-.04.226-.354.41-.772.444-.33.026-.622-.02-.814-.1l-.193.27c.187.083.527.124.868.102l-.077.393.374-.03.078-.404c.622-.116 1-.438 1.055-.75.062-.35-.207-.525-.78-.634-.482-.095-.68-.178-.643-.382.027-.157.23-.352.676-.396a1.68 1.68 0 0 1 .711.062l.19-.275c-.158-.05-.385-.088-.73-.062l.063-.383zM43.9 66.58l-.862-.17-.06.092.688.136c.004.001.008.001.01.003l-1.214.527.423.15 1.386-.612-.372-.126zm1.844.596c-.656-.214-1.375-.253-1.84-.046-.45.208-.275.466.358.686.72.246 1.392.267 1.858.043.44-.212.305-.463-.376-.683zm-.07.542c-.352.165-.79.195-1.24.042-.4-.137-.453-.317-.093-.48.377-.17.853-.17 1.236-.045.453.15.437.322.098.482zm2.637.272c-.662-.204-1.385-.226-1.846-.005-.443.22-.267.48.375.7.725.235 1.4.24 1.862.001.435-.222.294-.474-.39-.686zm-.06.554c-.348.177-.787.215-1.24.07-.403-.13-.462-.312-.104-.485.373-.182.85-.193 1.237-.072.458.14.444.318.108.488zm49.875 3.66l-.913.192-.01.146.73-.154h.012l-.91 1.252.48-.01 1.033-1.44-.42.014zm2.07-.108c-.74.036-1.45.326-1.8.81-.33.477-.037.728.68.704.814-.025 1.474-.322 1.817-.825.323-.473.07-.73-.7-.7zm.198.72c-.26.375-.67.62-1.18.64-.452.018-.59-.187-.323-.564a1.55 1.55 0 0 1 1.172-.641c.51-.023.578.202.33.566zm2.69-.886c-.744.05-1.455.357-1.794.854-.323.49-.023.735.698.7.818-.042 1.476-.354 1.81-.87.314-.484.056-.738-.715-.685zm.21.727a1.46 1.46 0 0 1-1.172.669c-.455.024-.6-.18-.337-.565.273-.406.73-.643 1.166-.67.514-.034.586.195.343.567z" class="H"/><path d="M75.38 58.15L59.887 55.2 40.884 71.882l17.03 3.773z" fill="#e5e0c3"/><path d="M57.913 75.655l-17.03-3.773v4.502l17.03 3.894z" fill="#bdb591"/><ellipse ry="3.901" rx="9.425" cy="82.65" cx="43.822" class="B"/><path d="M43.82 86.552c-5.204 0-9.424-1.746-9.424-3.9v2.226c0 2.155 4.22 3.902 9.424 3.902s9.426-1.747 9.426-3.902V82.65c0 2.156-4.22 3.902-9.426 3.902z" class="D"/><ellipse ry="3.638" rx="8.785" cy="82.65" cx="43.822" class="C"/><g class="B"><ellipse ry="3.485" rx="8.421" cy="82.65" cx="43.822"/><path d="M43.75 86.74v1.817l.07.002.072-.002V86.74h-.142zm-.748 1.803l.143.005V86.73l-.143-.004zm-.795-.042H42.35v-1.816l-.143-.01zm-.77-.067l.142.014v-1.815l-.142-.014zm-.756-.098l.144.02v-1.813l-.144-.02zm-.796-.133l.143.025v-1.81l-.143-.027zm-.795-.173c.047.013.094.023.143.034v-1.805l-.143-.034zm-.77-.205l.144.042v-1.802l-.144-.042zm-.547-.177l.142.047v-1.797l-.142-.047zm-.56-.21l.143.058V85.7l-.143-.057zm-.483-.212l.144.067V85.5l-.144-.062zm-.457-.232c.046.026.096.05.143.074v-1.784l-.143-.074zm-.43-.26l.144.09v-1.778l-.144-.087zm-.432-.316l.143.113v-1.766l-.143-.107zm-.38-.355l.143.145v-1.743l-.143-.134zm-.365-.485a2.49 2.49 0 0 0 .143.217v-1.7a3.16 3.16 0 0 1-.143-.178zm9.836 2.972l.142-.005v-1.817l-.142.004zm.795-.037H45.437v-1.816l-.143.01zm.77-.064l.143-.014v-1.815l-.143.014zm.756-.09l.143-.02v-1.812l-.143.02zm.796-.127l.142-.025v-1.81l-.142.027zm.796-.165l.143-.034v-1.805l-.143.034zm.77-.197l.143-.042v-1.802l-.143.042zm.548-.172l.143-.047V85.85a2.22 2.22 0 0 0-.143.047zm.56-.2l.143-.058v-1.793l-.143.057zm.482-.202l.144-.067v-1.788l-.144.063zm.457-.225l.143-.074v-1.785l-.143.074zm.43-.243l.144-.09v-1.773c-.047.03-.096.057-.144.087zm.433-.294l.14-.113v-1.76c-.045.037-.092.072-.14.107zm.38-.324c.05-.048.098-.097.143-.145v-1.732l-.143.134zm.365-2.11v1.7a2.62 2.62 0 0 0 .143-.219v-1.66l-.143.18z"/></g><path d="M47.8 83.26h-.045c-.22-.463-1.308-.754-3.25-.994-1.852-.23-2.636-.4-2.636-.733 0-.26.616-.556 2.253-.556 1.36 0 2.232.143 2.68.22l.525-.422h.005v-.2h-.39v.125a17.9 17.9 0 0 0-2.374-.163v-.624H43.25v.65c-1.735.086-2.916.415-3.16.86h-.06v.2h.013c.02.55 1.356.845 3.505 1.102 1.574.192 2.402.412 2.402.766 0 .368-1.02.63-2.53.63-1.19 0-2.297-.122-3.062-.276l-.3.244h-.22v.19h.016c.746.16 2.014.274 3.236.28v.65h1.34v-.67c2.182-.11 3.35-.583 3.358-1.1h.002v-.19z" class="C"/><path d="M43.1 85.02v-.65c-1.23-.007-2.508-.122-3.252-.284l.51-.43c.765.154 1.87.276 3.062.276 1.5 0 2.53-.264 2.53-.63 0-.354-.828-.574-2.402-.768-2.168-.257-3.508-.553-3.508-1.113 0-.534 1.254-.94 3.21-1.038v-.648h1.318v.623c1.276.013 2.147.117 2.763.226L46.8 81c-.447-.077-1.318-.22-2.68-.22-1.637 0-2.253.296-2.253.554 0 .335.784.502 2.636.734 2.19.27 3.295.604 3.295 1.18 0 .51-1.168.985-3.36 1.094v.67H43.1z" class="E"/><ellipse ry="3.901" rx="9.425" cy="84.529" cx="64.343" class="B"/><path d="M64.343 88.43c-5.205 0-9.425-1.745-9.425-3.9v2.226c0 2.155 4.22 3.902 9.425 3.902s9.425-1.747 9.425-3.902V84.53c0 2.156-4.22 3.9-9.425 3.9z" class="D"/><ellipse ry="3.638" rx="8.785" cy="84.529" cx="64.343" class="C"/><g class="B"><ellipse ry="3.485" rx="8.42" cy="84.529" cx="64.343"/><path d="M64.27 88.618v1.817l.07.002.07-.002v-1.817h-.142zm-.747 1.803l.143.005v-1.818l-.143-.004zm-.795-.04l.14.01v-1.816l-.14-.01zm-.77-.068l.143.014V88.5l-.143-.015zm-.757-.098l.143.02v-1.813l-.143-.02zm-.795-.133l.143.025v-1.81l-.143-.027zm-.795-.173c.046.013.094.023.142.034v-1.805l-.142-.034zm-.77-.205l.143.042v-1.802l-.143-.042zm-.547-.177l.142.047v-1.798l-.142-.046zm-.56-.212l.142.058v-1.794l-.142-.058zm-.484-.21l.144.068v-1.793l-.144-.063zm-.455-.232c.045.026.094.05.142.074V87.16l-.142-.074zm-.432-.26l.143.09v-1.778l-.143-.086zm-.43-.316l.143.113V86.64l-.143-.107zm-.382-.356l.144.145V86.34l-.144-.134zm-.364-.484a2.6 2.6 0 0 0 .141.217v-1.7c-.05-.06-.098-.118-.14-.178zm9.835 2.972l.142-.005v-1.817l-.142.004zm.793-.036l.143-.01v-1.817l-.143.01zm.772-.064l.142-.014v-1.816l-.142.015zm.756-.09l.143-.02V88.4l-.143.02zm.795-.128l.143-.025v-1.81l-.143.027zm.797-.164l.143-.034v-1.805l-.143.034zm.77-.197l.143-.042V87.9l-.143.042zm.548-.172a2.4 2.4 0 0 0 .142-.047V87.73l-.142.046zm.562-.2l.143-.058V87.52l-.143.058zm.482-.2l.143-.068v-1.788l-.143.063zm.456-.226l.142-.074v-1.784l-.142.074zm.43-.244l.143-.09v-1.773c-.046.03-.095.057-.143.086zm.43-.294l.143-.113v-1.76a2.69 2.69 0 0 1-.143.107zm.383-.324l.142-.145v-1.732l-.142.134zm.365-2.11v1.7c.052-.072.1-.146.143-.22v-1.66l-.143.18z"/></g><path d="M68.32 85.138h-.045c-.22-.463-1.308-.754-3.25-.994-1.852-.23-2.637-.4-2.637-.733 0-.26.616-.557 2.254-.557 1.36 0 2.23.144 2.678.22l.527-.422h.004v-.2h-.39v.125c-.58-.084-1.345-.152-2.374-.163V81.8H63.77v.65c-1.735.086-2.916.415-3.16.86h-.06v.2h.012c.02.55 1.356.845 3.505 1.102 1.573.192 2.403.412 2.403.766 0 .368-1.02.63-2.53.63-1.19 0-2.297-.123-3.063-.276l-.29.244h-.22v.19h.015c.747.16 2.013.274 3.237.28v.65h1.34v-.67c2.182-.11 3.35-.583 3.358-1.09h.001z" class="C"/><path d="M63.62 86.9v-.65c-1.232-.007-2.508-.123-3.252-.284l.5-.43c.766.154 1.87.277 3.063.277 1.5 0 2.53-.265 2.53-.632 0-.354-.83-.574-2.403-.768-2.167-.258-3.507-.553-3.507-1.113 0-.534 1.253-.94 3.2-1.038v-.648h1.318v.623c1.276.013 2.147.117 2.763.226l-.53.426c-.446-.077-1.316-.22-2.678-.22-1.638 0-2.254.295-2.254.554 0 .335.785.502 2.637.734 2.19.27 3.295.604 3.295 1.18 0 .508-1.17.985-3.36 1.094v.67h-1.34z" class="E"/><ellipse ry="3.73" rx="9.455" cy="80.952" cx="41.438" class="F"/><ellipse ry="3.901" rx="9.424" cy="78.167" cx="40.682" class="B"/><path d="M40.682 82.068c-5.204 0-9.424-1.747-9.424-3.9v2.226c0 2.155 4.22 3.902 9.424 3.902s9.425-1.747 9.425-3.902v-2.226c-.001 2.154-4.22 3.9-9.425 3.9z" class="D"/><ellipse ry="3.638" rx="8.786" cy="78.167" cx="40.682" class="C"/><g class="B"><ellipse ry="3.484" rx="8.421" cy="78.167" cx="40.682"/><path d="M40.6 82.255v1.82h.142v-1.82H40.6zm-.747 1.805l.143.004v-1.818l-.143-.005zm-.796-.043l.143.01V82.2H39.067zm-.77-.07l.143.014v-1.815l-.143-.015zm-.757-.097l.142.02V82.06l-.142-.02zm-.796-.133l.143.025v-1.81l-.143-.025zm-.795-.17l.143.032v-1.805l-.143-.033zm-.77-.207l.142.04V81.58a2.14 2.14 0 0 1-.142-.041zm-.55-.177l.143.05v-1.8l-.143-.047zm-.56-.2l.143.056v-1.793l-.143-.058zm-.482-.214l.143.067v-1.79l-.143-.063zm-.457-.23l.143.073V80.8l-.143-.076zm-.43-.262l.144.092v-1.78l-.144-.085zm-.43-.316l.14.113v-1.766l-.14-.107zm-.383-.355l.143.144v-1.743l-.143-.134zm-.365-.485a2.46 2.46 0 0 0 .142.219v-1.7a2.11 2.11 0 0 1-.142-.18zm9.835 2.972l.142-.004v-1.82l-.142.005zm.795-.036l.143-.01V82.2H42.153zm.77-.064l.142-.014v-1.815c-.047.007-.095.01-.142.014zm.756-.092c.048-.005.095-.012.142-.02v-1.813l-.142.02zm.796-.127l.143-.025v-1.81l-.143.025zm.795-.164l.144-.032V81.74l-.144.033zm.77-.198l.142-.04v-1.802l-.142.04zm.547-.17l.143-.05v-1.798l-.143.047zm.56-.203l.142-.056v-1.795l-.142.058zm.482-.202l.144-.067v-1.787l-.144.063zm.457-.225a2.89 2.89 0 0 0 .143-.073v-1.785l-.143.076zm.432-.243l.143-.092v-1.77l-.143.085zm.43-.295l.142-.113v-1.76l-.142.107zm.382-.324c.05-.047.095-.095.142-.144v-1.733l-.142.134zm.364-2.11v1.7a2.62 2.62 0 0 0 .143-.219v-1.662a2.49 2.49 0 0 1-.143.181z"/></g><path d="M44.66 78.774h-.045c-.22-.463-1.31-.754-3.252-.994-1.85-.23-2.637-.4-2.637-.734 0-.257.617-.554 2.254-.554 1.362 0 2.232.142 2.68.22l.528-.422h.004v-.19h-.39v.125c-.58-.083-1.346-.152-2.375-.163v-.625h-1.318v.65c-1.734.086-2.914.414-3.16.86h-.06v.2h.012c.022.552 1.356.846 3.505 1.1 1.574.193 2.403.412 2.403.768 0 .367-1.02.63-2.53.63a16.38 16.38 0 0 1-3.062-.277l-.29.243h-.22v.19h.016c.746.16 2.014.274 3.237.28v.65h1.34v-.67c2.18-.11 3.35-.582 3.358-1.09h.002v-.2z" class="C"/><path d="M39.96 80.537v-.65c-1.233-.005-2.51-.122-3.253-.282l.512-.432c.764.154 1.87.277 3.062.277 1.5 0 2.53-.265 2.53-.632 0-.354-.83-.573-2.403-.766-2.167-.26-3.508-.555-3.508-1.115 0-.534 1.254-.94 3.21-1.036v-.65h1.318v.623c1.276.013 2.147.116 2.764.225l-.532.426c-.446-.077-1.316-.22-2.68-.22-1.637 0-2.254.296-2.254.554 0 .335.786.502 2.637.734 2.19.27 3.295.605 3.295 1.18 0 .51-1.168.986-3.358 1.095v.67h-1.34z" class="E"/><ellipse ry="3.73" rx="9.455" cy="76.608" cx="42.86" class="F"/><ellipse ry="3.902" rx="9.425" cy="73.823" cx="43.68" class="B"/><path d="M43.68 77.726c-5.204 0-9.425-1.746-9.425-3.902v2.227c0 2.154 4.22 3.9 9.425 3.9s9.425-1.747 9.425-3.9v-2.227c-.001 2.155-4.22 3.902-9.425 3.902z" class="D"/><ellipse ry="3.637" rx="8.786" cy="73.823" cx="43.68" class="C"/><g class="B"><ellipse ry="3.486" rx="8.421" cy="73.823" cx="43.68"/><path d="M43.61 77.91v1.818H43.68 43.75V77.91l-.07.001c-.023 0-.046-.001-.07-.001zm-.75 1.805l.144.004v-1.818l-.144-.005zm-.795-.044l.143.01v-1.816l-.143-.01zm-.77-.068l.143.014v-1.816l-.143-.012zm-.757-.095l.143.02v-1.813l-.143-.02zm-.796-.136c.047.01.096.02.143.027v-1.81l-.143-.027zm-.796-.17l.144.033V77.43l-.144-.034zm-.768-.208l.143.043v-1.802l-.143-.04zm-.55-.174l.144.047v-1.8l-.144-.048zm-.56-.213l.143.057v-1.793l-.143-.058zm-.482-.212l.143.067V76.67l-.143-.063zm-.457-.232l.143.075v-1.783l-.143-.076zm-.43-.26l.14.1v-1.778l-.14-.087zm-.433-.317l.144.114v-1.767l-.144-.106zm-.38-.356c.045.05.092.098.142.146v-1.745l-.142-.133zm-.366-.483a2.71 2.71 0 0 0 .143.218v-1.7l-.143-.18zm9.835 2.972l.143-.004v-1.82l-.143.005zm.795-.037c.048-.002.095-.007.143-.01v-1.815l-.143.01zm.77-.065l.143-.014V77.8l-.143.012zm.757-.1l.142-.02v-1.812l-.142.02zm.796-.128l.143-.027v-1.81l-.143.027zm.796-.164l.142-.033v-1.806c-.047.013-.093.023-.142.034zm.77-.198l.144-.043v-1.8c-.05.012-.096.026-.144.04zm.548-.17l.143-.047v-1.8l-.143.048zm.56-.203l.142-.057v-1.794l-.142.058zm.483-.2l.143-.067V76.61l-.143.063zm.457-.225l.142-.075V76.38l-.142.076zm.43-.244l.143-.1V76.13c-.046.03-.095.06-.143.087zm.432-.294l.143-.114V75.83l-.143.105zm.38-.323l.143-.146V75.5l-.143.133zm.366-2.113v1.7c.052-.072.1-.146.142-.218v-1.662a2.96 2.96 0 0 1-.142.179z"/></g><path d="M47.657 74.432h-.045c-.22-.464-1.31-.755-3.25-.993-1.853-.232-2.64-.4-2.64-.736 0-.258.617-.553 2.255-.553 1.36 0 2.23.14 2.68.218l.526-.42h.005v-.2H46.8v.125c-.58-.084-1.347-.153-2.374-.163v-.625h-1.32v.65c-1.734.086-2.914.416-3.16.86h-.06v.2h.012c.022.55 1.356.844 3.505 1.1 1.574.192 2.403.413 2.403.766 0 .367-1.02.632-2.53.632-1.19 0-2.298-.123-3.062-.277l-.3.244h-.222v.19h.016c.746.158 2.014.273 3.238.28v.65h1.34v-.67c2.18-.108 3.35-.582 3.358-1.088h.002z" class="C"/><path d="M42.958 76.193v-.65c-1.234-.008-2.5-.123-3.254-.285l.512-.432c.764.155 1.87.278 3.062.278 1.5 0 2.53-.265 2.53-.633 0-.353-.83-.572-2.403-.765-2.168-.258-3.508-.555-3.508-1.115 0-.533 1.255-.94 3.21-1.035v-.65h1.32v.625c1.276.012 2.146.115 2.763.225l-.53.425c-.447-.076-1.318-.22-2.68-.22-1.638 0-2.255.296-2.255.554 0 .336.786.503 2.64.734 2.188.27 3.293.605 3.293 1.18 0 .51-1.168.985-3.358 1.096v.67h-1.34z" class="E"/></g></svg>