<svg xmlns="http://www.w3.org/2000/svg" height="48" width="48"><g transform="matrix(.081269 0 0 .081269 -.188952 -10.209844)"><circle r="295.315" cy="420.945" cx="297.64" fill="#5fc3b0"/><path d="M402.977 337.466l6.278 15.115h-176.49l6.278-15.115z" fill="#a44924"/><path d="M201.837 453.5c-15.114 0-27.438 12.324-27.438 27.44 0 2.093.232 4.186.697 6.046h53.25c.465-1.86.697-3.953.697-6.046.233-15.115-12.092-27.44-27.206-27.44z" fill="#1c2931"/><path d="M441.81 453.965c-119.288-40.23-330.892-40.46-369.725-39.996-1.162 21.626-1.395 46.507.93 70.225 7.208 2.093 17.207 2.79 17.207 2.79h85.106c-.465-1.86-.697-3.953-.697-6.046 0-15.115 12.324-27.44 27.438-27.44s27.438 12.324 27.438 27.44c0 2.093-.232 4.186-.697 6.046h191.373c-.465-1.86-.697-3.953-.697-6.046-.464-13.488 9.534-24.88 22.323-26.974z" fill="#edf0f2"/><path d="M468.318 464.196c-8.14-3.72-16.975-7.21-26.51-10.23-12.79 2.325-22.555 13.486-22.555 26.974 0 2.093.232 4.186.697 6.046h53.25c.465-1.86.697-3.953.697-6.046.001-6.28-2.092-12.092-5.58-16.743z" fill="#1c2931"/><path d="M473.9 480.938c0 2.093-.232 4.186-.697 6.046h31.16c-9.302-8.604-21.626-16.045-36.275-22.556 3.72 4.42 5.813 10.232 5.813 16.5z" fill="#edf0f2"/><path d="M523.893 412.574C513.197 347.232 480.4 349.8 480.4 349.8h-406s2.8 2.558 2.8 5.348c0 1.628-3.488 26.276-5.116 58.598 38.833-.232 250.67-.232 369.725 39.996 1.628-.233 3.023-.466 4.65-.466 8.836 0 16.742 4.186 21.625 10.697 14.65 6.743 26.974 14.184 36.275 22.555h19.532c.001.466 11.163-6.045.001-73.944z" fill="#e37d39"/><path d="M446.46 453.5c-1.628 0-3.256.233-4.65.466 9.534 3.255 18.37 6.743 26.51 10.23-5.116-6.51-13.022-10.697-21.858-10.697z" fill="#1c2931"/><path d="M252.994 357.93h-87.897c-1.162 9.3-3.953 35.8-3.72 50.227h89.757c-.232-14.65 1.395-40.693 1.86-50.227z" fill="#0b2c48"/><path d="M88.827 450.94h1.162v26.51h-1.162zm2.093-.002h1.162v26.514H90.92zm2.093 0h1.162v26.514h-1.162zm2.093 0h1.162v26.514h-1.162zm2.325 0h1.162v26.514H97.43zm2.093 0h1.162v26.514h-1.162zm2.092 0h1.162v26.514h-1.162zm2.093 0h1.162v26.514h-1.162zm2.093 0h1.162v26.514h-1.162zm2.093 0h1.162v26.514h-1.162zm2.093 0h1.162v26.514h-1.162zm2.092 0h1.162v26.514h-1.162zm2.093 0h1.162v26.514h-1.162zm2.093 0h1.162v26.514h-1.162zm2.093 0h1.162v26.514h-1.162zm2.092 0h1.162v26.514h-1.162zm2.093 0h1.162v26.514h-1.162zm2.093 0h1.162v26.514h-1.162zm6.046-4.65h1.162v40.694h-1.162zm101.384 0h1.162v40.694h-1.162zm88.826 0h1.163v41.625h-1.163zm86.967 0h1.163v41.625h-1.163zm-323.452-.697h1.163v40.694h-1.163z" fill="#b8bab9"/><path d="M360.423 477.218h9.302v4.186h-9.302zm-90.92.001h9.3v4.188h-9.3z" fill="#1a1e2a"/><path d="M513.894 400.482l-3.022-12.557c-9.302-32.09-34.415-30.23-34.415-30.23v81.852c19.533-14.185 33.25-32.787 37.437-39.066zm-351.122-42.55H89.757s-6.976 39.294-3.72 50.223h73.248c-.465-14.648 2.326-40.694 3.488-50.223zm180.444 0H255.32l-1.86 50.223h88.827l.93-50.223zm95.57 0H345.54l-.93 50.223h93.942l.233-50.223zm35.578 0h-33.252l-.465 50.223h33.717z" fill="#0b2c48"/><path d="M165.097 357.93h-2.325c-1.162 9.534-3.953 35.577-3.72 50.227h2.326c-.233-14.417 2.8-40.926 3.72-50.227zm90.223.003h-2.325l-1.86 50.223h2.325c-.233-14.648 1.395-40.922 1.86-50.223zm90.22 0h-2.325l-.93 50.223h2.325l.93-50.223zm95.57 0h-2.325l-.232 50.223h2.325l.232-50.223z" fill="#e37d39"/><path d="M508.08 370.486h16.277s5.35 1.163 5.35 6.278 2.325 15.58-5.116 17.208v-18.835s-.232-1.86-1.86-1.86h-14.417v-2.79z" fill="#a44924"/><path d="M413.673 445.594H85.107v1.162H418.09z" fill="#b8bab9"/><path d="M478.084 446.756v-1.162h-64.41l4.418 1.162z" fill="#c25e28"/><circle r="23.718" cy="480.938" cx="446.46" fill="#0f160e"/><circle r="14.882" cy="480.938" cx="446.46" fill="#525355"/><circle r="13.487" cy="480.938" cx="446.46" fill="#3a4259"/><circle r="8.836" cy="480.938" cx="446.46" fill="#9b8f99"/><circle r="4.651" cy="480.938" cx="446.46" fill="#36505f"/><path d="M448.553 468.847c0 .697-.93 1.396-2.093 1.396s-2.093-.698-2.093-1.396.93-.698 2.093-.698 2.093-.233 2.093.698zm-4.186 23.95c0-.697.93-1.394 2.093-1.394s2.093.697 2.093 1.394-.93.697-2.093.697-2.093.234-2.093-.697zm14.185-9.998c-.698 0-1.396-.93-1.396-2.097 0-1.16.697-2.09 1.396-2.09s.697.93.697 2.09c0 1.166 0 2.097-.697 2.097zm-24.184-3.953c.697 0 1.396.93 1.396 2.09 0 1.166-.698 2.097-1.396 2.097s-.697-.93-.697-2.097 0-2.09.697-2.09zm22.09-5.12c-.466.47-1.628.47-2.326-.463-.697-.697-.93-1.863-.465-2.325.465-.47 1.163.228 1.86.93.698.697 1.396 1.394.93 1.857zm-19.998 14.185c.465-.463 1.628-.463 2.325.47.697.697.93 1.857.465 2.32-.465.47-1.162-.228-1.86-.925s-1.395-1.394-.93-1.863zm17.207 2.788c-.465-.463-.465-1.622.465-2.32.698-.697 1.86-.93 2.326-.47.465.47-.233 1.166-.93 1.863s-1.395 1.628-1.86.925zm-14.184-19.76c.466.463.466 1.628-.465 2.325s-1.86.93-2.325.463c-.465-.463.232-1.16.93-1.857.698-.93 1.162-1.628 1.86-.93z" fill="#0c1723"/><circle r="23.718" cy="480.938" cx="201.837" fill="#0f160e"/><circle r="13.487" cy="480.938" cx="201.837" fill="#525355"/><circle r="12.324" cy="480.938" cx="201.837" fill="#161f1e"/><circle r="10.929" cy="480.938" cx="201.837" fill="#9b8f99"/><circle r="4.651" cy="480.938" cx="201.837" fill="#36505f"/><path d="M74.4 349.79c-.698.465-1.163 1.163-1.628 2.325.697.698 2.093 2.558 2.093 4.65 0 1.395-3.023 23.718-4.418 52.784l-4.418-2.8c0 1.163 0 2.325-.233 3.255l6.046 3.72c1.628-32.322 5.116-56.97 5.116-58.598.232-2.79-2.558-5.348-2.558-5.348z" fill="#a44924"/><path d="M70.457 409.55c1.395-29.066 4.418-51.39 4.418-52.784 0-2.093-1.628-3.953-2.093-4.65-3.488 7.44-5.58 30.23-6.743 54.413z" fill="#0b1217"/><path d="M72.084 413.736l-6.045-3.72-.233 43.483 5.813 10.23a507.72 507.72 0 0 1 .465-49.993z" fill="#b8bab9"/><path d="M71.62 463.73l-5.813-10.23.698 15.348c0 1.86 3.255 14.185 6.51 15.114-.697-6.51-1.163-13.254-1.396-20.23z" fill="#979c99"/><path d="M70.457 453.965c0 .93-.232 1.86-.232 2.8-.466-.232-.698-.93-.698-1.396v-.93c0-.697-.232-1.163-.232-1.86 0-.465.465-.93.232-1.163.232.233.698.466.93.466l-.001 2.093m-3.953-4.655c0 .47 0 .93-.232 1.4-.232-.234-.232-.47-.232-.697v-.47c0-.228-.233-.463 0-.93 0-.228.232-.463.232-.697.232 0 .232.234.465.234-.233.463-.233.93-.233 1.16" fill="#e37d39"/><path d="M68.597 452.337v-1.163c.232-.232.697 0 .93.466-.232 1.395-.232 2.8-.232 3.952-.232-.232-.232-.697-.465-.93 0 0 0-.232-.232-.232v-.465c.23-.466.23-1.163-.001-1.628zm-1.86-1.164c-.232-.228-.232-.463-.232-.697 0-.697.232-1.16.232-1.628.232 0 .232.234.232.234v.228c-.232.47-.232 1.166-.232 1.863z" fill="#edf0f2"/><path d="M513.894 400.482c-4.418 6.278-18.138 24.88-37.438 39.298v27.67h42.32c.233.233 1.163-36.274-4.883-66.97z" fill="#0b1a28"/></g><path d="M5.67 29.12L24.57 48s17.595 0 22.652-17.915c0 0 .712-3.128.744-4.79l-5.248-5.234a1.15 1.15 0 0 0 .149.513c.02.31.014.624.014.624s-.044.44-.24.526l-.196.085v-1.452s.046-.23-.15-.23h-.907s.574 1.24.73 1.9.743 4.06.675 5.237-.085 1.773-.403 2.065l-4.43.038s-.348 1.44-1.864 1.437c0 0-1.44.002-1.864-1.437H18.078s-.35 1.382-1.785 1.435c0 0-1.475.154-1.943-1.435H7.37s-.373-.017-.7-.057-1.002-.19-1.002-.19z" fill="#4fa493"/></svg>