<svg xmlns="http://www.w3.org/2000/svg" height="48" width="48"><g transform="scale(.09375)"><path d="M512 256c0 9.46-.53 18.84-1.57 28l-1.13 8.85-.73 4.65c-4 24.43-11.42 47.74-21.8 69.3-13.74 28.6-32.63 54.22-55.46 75.7l-.3.28-3.26 3.02c-38.98 35.3-88.8 58.73-143.93 64.67A255.14 255.14 0 0 1 256 512c-2.22 0-4.43-.04-6.64-.08l-6.73-.27-5.9-.34C104.3 501.45 0 390.9 0 256 0 114.63 114.6 0 256 0c118.28 0 217.82 80.24 247.2 189.25 2.63 9.75 4.7 19.73 6.16 29.9l.6 4.4.17 1.43.48 4.25.22 2.17.4 4.43.17 2.9.3 4.68.13 3.52.13 5.2c0 .43.05.9 0 1.4.05.82.05 1.65.05 2.47z" fill="#334d5c"/><path d="M512 256c0 9.46-.53 18.84-1.57 28l-1.13 8.85-.73 4.65c-4 24.43-11.42 47.74-21.8 69.3-13.74 28.6-32.63 54.22-55.46 75.7l-.3.28-3.26 3.02c-38.98 35.3-88.8 58.73-143.93 64.67l-94.84-98.05V397.8c22.48-3.47 40.8-5.42 58.6-5.86v-126.1L124.6 112.94h263.6l114.97 76.3c2.63 9.75 4.7 19.73 6.16 29.9l.6 4.4.17 1.43.48 4.25.22 2.17.4 4.43.17 2.9.3 4.68.13 3.52.13 5.2c0 .43.05.9 0 1.4.05.82.05 1.65.05 2.47z" opacity=".3" fill="#231f20"/><g fill="#c8d6db"><path d="M387.4 112.95L256 276.286 124.598 112.95z"/><path d="M247.593 254.228h16.798v150.9h-16.798z"/><path d="M323.004 412.447H188.976v-14.662c51.83-7.956 81.562-7.926 134.028 0z"/></g><path d="M255.485 258.36l106.057-134.92h-106.5v134.334z" fill="#e9cb4d"/><path d="M150.44 123.442l104.59 134.334V123.442z" fill="#fada53"/><g fill="#faeebe"><path d="M197.885 142.25c0 4.917-3.99 8.9-8.9 8.9a8.9 8.9 0 1 1 0-17.802c4.92-.001 8.9 3.984 8.9 8.9zm43.26 30.703a8.9 8.9 0 0 1-8.901 8.901c-4.92 0-8.9-3.984-8.9-8.9s3.99-8.9 8.9-8.9a8.9 8.9 0 0 1 8.901 8.901zm67.277-16.687a8.9 8.9 0 0 1-8.901 8.901c-4.92 0-8.9-3.984-8.9-8.9s3.988-8.9 8.9-8.9c4.916 0 8.9 3.984 8.9 8.9z"/><circle cx="264.391" cy="207.437" r="8.906"/><path d="M264.39 147.366c0 4.917-3.984 8.9-8.905 8.9s-8.906-3.984-8.906-8.9 3.984-8.9 8.906-8.9 8.905 3.984 8.905 8.9z"/></g><path d="M324.988 108.403l-3.968-1.755c.755-1.696 18.702-41.548 47.033-39.264l-.348 4.324c-25.237-2.025-42.543 36.305-42.717 36.695z" fill="#1aa900"/><path d="M336.187 116.21a17.14 17.14 0 0 1-17.133 17.137 17.14 17.14 0 0 1-17.141-17.137 17.14 17.14 0 0 1 17.141-17.137 17.14 17.14 0 0 1 17.133 17.137z" fill="#db4200"/><path d="M319.053 133.348a17.14 17.14 0 0 0 17.133-17.137 17.17 17.17 0 0 0-.327-3.26h-33.617a17.17 17.17 0 0 0-.331 3.26c.001 9.465 7.673 17.137 17.142 17.137z" fill="#db8e6e"/><path d="M334.538 123.442h-30.973c2.73 5.836 8.613 9.906 15.488 9.906 6.867 0 12.75-4.07 15.485-9.906z" fill="#f2a744"/><g fill="#c8d6db"><path d="M387.4 112.95L256 276.286 124.598 112.95z"/><path d="M247.593 254.228h16.798v150.9h-16.798z"/><path d="M323.004 412.447H188.976v-14.662c51.83-7.956 81.562-7.926 134.028 0z"/></g><path d="M255.485 258.36l106.057-134.92h-106.5v134.334z" fill="#e9cb4d"/><path d="M150.44 123.442l104.59 134.334V123.442z" fill="#fada53"/><g fill="#faeebe"><path d="M197.885 142.25c0 4.917-3.99 8.9-8.9 8.9a8.9 8.9 0 1 1 0-17.802c4.92-.001 8.9 3.984 8.9 8.9zm43.26 30.703a8.9 8.9 0 0 1-8.901 8.901c-4.92 0-8.9-3.984-8.9-8.9s3.99-8.9 8.9-8.9a8.9 8.9 0 0 1 8.901 8.901zm67.277-16.687a8.9 8.9 0 0 1-8.901 8.901c-4.92 0-8.9-3.984-8.9-8.9s3.988-8.9 8.9-8.9c4.916 0 8.9 3.984 8.9 8.9z"/><circle cx="264.391" cy="207.437" r="8.906"/><path d="M264.39 147.366c0 4.917-3.984 8.9-8.905 8.9s-8.906-3.984-8.906-8.9 3.984-8.9 8.906-8.9 8.905 3.984 8.905 8.9z"/></g><path d="M336.187 116.21a17.14 17.14 0 0 1-17.133 17.137 17.14 17.14 0 0 1-17.141-17.137 17.14 17.14 0 0 1 17.141-17.137 17.14 17.14 0 0 1 17.133 17.137z" fill="#db4200"/><path d="M319.053 133.348a17.14 17.14 0 0 0 17.133-17.137 17.17 17.17 0 0 0-.327-3.26h-33.617a17.17 17.17 0 0 0-.331 3.26c.001 9.465 7.673 17.137 17.142 17.137z" fill="#db8e6e"/><path d="M334.538 123.442h-30.973c2.73 5.836 8.613 9.906 15.488 9.906 6.867 0 12.75-4.07 15.485-9.906z" fill="#f2a744"/></g></svg>