<svg xmlns="http://www.w3.org/2000/svg" width="48" height="48"><g transform="scale(.09374982118606567)"><path d="M512 256c0 20.556-2.43 40.55-7 59.7C478.11 428.287 376.834 512 256 512a258.52 258.52 0 0 1-32.922-2.101C97.255 493.746 0 386.2 0 256 0 114.61 114.638 0 256 0 397.4 0 512 114.61 512 256z" fill="#e05b49"/><path d="M504.99 315.698C478.11 428.287 376.834 512 256 512L113.103 402.098v-19.71l16.05-5.71V363.98h16.435v-46.593l-9.96-7.45v-24.55l47.646-5.555V212.94l-8.553-7.578v-21.48h19.023c6.245-16.205 18.2-29.364 33.33-36.864h-.103l-1.05-20.326h8.5c2.278-9.32 9.753-16.4 18.968-17.563V98.995h-.05V85.632h.103c.052-.69.382-1.28.872-1.716-.027-.025-.08-.05-.104-.077-.075-.05-.128-.127-.205-.18-.1-.154-.23-.282-.305-.436 0 0 .025 0 .05.026-.255-.4-.435-.87-.435-1.383 0-1.5 1.203-2.714 2.688-2.714.615 0 1.128.23 1.563.564 0-.026 0-.05-.025-.078.1.05.205.154.28.23.05.05.103.076.13.127a2.55 2.55 0 0 1 .51.743c.025.05.05.127.077.18.103.308.178.615.178.947 0 .845-.4 1.562-.998 2.048.027 0 4.788 1.716 4.788 1.716h8.805l.4 2.51h9.448L504.99 315.696z" opacity=".2"/><path d="M258.644 113.594V85.88a2.63 2.63 0 0 0-2.63-2.628c-1.455 0-2.63 1.176-2.63 2.628v27.714z" fill="#8199b0"/><path d="M256.014 83.25c-.623 0-1.2.225-1.64.588.075-.006.15-.023.225-.023a2.63 2.63 0 0 1 2.63 2.628v27.15h1.415V85.88a2.63 2.63 0 0 0-2.63-2.629z" fill="#6a7d91"/><circle r="2.703" cy="81.862" cx="256.014" fill="#8199b0"/><path d="M257.54 79.632c.23.4.375.86.375 1.353 0 1.495-1.2 2.705-2.702 2.705a2.69 2.69 0 0 1-1.523-.471c.468.8 1.33 1.346 2.325 1.346a2.7 2.7 0 0 0 2.703-2.703c-.001-.926-.468-1.742-1.178-2.23z" fill="#6a7d91"/><path d="M277.934 128.236c-1.935-10.97-11.005-19.28-21.92-19.28s-19.985 8.3-21.922 19.28zm41.355 58.278c-9.152-26.957-34.018-46.296-63.275-46.296s-54.125 19.34-63.275 46.296z" fill="#ccc"/><path d="M268.74 128.236h9.195c-1.935-10.97-11.005-19.28-21.92-19.28-.295 0-.585.027-.877.04 6.884 2.263 11.402 9.588 13.602 19.238zm31.593 58.278H319.3c-9.152-26.957-34.018-46.296-63.275-46.296a65.16 65.16 0 0 0-9.13.646c24.404 3.532 44.66 21.418 53.447 45.65zm-117.056 13.583h145.476v102.97H183.276z" fill="#b3b3b3"/><path d="M204.31 200.097h19.06V303.07h-19.06zm42.175-.001h19.06v102.97h-19.06zm42.172 0h19.063v102.97h-19.063z" fill="#f2f2f2"/><path d="M183.276 202.507h145.476v10.904l-70.153-2.6-75.323-.562z" opacity=".2"/><path d="M174.733 183.882h162.56v21.473h-162.56z" fill="#f2f2f2"/><path d="M145.593 297.74l39.835-2.56h141.166l39.838 2.56v71.93h-220.84z" fill="#b3b3b3"/><path d="M166.623 295.18h19.063v74.49h-19.063zm53.24-.001h19.06v74.493h-19.06zm53.24 0h19.06v74.493h-19.06zm53.235 0h19.06v74.493h-19.06z" fill="#f2f2f2"/><g opacity=".2"><path d="M145.593 297.74l110.42-7.082v17.703l-110.42 6.747z"/><path d="M256.014 290.658l110.418 7.082v17.368l-110.418-6.747z"/></g><path d="M256.014 271.374l-120.38 14.02v24.538l120.38-7z" fill="#f2f2f2"/><path d="M376.395 309.93v-24.538l-120.38-14.02v31.547z" fill="#d4d4d4"/><path d="M286.11 126.703l-1.065 20.318H226.98l-1.063-20.318zM129.163 376.68l-16.07 5.695v19.72h285.84v-19.72l-17.672-5.695v5.695H129.163zm0-12.707H381.26v12.707H129.163z" fill="#f2f2f2"/><path d="M113.093 382.375h285.84l-17.672-5.695H129.163z" fill="#d4d4d4"/><path d="M265.836 88.143h15.335v13.365h-15.335z" fill="#ccc"/><path d="M255.976 85.625h15.338V98.99h-15.338z" fill="#f2f2f2"/><g fill="#a8a8a8"><path d="M273.504 98.99h-2.2V85.625z"/><path d="M265.836 101.507V98.99h7.668z"/></g><path d="M253.35 85.625h2.627V98.99h-2.627z" fill="#fff"/><path d="M258.606 85.625h.547V98.99h-.547z" fill="#a8a8a8"/></g></svg>