<svg xmlns="http://www.w3.org/2000/svg" height="48" width="48"><style><![CDATA[.AE{fill:#9fa09f}.AF{fill:#888988}]]></style><g transform="matrix(.096744 0 0 .096744 -.766306 -.766596)"><path d="M256.003 7.924C118.99 7.924 7.92 118.984 7.92 256.007c0 137 111.07 248.07 248.082 248.07 137.006 0 248.075-111.07 248.075-248.07 0-137.024-111.07-248.083-248.075-248.083z" fill="#4abc96"/><g fill="#eaefef"><path d="M256 227.505c-100.517 0-182 34.247-182 76.5 0 42.247 81.483 76.5 182 76.5s181.997-34.252 181.997-76.5c0-42.254-81.485-76.5-181.997-76.5z"/><path d="M291.927 169.334l.033.954c0 14.774-16.103 26.75-35.96 26.75s-35.958-11.977-35.958-26.75l.032-.954C136.767 176.345 74 207.26 74 244.343c0 42.248 81.483 76.5 182 76.5s181.997-34.25 181.997-76.5c0-37.084-62.767-67.998-146.07-75.01z"/><path d="M74.243 240.46H437.72v62.576H74.243z"/></g><path d="M289.927 179.16c-4.922 10.412-18.248 17.88-33.926 17.88s-29.006-7.468-33.926-17.88c-71.353 6.53-124.79 33.23-124.79 65.183 0 36.843 71.06 66.712 158.715 66.712s158.715-29.87 158.715-66.712c0-31.954-53.438-58.652-124.79-65.183z" fill="#d7dbdb"/><g fill="#ccc"><ellipse ry="26.751" rx="35.958" cy="310.396" cx="256.001"/><path d="M255.68 217.892c-70.967 0-130.89 20.19-150.045 47.86 21.223 26.342 80.527 45.304 150.367 45.304 69.47 0 128.505-18.763 150.015-44.886-18.836-27.884-79.01-48.277-150.337-48.277z"/></g><path d="M277.133 206.432l-9.674-24.5c-5.716-.708-29.178-.693-34.89.023l6.6 26.572 13.048 25.842-13.617 25.672 31.764-.04 18.923-39.8z" fill="#efeee4"/><path d="M275.698 210.326l-8.804-9.073.565-19.32-6.17 22.256zm-10.94 41.36l5.603 8.318 4.135-8.716zm7.08-28.905l-20.933-11.795-.382-16.746s-15.273-12.623-17.956-12.285l13.77 13.425-7.17 13.148L265.75 228.5 238.6 260.04l34.762-29.263 15.925-10.574z" fill="#e2e1d9"/><path d="M232.536 86.786h34.893v95.77h-34.893z" fill="#e79e2f"/><path d="M232.503 86.798l.066 95.77 34.893-.024z" fill="#d88d2b"/><path d="M232.503 86.798l.066 95.77 14.152-.024z" fill="#cc8127"/><ellipse ry="5.281" rx="17.424" cy="86.775" cx="249.97" fill="#edd48e"/><ellipse ry="3.378" rx="11.146" cy="86.775" cx="249.97" fill="#e8cb70"/><g fill="#e5aa5c"><circle r="1.967" cy="176.566" cx="263.471"/><circle r="1.967" cy="176.573" cx="254.325"/><circle r="1.967" cy="176.58" cx="245.18"/><circle r="1.967" cy="176.586" cx="236.034"/><circle r="1.967" cy="159.625" cx="263.458"/><circle r="1.967" cy="159.631" cx="254.313"/><circle r="1.967" cy="159.638" cx="245.168"/><circle r="1.967" cy="159.643" cx="236.022"/><circle r="1.967" cy="142.683" cx="263.448"/><circle r="1.967" cy="142.69" cx="254.303"/><circle r="1.967" cy="142.696" cx="245.157"/><circle r="1.967" cy="142.702" cx="236.012"/><path d="M259 166.245a1.97 1.97 0 0 0-1.969 1.968 1.97 1.97 0 0 0 1.971 1.964 1.97 1.97 0 0 0 1.967-1.968 1.97 1.97 0 0 0-1.969-1.964z"/><circle r="1.967" cy="168.218" cx="249.855"/><circle r="1.967" cy="168.223" cx="240.711"/><circle r="1.967" cy="151.269" cx="258.99"/><circle r="1.967" cy="151.276" cx="249.845"/><circle r="1.967" cy="151.281" cx="240.699"/><path d="M263.435 123.996a1.97 1.97 0 0 0-1.966 1.968 1.97 1.97 0 0 0 1.97 1.964c1.084 0 1.967-.88 1.965-1.968a1.97 1.97 0 0 0-1.969-1.964zM254.3 124a1.97 1.97 0 0 0-1.968 1.968c.005 1.085.884 1.968 1.97 1.968a1.97 1.97 0 0 0 1.965-1.968 1.97 1.97 0 0 0-1.967-1.968z"/><circle r="1.966" cy="125.974" cx="245.145"/><path d="M236 124.014a1.97 1.97 0 0 0-1.967 1.969 1.97 1.97 0 0 0 1.971 1.965 1.97 1.97 0 0 0 1.963-1.968c0-1.086-.88-1.967-1.967-1.966z"/><circle r="1.967" cy="109.02" cx="263.424"/><circle r="1.967" cy="109.026" cx="254.28"/><circle r="1.967" cy="109.033" cx="245.135"/><circle r="1.967" cy="109.039" cx="235.988"/><circle r="1.967" cy="134.548" cx="258.979"/><circle r="1.967" cy="134.554" cx="249.834"/><circle r="1.967" cy="134.56" cx="240.688"/><circle r="1.967" cy="117.605" cx="258.967"/><circle r="1.967" cy="117.612" cx="249.821"/><circle r="1.967" cy="117.619" cx="240.678"/><path d="M258.954 99.02c-1.084 0-1.967.883-1.963 1.968s.88 1.966 1.967 1.966a1.97 1.97 0 0 0 1.966-1.969c-.002-1.086-.88-1.966-1.97-1.965z"/><circle r="1.967" cy="100.992" cx="249.811"/><circle r="1.967" cy="100.998" cx="240.666"/></g><path d="M244.5 267.66l3.623 2.423 7.243-1.992 3.623-3.967 7.243 5.175 4.14.784v-10.082h-32.08v5.33l2.326 3.363z" class="AE"/><path d="M241.797 268.35l11.923-3.23 2.237 2.65 3.476-3.8 6.953 4.97 3.976.753-14.405-9.68H250.5l-10.93 5.12z" class="AF"/><path d="M275.507 288.232l5.383.778 5.086-4.962-3.21-6.7-5.383-2.107-2.96 1.388z" class="AE"/><path d="M275.507 288.232l6.8-2.195 3.66-1.99-4.094-6.36-7.46-1.06-3.2 7.87z" class="AF"/><path d="M217.25 289.08l3.318.48 3.135-3.06-1.977-4.13-3.32-1.298-1.824.857z" class="AE"/><path d="M217.25 289.08l4.2-1.354 2.254-1.227-2.52-3.92-4.6-.652-1.978 4.85z" class="AF"/><path d="M228.27 293.366l4.732.682 4.47-4.362-2.824-5.893-4.73-1.852-2.604 1.22z" class="AE"/><path d="M228.27 293.366l5.986-1.932 3.217-1.748-3.598-5.592-6.56-.932-2.823 6.92z" class="AF"/><path d="M239.604 286.132l3.318.477 3.134-3.058-1.98-4.13-3.318-1.3-1.824.858z" class="AE"/><path d="M239.604 286.132l4.197-1.355 2.255-1.226-2.522-3.92-4.6-.65-1.983 4.85z" class="AF"/><path d="M244.45 298.3l4.858.7 4.59-4.476-2.9-6.048-4.856-1.902-2.67 1.254z" class="AE"/><path d="M244.45 298.3l6.147-1.98 3.3-1.795-3.693-5.74-6.732-.955-2.9 7.1z" class="AF"/><path d="M255.887 288.544l3.32.477 3.135-3.058-1.98-4.13-3.32-1.3-1.824.858z" class="AE"/><path d="M255.887 288.544l4.198-1.355 2.256-1.226-2.524-3.92-4.6-.653-1.98 4.85z" class="AF"/><path d="M265.864 295.758l3.477.502 3.283-3.205-2.076-4.326-3.473-1.36-1.912.896z" class="AE"/><path d="M265.864 295.758l4.397-1.418 2.363-1.285-2.644-4.105-4.817-.684-2.074 5.08z" class="AF"/></g><path d="M24.04 48s19.816.396 23.75-20.535l-7.46-7.405s1.29 1.162 1.29 3.22l-.21 6.575c-.41.813-1.425 2.345-3.645 3.425-2.3 1.12-5.732 2.277-9.155 2.514s-7.542.168-9.444-.03c0 0-5.338-.545-9.266-2.678-.93-.505-1.693-1.154-2.39-1.84zm10.653-31.007s-4.416-1.464-7.218-1.377c0 0 .183 1.493-1.9 2.4l-.466-1.122-.007-9.265z" fill="#40a886"/></svg>