<svg xmlns="http://www.w3.org/2000/svg" xmlns:xlink="http://www.w3.org/1999/xlink" width="48" height="48"><g transform="matrix(.106423 0 0 .106423 -4.349298 -3.268146)"><circle r="225.515" cy="256.224" cx="266.383" fill="#d6a348"/><g opacity=".8"><defs><path id="A" d="M398.27 255.1l-4.46-77.01 238.468 133.184-304.73 208.443L144.374 362.9l66.73-189.95z" opacity=".8"/></defs><clipPath id="B"><use height="100%" width="100%" xlink:href="#A" x="0" y="0"/></clipPath><linearGradient y2="650.89" y1="158.069" x2="507.183" x1="206.496" gradientUnits="userSpaceOnUse"><stop offset="0" stop-color="#1A171B"/><stop offset=".424" stop-color="#1A171B" stop-opacity=".326"/><stop offset=".503" stop-color="#1A171B" stop-opacity=".281"/><stop offset="1" stop-color="#1A171B" stop-opacity="0"/></linearGradient><circle r="225.515" cy="256.224" cx="266.383" clip-path="url(#B)" fill="#b18740"/></g><defs><circle r="225.515" id="C" cy="256.224" cx="266.383"/></defs><clipPath><use height="100%" width="100%" xlink:href="#C" x="0" y="0"/></clipPath><path d="M276.412 296.605a16.18 16.18 0 0 1-8.382 21.292l-110.105 47.925c-8.195 3.568-17.728-.2-21.293-8.377L86.663 242.63a16.19 16.19 0 0 1 8.38-21.295l110.107-47.92c8.196-3.567 17.728.2 21.295 8.382z" stroke-miterlimit="10" fill="#fff" stroke="#c5c6c7" stroke-width=".25"/><path d="M135.082 238.228c3.133 7.2-.16 15.58-7.363 18.708-7.203 3.137-15.577-.157-18.713-7.357s.166-15.58 7.367-18.712a14.22 14.22 0 0 1 18.709 7.361zm37.393 85.92c3.135 7.208-.164 15.586-7.36 18.715s-15.58-.16-18.715-7.368a14.22 14.22 0 0 1 26.076-11.346zm42.284-120.594c3.134 7.203-.164 15.58-7.36 18.72-7.205 3.125-15.583-.17-18.71-7.373a14.22 14.22 0 0 1 7.364-18.71c7.196-3.134 15.575.17 18.708 7.364z"/><path d="M454.433 300.84a16.18 16.18 0 0 1-8.16 21.375l-109.62 49.03a16.18 16.18 0 0 1-21.376-8.162l-51.13-114.295c-3.646-8.163.006-17.732 8.165-21.377l109.618-49.035a16.19 16.19 0 0 1 21.379 8.162z" stroke-miterlimit="10" fill="#fff" stroke="#c5c6c7" stroke-width=".25"/><path d="M312.523 243.9c3.2 7.17-.008 15.58-7.176 18.785a14.23 14.23 0 0 1-18.786-7.18c-3.208-7.167.007-15.57 7.177-18.78 7.164-3.204 15.578.005 18.785 7.175zm38.26 85.537c3.205 7.17-.004 15.577-7.174 18.788-7.17 3.198-15.578-.014-18.788-7.18-3.205-7.17.008-15.572 7.176-18.784 7.17-3.202 15.58.005 18.786 7.176zm39.614-120.378c3.206 7.167-.001 15.586-7.172 18.784-7.167 3.207-15.58-.005-18.784-7.167-3.207-7.17.004-15.577 7.174-18.788a14.22 14.22 0 0 1 18.782 7.171zm-59.287 76.507a14.22 14.22 0 0 1-7.17 18.784c-7.172 3.202-15.582-.005-18.787-7.176s.004-15.577 7.174-18.784 15.578.005 18.783 7.176zm97.552 9.034c3.202 7.167-.008 15.577-7.176 18.788a14.22 14.22 0 0 1-18.785-7.176c-3.205-7.17.004-15.58 7.176-18.784 7.168-3.212 15.578.01 18.785 7.17zm-20.13-43.68c3.207 7.162-.004 15.577-7.172 18.78-7.172 3.212-15.58 0-18.786-7.17s.005-15.577 7.173-18.78c7.17-3.212 15.58 0 18.785 7.17zm-158.13 41.275c3.133 7.208-.167 15.58-7.363 18.715a14.23 14.23 0 0 1-18.714-7.364c-3.132-7.203.165-15.572 7.364-18.7s15.577.17 18.713 7.36zM191.95 264.75c3.134 7.2-.167 15.577-7.363 18.715-7.203 3.125-15.583-.165-18.71-7.368-3.136-7.2.155-15.572 7.363-18.7a14.22 14.22 0 0 1 18.709 7.364z"/></g></svg>