<svg xmlns="http://www.w3.org/2000/svg" xmlns:xlink="http://www.w3.org/1999/xlink" width="48" height="48"><g transform="scale(.375)"><circle r="64" cy="64" cx="64" fill="#2b6ac2"/><defs><circle r="64" id="A" cy="64" cx="64"/></defs><clipPath id="B"><use xlink:href="#A"/></clipPath><path clip-path="url(#B)" d="M128 54.4l-25.9-26-32.9 31.9-34.8-34.1-8.4 9.3 33.1 34.6-35.7 34.5L46.8 128H128z" fill="#165599"/><path d="M34.5 22.8L22.8 34.5c-.9.9-.9 2.4 0 3.3l67.5 67.5c.9.9 2.4.9 3.3 0l11.7-11.7c.9-.9.9-2.4 0-3.3L37.7 22.8a2.23 2.23 0 0 0-3.2 0zm3.2 14.9a4.23 4.23 0 0 1-5.9 0 4.23 4.23 0 0 1 0-5.9 4.23 4.23 0 0 1 5.9 0 4.23 4.23 0 0 1 0 5.9z" fill="#fff1e7"/><path d="M81.6 72.5a.61.61 0 0 0 .8 0l1.7-1.7-.8-.8-1.7 1.7c-.2.2-.2.5 0 .8zm-3.3-3.3a.61.61 0 0 0 .8 0l1.7-1.7-.8-.8-1.7 1.7a.61.61 0 0 0 0 .8zm-26-26a.61.61 0 0 0 .8 0l1.7-1.7-.8-.8-1.7 1.7a.61.61 0 0 0 0 .8zm3.3 3.3a.61.61 0 0 0 .8 0l1.7-1.7-.8-.8-1.7 1.7c-.2.2-.2.5 0 .8zM49.1 40a.61.61 0 0 0 .8 0l1.7-1.7-.8-.8-1.7 1.7c-.2.2-.2.5 0 .8zm7.3 12.2a.61.61 0 0 0 .8 0l4.1-4.1-.8-.8-4.1 4.1c-.2.2-.2.5 0 .8zm26 26a.61.61 0 0 0 .8 0l4.1-4.1-.8-.8-4.1 4.1c-.2.2-.2.5 0 .8zm5.7.8a.61.61 0 0 0 .8 0l1.7-1.7-.8-.8-1.7 1.7a.61.61 0 0 0 0 .8zm7.3 12.2a.61.61 0 0 0 .8 0l4.1-4.1-.8-.8-4.1 4.1c-.2.2-.2.5 0 .8zm-4.1-9a.61.61 0 0 0 .8 0l1.7-1.7-.8-.8-1.7 1.7a.61.61 0 0 0 0 .8zm3.3 3.3a.61.61 0 0 0 .8 0l1.7-1.7-.8-.8-1.7 1.7a.61.61 0 0 0 0 .8zM43.4 38.3a.61.61 0 0 0 0 .8.61.61 0 0 0 .8 0l4.1-4.1-.8-.8zm-2.7 2.9l-.9-.3.4-.6 1.2.4.6.6-3 3-.7-.7zm9.9 14.6l.4-.4h.7c1.2.1 1.9.1 2.2-.3.2-.2.3-.6-.1-.9-.3-.3-.6-.4-.9-.4l.3-.7c.4.1.9.3 1.3.7.7.7.7 1.4.1 2-.5.5-1.3.5-2.1.5H52l1.1 1.1-.4.6zm13.8 12.5c.1.2.2.6.5.9.4.4.7.4.9.1.3-.3.1-.7-.2-1l-.2-.3.5-.5.3.3c.2.2.6.4.9.2.2-.2.2-.5-.1-.8-.2-.2-.6-.4-.8-.4l.4-.6c.3.1.8.3 1.1.7.6.6.7 1.3.2 1.7-.3.3-.7.4-1.2.1a1.07 1.07 0 0 1-.1 1.4c-.5.5-1.4.5-2.1-.3-.4-.4-.6-.8-.7-1.1zm13.5 14.9l.7-.7-1.3-1.3.5-.5 3-.7.9.9-1.8 1.8.4.4-.5.5-.4-.4-.7.7zm1.3-1.3l.7-.7c.2-.2.4-.4.6-.5l-.8.3-1.1.3zm15 12.7L93 93.4l-.5.4.2.2c.3.3.5.6.6 1s0 .8-.4 1.1c-.6.6-1.5.6-2.3-.2-.4-.4-.6-.8-.7-1l.6-.4c.1.2.3.6.5.8.3.3.7.5 1.1.1.3-.3.3-.7-.3-1.3l-.4-.4 1.8-1.4 1.6 1.6z" opacity=".9" fill="#58505b"/><path d="M98.6 24.8l4.6 4.6a5.43 5.43 0 0 1 0 7.8l-3.9 3.9-12.4-12.4 3.9-3.9c2.1-2.1 5.6-2.1 7.8 0z" fill="#ef61a3"/><path d="M79.522 60.794L67.148 48.42l20.01-20.01 12.374 12.374z" fill="#5d4f49"/><path d="M94.844 45.582l-4.1-4.1 4.738-4.738 4.1 4.1z" fill="#463c36"/><path d="M86.6 37.277l-4.1-4.1 4.738-4.738 4.1 4.1z" fill="#76655d"/><path d="M33 85.7l9.2 9.2c.9.9 2.3.9 3.1 0l49.4-49.4-12.2-12.3L33 82.6c-.8.9-.8 2.3 0 3.1z" fill="#ffb202"/><path d="M39.7 92.4l2.6 2.6c.9.9 2.3.9 3.1 0l49.4-49.4-4.1-4.1z" fill="#ef901e"/><path d="M33 85.7l2.6 2.6 51-51-4.1-4.1L33 82.6c-.8.9-.8 2.3 0 3.1z" fill="#ffd454"/><path d="M32.9 85.6l2.7 2.7c1.5-1.5 3.6-1.7 4.7-.6s.9 3.2-.6 4.7l2.7 2.7c.7.7.2 2-.8 2.5l-12.8 4.2-2.7-2.7 4.2-12.8c.6-1 1.9-1.4 2.6-.7z" fill="#f1d2ae"/><path d="M34.1 81.5c1.1 1.1 2.9 5.3 1.5 6.8L27 100.1l-.9-.9 4.7-13.7c.4-.9 1-1.7 1.8-2.4l.3-.3c.4-.5.8-.9 1.2-1.3z" fill="#ffe6cb"/><path d="M46.5 93.9c-1.1-1.1-5.3-2.9-6.8-1.5L27.9 101l.9.9 13.7-4.7c.9-.4 1.7-1 2.4-1.8l.3-.3c.5-.4.9-.8 1.3-1.2z" fill="#dfb98a"/><path d="M26.1 99.2l2.7 2.7-4.6 2.7c-.3.2-.6.3-.8.1a.53.53 0 0 1 .1-.8l2.6-4.7z" fill="#343633"/></g></svg>