<svg xmlns="http://www.w3.org/2000/svg" xmlns:xlink="http://www.w3.org/1999/xlink" width="48" height="48"><g transform="scale(.375)"><circle r="64" cy="64" cx="64" fill="#485e7f"/><defs><circle r="64" id="A" cy="64" cx="64"/><path id="B" d="M38.3 58.1h-7.9a.68.68 0 0 1-.7-.7v-4.5a.68.68 0 0 1 .7-.7h7.9a.68.68 0 0 1 .7.7v4.5c.1.4-.2.7-.7.7z"/></defs><clipPath id="C"><use xlink:href="#A"/></clipPath><path clip-path="url(#C)" d="M53.3 128H128V73.2l-17.8-17.8-4.7 9.4-2.2.6-43.1-43.1-8 27H20.3l-2 1.9 6.8 6.9-4.4 37.3z" fill="#3a4d6e"/><path d="M82.7 55.3l10.7 10.8-11.7 7.3z" fill="#32425e"/><g fill="#f2faff"><path d="M48.5 50.2H20.3v44.4c0 .6.5 1.2 1.2 1.2h27z"/><path d="M50.3 46.6h-30c-1.5 0-2.8 1.2-2.8 2.8 0 1.5 1.2 2.8 2.8 2.8h29.9c1.5 0 2.8-1.2 2.8-2.8s-1.2-2.8-2.7-2.8z"/></g><path d="M58.6 21.6h-7.9a2.26 2.26 0 0 0-2.3 2.3v71.8h12.5V23.9c0-1.2-1-2.3-2.3-2.3z" fill="#abcfd7"/><path d="M108.7 55.1L83 69.9V56.1a1.16 1.16 0 0 0-1.7-1L56 69.6c-.7.4-1.2 1.2-1.2 2v24.1h54.4c.6 0 1.2-.5 1.2-1.2V56.1c0-.9-.9-1.4-1.7-1zm-47.8-30H48.4v-1.2a2.26 2.26 0 0 1 2.3-2.3h7.9a2.26 2.26 0 0 1 2.3 2.3zm-12.5 3.5h12.5v3.5H48.4zm0 7h12.5v3.5H48.4z" fill="#f2faff"/><path d="M48.4 25.1h12.5v3.5H48.4zm0 7h12.5v3.5H48.4z" fill="#f15a24"/><defs><path id="D" d="M48.5 50.2H20.3v44.4c0 .6.5 1.2 1.2 1.2h27z"/></defs><clipPath id="E"><use xlink:href="#D"/></clipPath><path clip-path="url(#E)" d="M36.8 97.1l.6-9.3 8.1 8.1h3.3L30 77.2l5.5-4.1-5.5-5.5 5.5-4.1-5.5-5.6 8.9-5.5 10.1 10v34.7z" opacity=".6" fill="#c2d7de"/><g fill="#009bd9"><use xlink:href="#B"/><path d="M38.3 67.8h-7.9a.68.68 0 0 1-.7-.7v-4.5a.68.68 0 0 1 .7-.7h7.9a.68.68 0 0 1 .7.7V67c.1.4-.2.8-.7.8z"/><use xlink:href="#B" y="19.3"/></g><path d="M37.8 95.7H31v-7c0-.6.5-1.2 1.2-1.2h4.4c.6 0 1.2.5 1.2 1.2z" fill="#444"/><defs><path id="F" d="M108.7 55.1L83 69.9V56.1a1.16 1.16 0 0 0-1.7-1L56 69.6c-.7.4-1.2 1.2-1.2 2v24.1h54.4c.6 0 1.2-.5 1.2-1.2V56.1c0-.9-.9-1.4-1.7-1z"/></defs><clipPath id="G"><use xlink:href="#F"/></clipPath><path clip-path="url(#G)" d="M75.7 96.5H111v-8.9l-9.8-9.9-9.2 1.9 4.6 4.6h-2.9l-6.4-6.5-9.1 1.9 4.6 4.6h-2.9l-6.6-6.5-9.1 1.9 3.8 3.8-3.8 1.6z" opacity=".6" fill="#c2d7de"/><g fill="#3b9c00"><path d="M73 79.7h-8.5c-.2 0-.5-.2-.5-.5V78c0-.2.2-.5.5-.5H73c.2 0 .5.2.5.5v1.3c0 .2-.2.4-.5.4zm13.9 0h-8.5c-.2 0-.5-.2-.5-.5V78c0-.2.2-.5.5-.5h8.5c.2 0 .5.2.5.5v1.3c0 .2-.2.4-.5.4z"/><path d="M100.8 79.7h-8.5c-.2 0-.5-.2-.5-.5V78c0-.2.2-.5.5-.5h8.5c.2 0 .5.2.5.5v1.3c0 .2-.3.4-.5.4zM73 85.2h-8.5c-.2 0-.5-.2-.5-.5v-1.3c0-.2.2-.5.5-.5H73c.2 0 .5.2.5.5v1.3a.47.47 0 0 1-.5.5zm13.9 0h-8.5c-.2 0-.5-.2-.5-.5v-1.3c0-.2.2-.5.5-.5h8.5c.2 0 .5.2.5.5v1.3a.47.47 0 0 1-.5.5zm13.9 0h-8.5c-.2 0-.5-.2-.5-.5v-1.3c0-.2.2-.5.5-.5h8.5c.2 0 .5.2.5.5v1.3c0 .3-.3.5-.5.5z"/></g></g></svg>