<svg xmlns="http://www.w3.org/2000/svg" width="48" height="48"><circle cx="24" cy="24" r="23.937" fill="#9773b1" stroke="#fff" stroke-width=".125"/><path d="M3.332 30.494L20.33 47.492c8.387 1.428 16.11-2 20.555-6.607 4.408-4.568 7.384-11.025 6.946-17.732L36.367 11.52l-9.233 3.408-8.67-7.248-7.51 18.07z" fill="#75518f"/><g transform="matrix(.087588 0 0 .087588 -77.376633 -227.503708)"><path d="M1387.9 2974.6c0 24.1-38 29.1-133.2 29.1-95.3 0-133.2-6.6-133.2-29.1s7-100.6 133.2-100.6 133.2 76.6 133.2 100.6z" fill="#f05525"/><path d="M1254.7 2884.3c13.9 0 26.6-2.9 37-7.7v-57.4h-74.1v57.4c10.5 4.8 23.2 7.7 37.1 7.7z" fill="#fdcd99"/><path d="M1291.7 2819.2h-74.1v25.7c10.2 12.1 23 20.2 37 20.2s26.8-8.1 37-20.2v-25.7z" fill="#daa95f"/><path d="M1314.6 2774.3c0 37-26.9 82.1-60 82.1s-60-45.2-60-82.1c0-37 26.9-66.9 60-66.9 33.2-.1 60 29.9 60 66.9z" fill="#fdcd99"/><path d="M1316.6 2769.6c-.1-3.1-.6-6.2-1.3-9.3-1.6-7.1-4.2-14-7.8-20.4-6.8-12-17.1-22.1-29.8-27.7a56.89 56.89 0 0 0-23-4.9c-13.5 0-26.6 5-37 13.6-10.8 8.9-18.5 21.3-22.4 34.8-2.6 9-3.3 17.8-2.1 27.1l1.8 15.4 5.4 45.7c.5 4.4 4.3 7.8 8.8 7.8h8.3v-15.4c-13.6-16.1-22.6-39.7-23-60.7 17.5-3.7 32-15.6 39.2-31.5 16.1 16.9 38.8 27.5 64.1 27.5 5.7 0 11.2-.5 16.6-1.6.1 1.4.1 2.8.1 4.2 0 21.4-9 45.5-23 62.1v15.4h8.3c4.5 0 8.3-3.4 8.8-7.9l6.2-56.7 1.7-14.9c.1-.8.1-1.7.1-2.6z" fill="#673534"/><path d="M1188.6 2937.8c0 24.3-38.3 29.3-134.4 29.3s-134.4-6.7-134.4-29.3 7-101.5 134.4-101.5c127.4.1 134.4 77.3 134.4 101.5z" fill="#17668a"/><path d="M1054.2 2967.2l52-125.5c-14.6-3.4-31.8-5.3-52-5.3s-37.4 2-52 5.4z" fill="#cfcccb"/><path d="M1054.3 2846.7c13.9 0 26.9-2.9 37.3-7.8V2781H1017v57.9c10.5 4.9 23.3 7.8 37.3 7.8z" fill="#fece9b"/><path d="M1091.6 2781.1H1017v25.9c10.3 12.2 23.2 20.4 37.3 20.4s27.1-8.2 37.3-20.4z" fill="#dcab62"/><path d="M1114.7 2735.8c0 37.3-27.1 82.8-60.5 82.8s-60.5-45.5-60.5-82.8 27.1-67.5 60.5-67.5c33.5 0 60.5 30.2 60.5 67.5z" fill="#fece9b"/><path d="M1054.2 2668.3c-33.4 0-60.5 30.3-60.5 67.5 0 6.4.8 13.1 2.3 19.8 7.4 1.2 17 1.1 17.4-7.2.6-13.6-7.1-51.3 8.3-51.3s18.4 4.9 32.5 4.9 17.2-4.9 32.5-4.9c15.4 0 7.6 37.7 8.3 51.3.4 8.3 9.9 8.4 17.3 7.2 1.5-6.7 2.3-13.3 2.3-19.8.1-37.3-26.9-67.5-60.4-67.5z" fill="#999"/><path d="M1091.5 2926l-5.8-11.5c-1.3-2.6.6-5.8 3.6-5.8h14.3c3 0 4.9 3.1 3.6 5.8l-5.8 11.5c-.3.6-.4 1.2-.4 1.8v7.2c0 .6.1 1.2.4 1.8l5.8 11.5c1.3 2.6-.6 5.8-3.6 5.8h-14.3c-3 0-4.9-3.1-3.6-5.8l5.8-11.5c.3-.6.4-1.2.4-1.8v-7.2c0-.7-.2-1.3-.4-1.8zm129 0l-5.8-11.5c-1.3-2.598.6-5.798 3.6-5.798h14.3c3 0 4.9 3.1 3.6 5.798l-5.8 11.5c-.3.602-.4 1.198-.4 1.8v7.197c0 .602.1 1.204.4 1.8l5.8 11.5c1.3 2.604-.6 5.803-3.6 5.803h-14.3c-3 0-4.9-3.105-3.6-5.803l5.8-11.5c.3-.596.4-1.198.4-1.8v-7.197c0-.702-.1-1.3-.4-1.8z" fill="#efefef"/><path d="M1202.6 2903.9c0-10.4-17-17.3-17-24.2-3.4 6.9-6.8 24.2-30.6 24.2-11.2 0-30.9 25-34 32V2897s0-41.5 40.8-41.5 40.8 48.4 40.8 48.4" fill="#7b7b7b"/><path d="M1254.7 3031.5c0 16.8-26.5 20.3-92.9 20.3s-92.9-4.6-92.9-20.3 4.9-70.2 92.9-70.2c88 .1 92.9 53.5 92.9 70.2z" fill="#b2b3b3"/><path d="M1161.8 2968.5c9.7 0 18.5-2 25.8-5.4v-40H1136v40c7.2 3.4 16.1 5.4 25.8 5.4z" fill="#fdcd99"/><path d="M1187.6 2923.2H1136v17.9c7.1 8.4 16.1 14.1 25.8 14.1 9.8 0 18.7-5.6 25.8-14.1z" fill="#daa95f"/><path d="M1203.6 2891.8c0 25.8-18.7 57.3-41.8 57.3s-41.8-31.5-41.8-57.3 18.7-46.7 41.8-46.7 41.8 21 41.8 46.7z" fill="#fdcd99"/><path d="M1203.1 2906.9l.7-6.1 1.2-10.4v-1.8c-.1-2.2-.4-4.3-.9-6.5-1.1-5-2.9-9.8-5.4-14.2-4.7-8.4-11.9-15.4-20.8-19.3-5-2.2-10.5-3.4-16-3.4-9.4 0-18.6 3.5-25.8 9.5-7.5 6.2-12.9 14.9-15.6 24.2-1.8 6.3-2.3 12.4-1.5 18.9l1.2 10c-4.7 13.1-13.8 20.4-29.2 21.4 0 0 16.7 16.6 33.3 16.6h24.7c-13.6-7-24.1-24.3-27.7-41.6v.1c-.8-3.9-1.3-7.8-1.4-11.5 0 0 11.4-12.5 42.6-12.5s41 8.7 41 8.7c.1 1 .1 1.9.1 2.9 0 14.9-6.3 31.7-16 43.3-3.8 4.5-8.2 8.2-13 10.7h24.7c16.7 0 33.3-16.6 33.3-16.6-15.8-1-24.9-8.7-29.5-22.4z" fill="#673534"/></g></svg>