<svg xmlns="http://www.w3.org/2000/svg" width="48" height="48"><path d="M24 0C10.745 0 0 10.745 0 24s10.745 24 24 24 24-10.746 24-24S37.255 0 24 0z" fill="#efc75e"/><path d="M39.36 16.32s.054-.012 8.62 8.585c-.345 6.156-2.344 11.203-6.083 15.164-4.59 4.862-10.532 7.677-16.764 7.875L9.6 32.16V22.71l-.96-1.432z" fill="#caa644"/><path d="M9.6 16.8L23.99 24l14.41-7.2v15.36l-14.452 7.2L9.6 32.16z" fill="#db5449"/><path d="M9.6 32.16l14.348 7.2.04-.02V24L9.6 16.8z" fill="#d05045"/><path d="M9.6 18.23v4.48l14.344 7.048L38.4 22.708v-4.48l-14.412 7.05z" fill="#c54b42"/><path d="M9.6 18.23v4.48l14.344 7.048.044-4.48z" fill="#bb483e"/><path d="M8.64 16.3L24 8.647 39.36 16.3l-.01 1.012L24 24.952l-15.354-7.64z" fill="#eb6258"/><path d="M8.64 16.32l15.348 7.52 15.372-7.52v4.96L23.944 28.8 8.64 21.28z" fill="#e2574c"/><path d="M23.99 23.84L8.64 16.32v4.96l15.304 7.52.045-.022z" fill="#d65348"/><path d="M29.76 21.016v15.45l3.84-1.914V19.138z" fill="#efefef"/><path d="M14.4 19.142V34.57l3.84 1.926V21.023z" fill="#e8e8e8"/><path d="M28.39 16.277c3.103-.8 4.728-2.404 4.728-3.97a2.54 2.54 0 0 0-.312-1.255c-.513-.913-1.58-1.458-2.85-1.458-2.897 0-4.95 2.718-5.958 4.434-1-1.714-3.062-4.417-5.953-4.417-1.833 0-3.163 1.134-3.163 2.673 0 1.96 1.556 3.427 4.66 4.1L14.4 19.142l3.84 1.88 5.83-3.252 5.69 3.246 3.84-1.878zm.91-4.275c.542 0 .935.303.935.72 0 .326-.24.835-.913 1.3-.513.347-1.415.75-2.917.874.56-1.183 1.592-2.883 2.896-2.883zm-11.537.72c0-.417.393-.72.934-.72 1.304 0 2.336 1.7 2.897 2.883-1.502-.126-2.404-.527-2.918-.874-.673-.454-.913-.963-.913-1.3z" fill="#fff"/></svg>