<svg xmlns="http://www.w3.org/2000/svg" width="48" height="48"><g transform="scale(.375)"><circle r="64" cy="64" cx="64" fill="#f9d8a3"/><path d="M96.996 40.078l-35.598 50.43-2.39 7.357L85.64 124.24c22.754-8.175 39.537-28.867 42.035-53.777z" fill="#e4bc84"/><path d="M81.22 33.613c-7.053 0-13.295 3.407-17.218 8.648-3.928-5.24-10.167-8.648-17.22-8.648-11.888 0-21.523 9.636-21.523 21.524S47.063 85.45 64 102.387c17.626-17.63 38.74-35.362 38.74-47.25S93.106 33.613 81.22 33.613z" fill="#e11f26"/><path d="M81.22 33.613c-3.327 0-6.47.765-9.277 2.117.95.866 1.857 1.795 2.7 2.81 9.4 11.306 8.255 23.9 2.84 36.74L66.2 100.204c17.14-16.9 36.543-33.67 36.543-45.066-.001-11.89-9.637-21.525-21.524-21.525z" fill="#d12027"/></g></svg>