<svg xmlns="http://www.w3.org/2000/svg" height="48" width="48"><style><![CDATA[.B{fill-rule:evenodd}.C{clip-rule:evenodd}]]></style><g transform="scale(.09375)"><path d="M512 256.002l-.277 11.814-.67 10.63-.354 3.662C499.754 390.3 421.416 478.6 318.27 504.355c-17.215 4.334-35.13 6.893-53.57 7.484L256 512c-5.554 0-11.107-.2-16.584-.555h-.077c-11.262-.707-22.33-2.17-33.123-4.292-6.577-1.3-13.077-2.84-19.454-4.646C79.008 472.302 0 373.364 0 256.002 0 114.6 114.646 0 256 0c128.823 0 235.4 95.113 253.323 218.94l1.377 10.75.315 3.585c.67 7.48.985 15.042.985 22.727z" fill="#27ad60"/><g class="B C"><path d="M512 256.002l-.277 11.814-.67 10.63-.354 3.662C499.754 390.3 421.416 478.6 318.27 504.355c-17.215 4.334-35.13 6.893-53.57 7.484L256 512c-5.554 0-11.107-.2-16.584-.555h-.077c-11.262-.707-22.33-2.17-33.123-4.292-6.577-1.3-13.077-2.84-19.454-4.646L82.47 405.893v-65.338L95.9 321.77l2.208 2.716V224.255l-.354.196-11.815-11.815v-34.62l165.454-97.594 77.708 45.84v-24.416h-8.86V83.1h60.177l128.907 135.84 1.377 10.75.315 3.585c.668 7.48.984 15.042.984 22.727z" opacity=".2"/><path d="M249.24 113.783l-151.132 91.63v192.342h50.376V237.47h91.592v160.284H400.36V200.833zm105.322 192.38h-68.685v-68.692h68.685z" fill="#ebd1ae"/><path d="M150.416 228.975h87.723v166.827h-87.723z" fill="#66493b"/></g><path d="M148.477 397.74h91.6v-170.7h-91.6zm3.877-166.83H236.2v162.954h-83.846z" fill="#30231c"/><path d="M372.277 86.53v84.88l-43.17-13.14V86.53z" fill="#ebd1ae" class="B C"/><path d="M98.108 225.255L267.43 128.97l132.384 77.73 5.116-12.16-144.493-85.247-162.33 96.12z" opacity=".13"/><path d="M85.946 212.656l165.57-97.17 164.762 97.17v-34.95l-164.87-97.27-165.462 97.582z" fill="#bd2508"/><g class="B C"><g fill="#fff"><path d="M95.916 321.787l15.33 18.77V405.9H82.46v-65.354zm44.415 0l15.33 18.77v65.354h-28.777v-65.354zm44.43 0l15.316 18.77v65.354H171.3v-65.354zm44.416 0l15.33 18.77v65.354h-28.784v-65.354zm44.415 0l15.33 18.77v65.354h-28.777v-65.354zm44.423 0l15.323 18.77v65.354H304.56v-65.354zm44.423 0l15.323 18.77v65.354h-28.776v-65.354zm44.416 0l15.33 18.77v65.354h-28.777v-65.354z"/><path d="M85.946 363.848h321.846v16.415H85.946z"/></g><path d="M320.215 83.092h60.208v18.768h-60.208z" fill="#bd2508"/><path d="M277.954 229.54h84.516v84.522h-84.516z" fill="#c4eaff"/></g><g fill="#66493b"><path d="M360.04 231.983v79.635H280.4v-79.635zm4.884-4.885h-89.408v89.404h89.408z"/><g class="B C"><path d="M317.384 231.317h5.662v82.716h-5.662z"/><path d="M278.854 269.848h82.723v5.654h-82.723z"/></g></g></g><path d="M21.46 28.984c-.35.004-.35.83 0 .84s.35-.844 0-.84z" fill="#ebd11e"/></svg>