<svg xmlns="http://www.w3.org/2000/svg" height="48" width="48"><path d="M24 0c13.254 0 24 10.746 24 24S37.254 48 24 48 0 37.254 0 24 10.744 0 24 0z" clip-rule="evenodd" fill="#ebebeb" fill-rule="evenodd"/><path d="M12.36 27.967l18.855 18.855c3.47-.893 7.463-3.498 10.27-6.393 2.535-2.616 4.75-6.773 5.483-9.454l-18.943-18.57z" fill="#c4c4c4"/><path d="M13.498 19.504h6.023V13.5a1.5 1.5 0 0 1 1.499-1.5h5.994a1.5 1.5 0 0 1 1.497 1.5v6.004h5.99a1.5 1.5 0 0 1 1.5 1.5v6a1.5 1.5 0 0 1-1.5 1.503H28.5v5.988a1.5 1.5 0 0 1-1.497 1.5H21.02a1.5 1.5 0 0 1-1.499-1.5v-5.988h-6.023a1.5 1.5 0 0 1-1.502-1.503v-6a1.5 1.5 0 0 1 1.502-1.499z" fill="#e2574c"/></svg>