<svg xmlns="http://www.w3.org/2000/svg" width="48" height="48"><circle cx="24" cy="24" r="23.937" fill="#67c680" stroke="#fff" stroke-width=".125"/><path d="M11.237 35.746c.05.508 0 0 12.076 12.076 5.74.175 7.882-1.002 11.517-2.568 4.767-2.053 8.528-6.535 10.83-11.186 1.962-3.964 2.542-8.506 1.983-13.12l-10.017-9.915z" fill="#5a986b"/><g fill="#d0d0d0"><path d="M18.492 32.908V17.093H12.27c-1.145 0-2.074.93-2.074 2.074v14h.013a4.16 4.16 0 0 0 4.135 3.889H15.9s2.593-.324 2.593-4.148z"/><path d="M18.492 32.908V17.093H12.27c-1.145 0-2.074.93-2.074 2.074v14h.013a4.16 4.16 0 0 0 4.135 3.889H15.9s2.593-.324 2.593-4.148z"/></g><path d="M12.27 17.093c1.145 0 1.556.93 1.556 2.074l-1.037 11.926h5.704v-14z" opacity=".1"/><path d="M12.27 17.093c1.145 0 2.074.93 2.074 2.074v10.37h4.148V17.093z" fill="#989898"/><path d="M18.75 17.093h-2.074v16.852c0 1.716-.618 3.11-2.333 3.11h4.407z" opacity=".1"/><path d="M36.122 10.353h-14.26l-4.407 4.407v19.185c0 1.716-1.396 3.11-3.11 3.11-.088 0-.087 0 0 0h19.704a4.16 4.16 0 0 0 4.148-4.148v-20.48a2.08 2.08 0 0 0-2.074-2.074z" fill="#ededed"/><path d="M34.048 36.02h-17.39a3.1 3.1 0 0 1-2.312 1.037h19.704a4.16 4.16 0 0 0 4.148-4.148V31.87a4.16 4.16 0 0 1-4.148 4.148z" opacity=".1"/><path d="M17.455 14.76h2.425c1.14 0 1.982-.84 1.982-1.982v-2.425z" fill="#989898"/><path d="M24.455 20.982h-1.44l-1.42-2.852h-.024c.034.518.033.842.033 1.07v1.783h-1.037v-3.89h1.496l1.414 2.592h.016l-.074-.863v-1.73h1.037zm3.11 0h-2.333v-3.89h2.333v.778H26.27v.777h1.296v.778H26.27v.778h1.296zm4.85 0h-1.24l-.372-1.708c-.018-.07-.046-.22-.084-.43l-.083-.533a7.54 7.54 0 0 1-.069.428l-.094.486-.387 1.758h-1.242l-.962-3.89h1.013l.423 1.935.197 1.02c.023-.18.064-.43.124-.74l.166-.758.343-1.458h.973l.332 1.456.173.81.117.688c.023-.197.086-.525.19-1.01l.43-1.94h1.013zm4-1.21c0 .24-.06.455-.184.642a1.2 1.2 0 0 1-.529.436c-.23.104-.5.156-.81.156-.26 0-.43-.018-.605-.055s-.5-.1-.5-.2v-.936c0 .103.362.183.578.24s.39.086.572.086c.156 0 .26-.027.33-.08s.103-.124.103-.21a.23.23 0 0 0-.047-.139c-.03-.04-.078-.08-.142-.12a5.77 5.77 0 0 0-.518-.25c-.254-.115-.444-.227-.57-.335s-.22-.232-.282-.373-.092-.306-.092-.497c0-.358.13-.637.39-.837s.618-.3 1.074-.3c.402 0 .813.093 1.23.28l-.322.81c-.363-.167-.677-.25-.94-.25-.137 0-.236.024-.298.072s-.093.107-.093.178.04.145.118.205.293.17.642.33c.335.15.568.312.698.485s.196.4.196.652z" opacity=".1"/><path d="M23.937 20.463h-1.44l-1.42-2.852h-.024c.034.52.033.842.033 1.07v1.783h-1.037v-3.89h1.496l1.414 2.592h.016l-.074-.863v-1.73h1.037zm3.11 0h-2.333v-3.89h2.333v.778H25.75v.778h1.296v.777H25.75v.778h1.296zm4.85 0h-1.24l-.372-1.708c-.018-.07-.046-.22-.084-.43l-.083-.533a7.54 7.54 0 0 1-.069.428l-.094.486-.387 1.758h-1.242l-.962-3.89h1.013l.423 1.935.197 1.02c.023-.18.064-.43.124-.74l.166-.758.343-1.458h.973l.332 1.456.173.81.117.688c.023-.197.086-.525.19-1.01l.43-1.94h1.013zm4-1.21c0 .24-.06.455-.184.642a1.2 1.2 0 0 1-.529.436c-.23.104-.5.156-.81.156-.26 0-.43-.018-.605-.055s-.5-.1-.5-.2v-.936c0 .103.362.183.578.24s.39.086.572.086c.156 0 .26-.027.33-.08s.103-.124.103-.208c0-.053-.018-.1-.047-.14a.52.52 0 0 0-.142-.121c-.065-.04-.238-.124-.518-.25-.254-.115-.444-.227-.57-.335a1.03 1.03 0 0 1-.282-.372 1.24 1.24 0 0 1-.092-.497c0-.358.13-.637.39-.837s.618-.3 1.074-.3c.402 0 .813.093 1.23.28l-.322.81c-.363-.167-.677-.25-.94-.25-.137 0-.236.024-.298.072s-.093.107-.093.178c0 .077.04.145.118.205s.293.17.642.33c.335.15.568.313.698.485s.196.4.196.652z" fill="#dd5345"/><path d="M27.307 23.834h-5.963a.52.52 0 0 1-.519-.519.52.52 0 0 1 .519-.519h5.963a.52.52 0 0 1 .519.519.52.52 0 0 1-.519.519zm7.52-8.815h-5.963a.52.52 0 0 1-.519-.519.52.52 0 0 1 .519-.519h5.963a.52.52 0 0 1 .519.519.52.52 0 0 1-.519.519zm0-2.074h-5.963a.52.52 0 0 1-.519-.519.52.52 0 0 1 .519-.519h5.963a.52.52 0 0 1 .519.519.52.52 0 0 1-.519.519zm-7.52 13.48h-5.963a.52.52 0 0 1-.519-.519.52.52 0 0 1 .519-.519h5.963a.52.52 0 0 1 .519.519.52.52 0 0 1-.519.519zm0 2.593h-5.963a.52.52 0 0 1-.519-.519.52.52 0 0 1 .519-.519h5.963a.52.52 0 0 1 .519.519.52.52 0 0 1-.519.519zm7.52 2.593h-13.48a.52.52 0 0 1-.519-.519.52.52 0 0 1 .519-.519h13.48a.52.52 0 0 1 .519.519.52.52 0 0 1-.519.519zm0 2.592h-13.48a.52.52 0 0 1-.519-.519.52.52 0 0 1 .519-.519h13.48a.52.52 0 0 1 .519.519.52.52 0 0 1-.519.519z" opacity=".1"/><path d="M35.344 27.982a1.04 1.04 0 0 1-1.037 1.037h-4.148a1.04 1.04 0 0 1-1.037-1.037v-4.148a1.04 1.04 0 0 1 1.037-1.037h4.148a1.04 1.04 0 0 1 1.037 1.037z" opacity=".2"/></svg>