<svg xmlns="http://www.w3.org/2000/svg" xmlns:xlink="http://www.w3.org/1999/xlink" width="48" height="48"><g transform="scale(.375)"><circle r="64" cy="64" cx="64" fill="#387c9f"/><defs><circle r="64" id="A" cy="64" cx="64"/><path id="B" d="M81 66c-2.2 0-4-1.8-4-4V29.6c0-2.2 1.8-4 4-4s4 1.8 4 4V62c0 2.2-1.8 4-4 4z"/></defs><clipPath id="C"><use xlink:href="#A"/></clipPath><path clip-path="url(#C)" d="M128 70.2V128H64l-1-52.5-15.4-19.3L50 27l29.6 29.5 4.3-29.7z" fill="#006a96"/><g fill="#ffca00"><path d="M58.7 20.8h5V10z"/><path d="M68.7 20.8h-5v10.8z"/></g><use xlink:href="#B" fill="#fafae8"/><path d="M64 128h-3.5V96.1c0-1.9 1.6-3.5 3.5-3.5s3.5 1.6 3.5 3.5V128H64z" fill="#41bfed"/><use xlink:href="#B" x="-34" fill="#fafae8"/><defs><path id="D" d="M64 119.5h-3.5v-18.2c0-1.9 1.6-3.5 3.5-3.5s3.5 1.6 3.5 3.5v18.2H64z"/></defs><clipPath id="E"><use xlink:href="#D"/></clipPath><path clip-path="url(#E)" d="M60.5 111.4l8.5 8.5v-10.2z" fill="#009ac9"/><path d="M64 112.3c-4.7 0-8.6-3.9-8.6-8.6V91.9c0-4.7 3.9-8.6 8.6-8.6s8.6 3.9 8.6 8.6v11.8c0 4.7-3.9 8.6-8.6 8.6z" fill="#324961"/><defs><path id="F" d="M64 112.3c-4.7 0-8.6-3.9-8.6-8.6V91.9c0-4.7 3.9-8.6 8.6-8.6s8.6 3.9 8.6 8.6v11.8c0 4.7-3.9 8.6-8.6 8.6z"/></defs><clipPath id="G"><use xlink:href="#F"/></clipPath><path clip-path="url(#G)" d="M75.8 95.5l-20.4 1.9v.8l14.1 13.9 6.3-6.4z" fill="#273a4d"/><path d="M89 51.5H39c-2.7 0-5 2.2-5 5v13c0 16.6 13.4 30 30 30s30-13.4 30-30v-13c0-2.8-2.3-5-5-5z" fill="#fcc00e"/><path d="M38.6 70V56.6c0-2.8 2.2-5.1 5-5.1H39c-2.7 0-5 2.2-5 5v13C34 84 44.4 96.1 58.1 98.8 46.7 94.5 38.6 83.2 38.6 70z" fill="#ffdb62" opacity=".76"/><path d="M89.5 70V56.6c0-2.8-2.2-5.1-5-5.1H89c2.7 0 5 2.2 5 5v13C94 84 83.7 96.1 69.9 98.8 81.3 94.5 89.5 83.2 89.5 70z" fill="#f6a200" opacity=".82"/><defs><path id="H" d="M89 51.5H39c-2.7 0-5 2.2-5 5v13c0 16.6 13.4 30 30 30s30-13.4 30-30v-13c0-2.8-2.3-5-5-5z"/></defs><clipPath id="I"><use xlink:href="#H"/></clipPath><path clip-path="url(#I)" d="M66.4 100h29.7V82.5L80.4 66.7l-32.7 3.1 10.1 10.1-10.1 1.4z" opacity=".76" fill="#f6a200"/><path d="M78.9 81.9H49.1c-1.1 0-2-.9-2-2v-.4c0-1.1.9-2 2-2h29.8c1.1 0 2 .9 2 2v.4c0 1.1-.9 2-2 2zm0-11.5H49.1c-1.1 0-2-.9-2-2V68c0-1.1.9-2 2-2h29.8c1.1 0 2 .9 2 2v.4c0 1.1-.9 2-2 2z" fill="#fff9c7"/></g></svg>