<svg xmlns="http://www.w3.org/2000/svg" width="48" height="48"><circle r="24" cy="24" cx="24" fill="#6ebec5"/><path d="M6.882 30.745l17.25 17.252c11.017-.06 20.272-7.543 23.027-17.702l-5.866-5.866z" fill="#5ea3a5"/><g transform="scale(.1875)"><path d="M103.932 86.252c-5.436 5.443-3.91 18.964-3.91 18.964l18.08-7.177c.001 0-10.588-15.375-14.17-11.787z" fill="#7fdfe2"/><path d="M40.085 143.312c-1.407-5.536 3.258-46.127 9.12-45.785s15.31 18.11 31.924 12.643 32.25-17.768 36.486-14.35 40.336 28.977 61.182 27.95 42.732-1.985 42.083 10.66c-.654 12.64-8.47 15.375-22.152 21.864-5.257 2.496-28.17 8.043-52.608 6.15-39.17-3.032-85.283-15.242-91.7-15.032-10.427.34-13.033 1.027-14.335-4.1z" fill="#3e6375"/><path d="M153.176 165.02c-.76 2.87.226 5.314 2.818 5.63s23.37-.93 25.87-1.988 2.74-5.835.472-6.132-28.756.97-29.16 2.49zm-32.303-.692c0 5.02-50.493 6.487-53.913 6.487s-.978-7.174-4.887-5.466-1.466 3.76-6.842 4.44c-5.375.688-17.6-2.39-18.24-6.148s-1.305-11.273 2.116-11.273 53.1 1.023 65.477 5.807 16.29 3.59 16.29 6.154zm39.77-34.17c-.675 0-1.33-.4-1.7-1.12-.562-1.09-.26-2.505.678-3.16 1.124-.784 4.284-3.107 5.416-4.424.77-.898 2.027-.898 2.8 0s.772 2.357 0 3.258c-1.68 1.953-5.724 4.8-6.18 5.117a1.76 1.76 0 0 1-1.015.331zm-6.966-4a2.34 2.34 0 0 1-1.136-.93c-.698-1.1-.416-2.583.632-3.318.3-.21.36-.638.372-.875.028-.703-.308-1.766-1.34-2.633-.983-.826-1.14-2.333-.352-3.362s2.222-1.195 3.205-.37c2.004 1.685 3.144 4.143 3.04 6.576-.08 1.94-.954 3.635-2.394 4.643-.62.435-1.37.508-2.027.268zm-8.86-2.164c-.67 0-1.333-.305-1.784-.896a2.48 2.48 0 0 1 .248-3.266c.5-1.003.168-4.992-1.22-6.445-.89-.935-.89-2.448 0-3.383s2.336-.935 3.225 0c2.097 2.2 2.896 6.17 2.752 8.924-.1 2.078-.733 3.646-1.8 4.544-.42.352-.923.52-1.42.52zm-11.402-7.685c-.026 0-.056 0-.084-.003-1.257-.047-2.24-1.154-2.196-2.474.056-1.706-.002-4.96-.4-6.435-.347-1.27.354-2.59 1.563-2.956s2.474.372 2.82 1.643c.73 2.68.595 7.39.575 7.92-.045 1.29-1.053 2.305-2.277 2.305zm-11.402-1.536a2.19 2.19 0 0 1-.721-.125c-1.196-.417-1.84-1.77-1.443-3.023.175-.552.488-1.294.924-2.326 1.894-4.48 2.824-7.41 2.772-8.74-1.693.16-5.733 2.052-8.008 3.117-2.403 1.128-4.48 2.1-6.023 2.487-1.223.307-2.454-.482-2.75-1.768s.46-2.576 1.685-2.883c1.135-.286 3.217-1.26 5.23-2.203 5.962-2.792 11.595-5.43 13.72-1.638 1.73 3.083-.176 8.177-2.458 13.57l-.765 1.896c-.32 1-1.21 1.635-2.163 1.635z" fill="#f9d54b"/><path d="M95.3 162.104c6.02-.827 11.437-1.468 13.834-2.3l-4.55-1.63c-12.378-4.784-62.055-5.81-65.477-5.81-2.464 0-2.815 3.905-2.574 7.496 10.374 4.96 50.072 3.44 58.767 2.242z" fill="#7fdfe2"/><g fill="#f9d54b"><path d="M189.286 123.256c-5.864 15.164-26.137 29.114-38.194 30.79-13.143 1.817-24.547 4.94-24.547 4.94s-4.7-.814-9.364-2.668c.108.813.273 1.705.518 2.7l28.42 3.418c24.438 1.894 47.352-3.653 52.608-6.15 13.683-6.49 21.498-9.226 22.152-21.864.54-10.53-12.33-15.495-31.594-11.175z"/><path d="M189.77 161.59c-1.266 3.543 5.375 3.077 7.818 1.71s22.477-15.377 23.78-17.427.977-14.69-.977-12.984.49 9.738-10.1 16.572-20.033 10.762-20.522 12.128z"/></g><path d="M212.234 123.03c-2.29 4.248-2.438 11.593-9.272 15.327-7.818 4.27-26.71 14.01-24.105 17.596 1.918 2.642 24.048-3.975 36.96-9.287 3.04-2.912 4.77-6.582 5.064-12.235.26-5.1-3.135-10.45-8.646-11.4z" fill="#7fdfe2"/><path d="M38.13 143.312c1.726-3.016 34.206-5.125 43.98-2.393s61.893 17.084 76.876 16.4 54.238-10.59 59.777-14.7c-3.584 8.2-23.618 19.134-34.693 21.526s-37.137 4.44-51.796 3.757-38.764-12.643-51.143-12.643-42.674 1.71-43.325-1.024-.65-9.223.325-10.932z" fill="#ededed"/></g></svg>