<svg xmlns="http://www.w3.org/2000/svg" width="48" height="48"><circle cx="24" cy="24" r="23.937" fill="#f2f2f2" stroke="#fff" stroke-width=".125"/><path d="M12.876 38.397s.072.057 9.417 9.403c6.563.587 14.746-2.44 18.973-7.336 3.26-3.776 5.712-7.683 6.395-13.528l-7.797-8.42-2.65-2.65-10.672-5.817-1.857 1.72 3.493 3.493.905.886z" fill="#cfcfcf"/><g transform="matrix(.150001 0 0 .150001 9.864889 8.460056)"><path d="M0 18.902l22.952 43.033 20.08-20.08z" fill="#e6eaee"/><path d="M43.03 41.854l-6.316 6.313L0 18.902z" fill="#aab5bd"/><path d="M43.03 41.854l115.514 115.51-20.082 20.073L22.952 61.935z" fill="#ff7059"/><path d="M158.53 157.38l-6.316 6.312L36.733 48.147l6.316-6.312z" fill="#e64732"/><path d="M0 18.902l8.965 16.86 7.877-7.877z" fill="#34495e"/><path d="M0 18.902l14.377 11.445 2.465-2.46z" fill="#283a4d"/><path d="M170.193 169.008l-11.648-11.643-20.082 20.073 11.65 11.655z" fill="#e6eaee"/><path d="M170.195 169.005l-6.316 6.318-11.647-11.644 6.316-6.318z" fill="#aab5bd"/><path d="M176.506 175.33a14.26 14.26 0 0 1 4.181 10.046 14.23 14.23 0 0 1-4.181 10.023c-2.57 2.58-6.117 4.16-10.02 4.184-3.922-.016-7.486-1.604-10.057-4.18l-6.317-6.31 20.08-20.085z" fill="#34495e"/><path d="M163.877 175.326c2.57 2.575 4.164 6.136 4.168 10.054.007 3.902-1.6 7.448-4.16 10.023-1.084 1.08-2.347 1.942-3.724 2.617 1.91.98 4.03 1.55 6.326 1.563a14.21 14.21 0 0 0 10.02-4.184c2.573-2.567 4.16-6.12 4.18-10.023-.02-3.917-1.607-7.475-4.18-10.046l-6.313-6.322z" fill="#283a4d"/><path d="M160.638 18.857l20.082 20.08L20.077 199.58-.005 179.5z" fill="#ffd160"/><path d="M180.727 38.938L20.083 199.583l-6.316-6.314 160.64-160.643z" fill="#f7b64d"/><path d="M150.197 17.255l32.125 32.132-28.115 28.11L122.08 45.36zm40.965 40.963l8.832 8.83-28.114 28.115-8.832-8.83z" fill="#283a4d"/><path d="M182.327 58.222c-2.438-2.45-2.437-6.398 0-8.836l-28.113 28.1a6.25 6.25 0 0 1 8.84 8.836l28.113-28.114a6.26 6.26 0 0 1-8.84.004z" fill="#34495e"/><path d="M144.177 11.226A36.81 36.81 0 0 0 118.072.417c-10.188 0-19.42 4.13-26.104 10.81l-2.012 2.014 8.838 8.836a16.47 16.47 0 0 1 23.293-.004 16.47 16.47 0 0 1 0 23.29l28.114-28.1z" fill="#283a4d"/></g></svg>