<svg xmlns="http://www.w3.org/2000/svg" viewBox="0 0 48 47.954" height="48" width="48"><g transform="matrix(.083156 0 0 .083156 -.773438 -11.027019)"><circle r="288.339" cy="420.945" cx="297.64" fill="#dbae49"/><path d="M239.428 211.667c45.437 14.017 74.336 15.39 119.182 1.186l24.406 13.706-44.888 109.86H236.433L213.52 227.186z" fill="#f7f7f7"/><path d="M239.428 211.667c45.437 14.017 74.336 15.39 119.182 1.186l24.406 13.706-44.888 109.86H236.433L213.52 227.186z" opacity=".2"/><path d="M467.607 274.706c-3.354-8.52-9.13-15.873-16.715-20.998-7.678-5.186-15.575-8.762-15.575-8.762L358.6 212.852c-5.52 23.393-30.048 41.028-59.48 41.028-29.927 0-54.733-18.24-59.7-42.214l-79.465 33.28s-7.896 3.576-15.575 8.762c-7.6 5.125-13.36 12.478-16.714 20.998-5.902 15.003-14.92 47.273-14.6 104.1 0 0 42.688 19.147 62.778 13.812.535-.144 2.633-21.858 3.135-21.22 13.873 17.56 6.51 204.697 4.748 245.976-.18 4.283 3.242 7.84 7.53 7.84a1129.13 1129.13 0 0 0 212.767 0c4.288 0 7.71-3.558 7.524-7.84-1.763-41.28-9.124-228.416 4.748-245.976.503-.637 2.596 21.077 3.135 21.22 20.09 5.334 62.78-13.812 62.78-13.812.307-56.817-8.706-89.087-14.612-104.1z" fill="#f7f7f7"/><path d="M138.97 274.706c3.354-8.52 9.13-15.873 16.715-20.998 7.678-5.186 15.574-8.762 15.574-8.762l69.285-29.015a43.15 43.15 0 0 1-1.116-4.265l-79.465 33.28s-7.896 3.576-15.575 8.762c-7.6 5.125-13.36 12.478-16.714 20.998-5.902 15.003-14.92 47.273-14.6 104.1 0 0 38.66 17.333 59.71 14.398-21.197-2.205-48.413-14.398-48.413-14.398-.315-56.817 8.698-89.087 14.6-104.1z" opacity=".05" fill="#fff"/><g fill="#020202"><path d="M306.17 253.5l3.428-.386 2.022-.358 3-.567 2.098-.525 2.762-.74 2.103-.688 2.567-.902 2.07-.846 2.396-1.05 2.01-.995 2.236-1.195 1.926-1.135 2.083-1.334 1.823-1.27 1.92-1.46 1.712-1.4 1.753-1.577 1.59-1.52 1.58-1.684 1.455-1.632 1.405-1.786 1.302-1.735c.433-.62.823-1.256 1.228-1.893l1.135-1.818c.377-.656.702-1.334 1.047-2.01l.953-1.88c.33-.73.604-1.48.897-2.223l.72-1.818c.475-1.38.89-2.786 1.23-4.213l-12.33 3.58c-6.586 20.114-27.42 35.256-52.817 37.224a73.51 73.51 0 0 0 5.66.223 71.25 71.25 0 0 0 5.297-.2l1.737-.19z" opacity=".1"/><path d="M482.21 378.796c.316-56.817-8.696-89.087-14.6-104.1-3.353-8.52-9.13-15.873-16.714-20.998-7.68-5.186-15.575-8.762-15.575-8.762l-76.712-32.094c-.335 1.428-.75 2.833-1.223 4.214l66.63 27.875s7.896 3.577 15.575 8.762c7.6 5.125 13.36 12.478 16.714 20.997 5.902 15.003 14.92 47.274 14.6 104.09 0 0-27.216 12.198-48.413 14.398 21.06 2.936 59.72-14.393 59.72-14.393z" opacity=".05"/></g><path d="M419.43 392.61c20.09 5.334 62.778-13.812 62.778-13.812v-7.534s-43.785 19.705-63.876 14.37zm-243.59-.001c-20.09 5.338-62.778-13.81-62.778-13.81v-7.534s43.785 19.707 63.876 14.37z" opacity=".1" fill="#000100"/><path d="M192.8 380.992c-8.162-35.154-37.814-72.713-29.82-61.523 11.77 16.477 12.868 73.136 12.868 73.136.534-.144 2.632-21.858 3.134-21.22 6.4 8.102 8.278 52.283 8.273 101.58 7.748-39.88 9.05-76.86 5.544-91.97zm209.855.001c8.162-35.156 37.814-72.713 29.82-61.52-11.77 16.477-12.868 73.136-12.868 73.136-.535-.147-2.633-21.862-3.135-21.22-6.4 8.098-8.278 52.28-8.273 101.574-7.75-39.877-9.05-76.86-5.544-91.968z" opacity=".05"/><g fill="#000100"><path d="M358.6 212.853c-5.52 23.393-30.048 41.028-59.48 41.028-29.927 0-54.733-18.24-59.7-42.214l-6.73 2.818 1.493 5.67c.298 1.12.65 2.232 1.11 3.297 9.78 22.51 34.945 37.963 63.816 37.963l4.325-.144v92.24c0 .29-.038.675-.205.837-.35.344-1.572.35-2.66.326h-9.925v2.325l10.468.004c1.475 0 2.832-.093 3.753-1.004.59-.586.894-1.423.894-2.488v-92.408c25.262-2.135 47.073-16.25 56.527-36.172.624-1.312 1.094-2.688 1.488-4.083l1.48-5.2z" opacity=".05"/><path d="M303.458 253.755l-.005 99.756c0 .29-.037.675-.204.837-.35.344-1.572.35-2.66.326h-9.925V357l10.468.004c1.474 0 2.832-.093 3.753-1.004.59-.586.893-1.423.893-2.488v-99.97z" opacity=".05"/></g><g fill="#7c4d4c"><ellipse ry="3.488" rx="3.516" cy="257.852" cx="297.64"/><ellipse ry="3.488" rx="3.516" cy="285.756" cx="297.64"/><ellipse ry="3.488" rx="3.516" cy="318.31" cx="297.64"/><ellipse ry="3.488" rx="3.516" cy="350.865" cx="297.64"/></g></g><path d="M8.63 20.472l6.16 6.208s-.07-6.185-.68-6.824l-.26 1.765s-1.463.544-5.22-1.148zm6.024 20.268l7.1 7.112s16.653 2.07 24.204-14.278c0 0 2.84-6.427 1.824-12.503L37.437 10.705s2.06 2.23 1.89 9.767c0 0-3.035 1.495-5.22 1.148l-.26-1.765s-.763 1.834-.674 8.447l.26 11.557s.184 1.032-.607 1.103c0 0-5.188.468-8.555.417 0 0-8.213.116-9.616-.64z" fill="#c29940"/></svg>