<svg xmlns="http://www.w3.org/2000/svg" xmlns:xlink="http://www.w3.org/1999/xlink" width="48" height="48"><style><![CDATA[.D{fill:none;stroke:#2B3E53;stroke-width:5;stroke-linecap:round;stroke-linejoin:round;stroke-miterlimit:10}]]></style><g transform="scale(.375)"><circle r="64" cy="64" cx="64" fill="#b8d4e8"/><defs><circle r="64" id="A" cy="64" cx="64"/></defs><clipPath id="B"><use xlink:href="#A"/></clipPath><path clip-path="url(#B)" d="M128 65.7L99.8 37.6 77 27.5 66.2 16.7l-2.9 7.9-19.5 9.3L17 64l45.1 45.6-2.7 2.1-9.8-9.7-.4 10.3L64.9 128H128z" opacity=".78" fill="#87b6d0"/><path d="M47.8 103.9c0 4.9 4 8.9 8.9 8.9s8.9-4 8.9-8.9V17.5" fill="none" stroke="#2b3e53" stroke-width="2" stroke-linecap="round" stroke-linejoin="round" stroke-miterlimit="10"/><path d="M47.8 103.9c0 4.9 4 8.9 8.9 8.9s8.9-4 8.9-8.9V90.5m-.1-67.4v8.6" class="D"/><path d="M43.1 67.5c1.1.8 2.6.6 3.4-.5 4.2-6 11.1-10 19-10s14.8 4 19 10c.8 1.1 2.3 1.4 3.4.5 3.9-3 8.7-4.8 14-4.8 3.3 0 6.4.7 9.2 1.9 1.8.8 3.8-.9 3.3-2.8-5.8-21.6-25.5-37.5-49-37.5s-43.2 15.9-49 37.6c-.5 1.9 1.5 3.6 3.3 2.8 2.8-1.2 5.9-1.9 9.2-1.9a22.27 22.27 0 0 1 14.2 4.7z" opacity=".9" fill="#f6ebe9"/><defs><path id="C" d="M43.1 67.5c1.1.8 2.6.6 3.4-.5 4.2-6 11.1-10 19-10s14.8 4 19 10c.8 1.1 2.3 1.4 3.4.5 3.9-3 8.7-4.8 14-4.8 3.3 0 6.4.7 9.2 1.9 1.8.8 3.8-.9 3.3-2.8-5.8-21.6-25.5-37.5-49-37.5s-43.2 15.9-49 37.6c-.5 1.9 1.5 3.6 3.3 2.8 2.8-1.2 5.9-1.9 9.2-1.9a22.27 22.27 0 0 1 14.2 4.7z"/></defs><clipPath id="D"><use xlink:href="#C"/></clipPath><g clip-path="url(#D)"><path d="M25.6 31.2L9.8 62.7s34 51.4 34 9.2 21.7-47.6 21.7-47.6l-5.3-5.2zm79.8 0L70.8 19.1l-5.3 5.2s21.7 5.4 21.7 47.6 34-9.2 34-9.2z" fill="#e3172e"/></g><path d="M71.6 24.6c18.3 4.1 32.9 18.2 37.8 36.3.3 1.1-.2 2.2-1.1 2.7 1 .3 2 .6 2.9 1 1.8.8 3.8-.9 3.3-2.8-5.3-19.7-22.2-34.7-42.9-37.2z" fill="#d11a1f"/><path d="M22.8 60.1a50.9 50.9 0 0 1 32.7-34.9c-18.9 3.8-34 18.1-39 36.6-.5 1.9 1.5 3.6 3.3 2.8 1.5-.7 3.2-1.2 4.9-1.5-1.3-.2-2.3-1.5-1.9-3z" fill="#f18e5f" opacity=".54"/></g></svg>