<svg xmlns="http://www.w3.org/2000/svg" width="48" viewBox="0 0 48 47.99" style="clip-rule:evenodd;fill-rule:evenodd;stroke-linejoin:round;stroke-miterlimit:1.41420996" height="48"><circle r="23.986" cy="23.986" cx="23.986" fill="#e64c3c"/><path d="M4.008 25.24l2.067 2.067.054 1.488 5.353 5.352V35.838l12.135 12.135s6.624.49 13.305-3.81c3.53-2.273 6.294-5.035 8.455-9.34C48.082 29.43 48 23.535 48 23.535l-11.51-11.4-2.826 11.514-8.635-.8-10.733-10.724-6.622 12.333z" fill="#c13829"/><path d="M4.008 22.73h39.955v2.512H4.008z" fill="#cdcdcd"/><path d="M6.13 19.176h2.817v9.62H6.13z" fill="#5b6071"/><path d="M8.91 16.435h2.817v15.1H8.91z" fill="#42485b"/><path d="M11.48 12.133h2.817v23.705H11.48z" fill="#373c4b"/><path d="M39.026 19.176h2.817v9.62h-2.817z" fill="#5b6071"/><path d="M36.244 16.435h2.817v15.1h-2.817z" fill="#42485b"/><path d="M33.675 12.133h2.817v23.705h-2.817z" fill="#373c4b"/></svg>