<svg xmlns="http://www.w3.org/2000/svg" viewBox="0 0 48 47.999" height="48" width="48"><g transform="matrix(.096743 0 0 .096743 -.766207 -.766595)"><path d="M504.078 256.006c0-137.022-111.07-248.082-248.075-248.082C118.99 7.924 7.92 118.984 7.92 256.006c0 137 111.07 248.07 248.083 248.07 137.006 0 248.075-111.07 248.075-248.07z" fill="#25b7d3"/><path d="M289.152 157.485C266.155 121.17 256.01 84.7 256.01 84.7H256s-10.145 36.48-33.142 72.795c-28.24 56.86-73.39 86.847-73.39 158.384 0 61.548 44.983 111.44 106.532 111.44h.02c61.55 0 106.532-49.894 106.532-111.44.001-71.537-45.15-101.523-73.4-158.384z" fill="#91c5ce"/><path d="M289.152 157.485C266.155 121.17 256.01 84.7 256.01 84.7s-61.57 342.62-.02 342.62h.02c61.55 0 106.532-49.894 106.532-111.44 0-71.538-45.152-101.524-73.39-158.385z" fill="#b9e4ea"/><path d="M262.08 409.116h.016c48.17 0 83.378-39.05 83.378-87.22 0-55.99-131.565 87.22-83.394 87.22z" fill="#f2f7f7"/></g><path d="M17.838 38.523l9.19 9.287s14.94-1 20.072-17.282L24 7.427s1.047 3.916 4.688 9.616c2.29 3.587 5.13 6.86 5.485 10.727 0 0 1.34 12.724-10.612 12.802 0 0-4.104-.4-5.724-2.05z" fill="#1d97ac"/></svg>