<svg xmlns="http://www.w3.org/2000/svg" height="48" width="48"><g transform="scale(0.30967742)"><circle cx="77.5" cy="77.5" r="77.5" fill="#fd8369"/><path d="M154.693 84.197L119.12 48.63a2.96 2.96 0 0 0-2.12-.88h-3.9l-1.7-1.7h-10.62v1.7h-2.23l-8.18-8.18A6.11 6.11 0 0 0 86 37.76H69a6.11 6.11 0 0 0-4.359 1.811c-1.16 1.16-1.8 2.71-1.8 4.36v3.82h-6.908l-1.7-1.7H43.6v1.7H38c-.77 0-1.54.3-2.12.88-.6.58-.88 1.35-.88 2.12v53.5c0 .77.3 1.54.88 2.12l48.317 48.323c37.455-3.21 67.287-33.042 70.496-70.496z" fill="#ea6552"/><path d="M120 104.25a2.99 2.99 0 0 1-3 3H38a2.99 2.99 0 0 1-3-3V60.5h85z" fill="#343b43"/><path d="M120 60.5a16.95 16.95 0 0 1-17 17H52a16.95 16.95 0 0 1-17-17v-9.75a2.99 2.99 0 0 1 3-3h79a2.99 2.99 0 0 1 3 3z" fill="#495057"/><path d="M92.162 47.75h-3.824v-3.824A2.32 2.32 0 0 0 86 41.588H69c-.625 0-1.21.242-1.653.685s-.685 1.028-.685 1.653v3.824h-3.824v-3.824c0-1.646.64-3.193 1.805-4.358A6.12 6.12 0 0 1 69 37.763h17a6.12 6.12 0 0 1 4.357 1.805c1.164 1.165 1.805 2.712 1.805 4.358zm-48.556-1.7H54.23v1.7H43.606zm57.163 0h10.625v1.7H100.77z" fill="#343b43"/><path d="M72.825 71.763h9.35V83.24h-9.35z" fill="#fff"/><path d="M72.825 47.75h9.35v24.013h-9.35z" fill="#343b43"/><path d="M72.825 83.238h9.35v24.012h-9.35z" fill="#495057"/></g></svg>