<svg xmlns="http://www.w3.org/2000/svg" height="48" width="48"><path d="M48 24c0 13.255-10.745 24-24 24S0 37.254 0 24 10.745 0 24 0s24 10.745 24 24z" fill="#a2cec1"/><path d="M35.435 21.287l11.04 11.04c-1.642 4.54-4.444 8.128-7.995 10.81-3.26 2.46-6.674 3.968-11.324 4.676L11.492 32.707z" opacity=".2" fill="#6a6a6a"/><g transform="matrix(.138219 0 0 .138219 -7.170228 -7.106509)"><path d="M312.814 217.6c0-22.196-38.932-32.563-86.952-32.563s-86.955 10.367-86.955 32.563l-11.1 56.294c0 22.77 43.74 31.692 97.692 31.692 53.957 0 97.7-8.923 97.7-31.692.001-3.054-10.395-56.294-10.395-56.294z" fill="#73b0e8"/><path d="M287.178 209.617c0 9.765-27.763 17.67-62.006 17.67-34.25 0-62-7.904-62-17.67 0-9.76 27.76-17.663 62-17.663 34.243 0 62.006 7.904 62.006 17.663z" fill="#5d96d2"/><path d="M186.72 223.476c10.572 2.383 23.92 3.8 38.452 3.8s27.874-1.427 38.445-3.8c-10.57-2.377-23.913-3.8-38.445-3.8s-27.88 1.433-38.452 3.8z" fill="#4d82be"/><path d="M249.6 250.312c-1.377 5.277-5.625 8.746-9.486 7.734-3.855-1.007-5.868-6.108-4.492-11.392 1.382-5.282 5.63-8.746 9.5-7.74s5.874 6.108 4.487 11.397zm7.962 14.075c-1.706 3.566-5.187 5.438-7.8 4.2-2.6-1.24-3.332-5.14-1.626-8.7 1.7-3.56 5.197-5.437 7.8-4.2 2.605 1.245 3.332 5.14 1.626 8.7zm-43.762-14.4c1.14 5.34 5.232 8.996 9.133 8.16 3.903-.83 6.142-5.834 5-11.174s-5.227-8.997-9.125-8.16-6.148 5.835-5.007 11.175zm-7.9 14.4c1.7 3.566 5.192 5.438 7.794 4.2s3.33-5.14 1.624-8.7-5.2-5.437-7.8-4.2-3.333 5.14-1.627 8.7zm49.05 20.58c0 12.818-14.6.347-23.208.347s-23.2 12.472-23.2-.347 14.6-23.208 23.2-23.208 23.208 10.4 23.208 23.208z" fill="#f7f4f1"/></g></svg>