<svg xmlns="http://www.w3.org/2000/svg" xmlns:xlink="http://www.w3.org/1999/xlink" width="48" height="48"><style><![CDATA[.B{fill:#ffd05b}.C{fill:#f9b54c}]]></style><circle transform="matrix(.094462 0 0 .094462 -.219344 -.182258)" stroke="null" r="254.071" cy="256" cx="256.393" fill="#4caf50" stroke-width="112.069"/><path d="M23.05 15.864l7.83 7.83 8.233-12.702 8.438 8.438c1.377 7.167-.596 14.065-4.577 19.26-4.33 5.653-12.194 10.22-21.857 9.13L9.05 36.237z" opacity=".2"/><g transform="matrix(.094462 0 0 .094462 -.219344 -.182258)"><use xlink:href="#B" class="B"/><use xlink:href="#B" y="21.6" class="C"/><use xlink:href="#B" y="43.3" class="B"/><use xlink:href="#B" y="64.9" class="C"/><use xlink:href="#B" y="86.5" class="B"/><path d="M249.1 308.4V330c0 18.3-34.9 33.1-77.9 33.1s-78-14.8-78-33.1v-21.6c0 18.3 34.9 33.1 77.9 33.1s78-14.8 78-33.1z" class="C"/><path d="M249.1 330v21.6c0 18.3-34.9 33.1-77.9 33.1s-77.9-14.8-77.9-33.1V330c0 18.3 34.9 33.1 77.9 33.1s77.9-14.8 77.9-33.1z" class="B"/><use xlink:href="#B" y="151.3" class="C"/><ellipse ry="33.1" rx="77.9" cy="200.3" cx="171.2" class="B"/><ellipse ry="26.3" rx="61.8" cy="200.3" cx="171.2" class="C"/><ellipse ry="23.7" rx="55.8" cy="200.3" cx="171.2" class="B"/><path d="M168.9 218.3v-3.2c-9.4-.4-17.8-2-25.2-4.8l7.5-3.8c5.7 2.1 11.7 3.4 17.8 3.8v-8.5c-7.7-.8-13.4-1.8-17-3.1s-5.4-3.2-5.4-5.7 2.1-4.6 6.2-6.2 9.5-2.5 16.2-2.6V182h6.6v2.2c7.5.2 14.6 1.3 21.3 3.3l-6.7 4c-4.5-1.4-9.4-2.2-14.7-2.5v8.2h.3c7.9.8 13.6 1.8 17.3 3.2 3.7 1.3 5.5 3.3 5.5 5.8s-2.1 4.6-6.4 6.2c-4.2 1.6-9.8 2.5-16.8 2.6v3.1h-6.5zm-7.2-28.1c-1.7.7-2.6 1.5-2.6 2.4s.7 1.7 2 2.3c1.4.6 4 1.1 7.8 1.6V189c-3.1.1-5.5.5-7.2 1.2zm21.6 19.1c1.9-.7 2.9-1.5 2.9-2.5s-.8-1.8-2.3-2.4-4.3-1.2-8.4-1.7v7.9c3.3-.2 5.9-.6 7.8-1.3z" fill="#fff"/><use xlink:href="#C" class="C"/><ellipse ry="33.1" rx="77.9" cy="178.7" cx="171.2" class="B"/><ellipse ry="26.3" rx="61.8" cy="178.7" cx="171.2" class="C"/><ellipse ry="23.7" rx="55.8" cy="178.7" cx="171.2" class="B"/><path d="M168.9 196.7v-3.2c-9.4-.4-17.8-2-25.2-4.8l7.5-3.8c5.7 2.1 11.7 3.4 17.8 3.8v-8.5c-7.7-.8-13.4-1.8-17-3.1s-5.4-3.2-5.4-5.7 2.1-4.6 6.2-6.2 9.5-2.5 16.2-2.6v-2.2h6.6v2.2c7.5.2 14.6 1.3 21.3 3.3l-6.7 4c-4.5-1.4-9.4-2.2-14.7-2.5v8.2h.3c7.9.8 13.6 1.8 17.3 3.2 3.7 1.3 5.5 3.3 5.5 5.8s-2.1 4.6-6.4 6.2c-4.2 1.6-9.8 2.5-16.8 2.6v3.1h-6.5zm-7.2-28.1c-1.7.7-2.6 1.5-2.6 2.4 0 1 .7 1.7 2 2.3 1.4.6 4 1.1 7.8 1.6v-7.5c-3.1.2-5.5.5-7.2 1.2zm21.6 19.1c1.9-.7 2.9-1.5 2.9-2.5s-.8-1.8-2.3-2.4-4.3-1.2-8.4-1.7v7.9c3.3-.2 5.9-.6 7.8-1.3zm233.1-69.4l-58.3 31 20.5 11.8-52.1 90.3-82.8-47.7c-2.3-1.3-4.9-1.7-7.5-1-2.5.7-4.7 2.3-6 4.6l-78.3 135.8c-2.7 4.7-1.1 10.7 3.6 13.4 2.4 1.4 5 1.6 7.5 1 2.4-.7 4.6-2.2 6-4.6l73.4-127.3 82.8 47.7c4.7 2.7 10.7 1.1 13.4-3.6l57-98.9 23.1 13.3z" fill="#fff"/><use xlink:href="#B" x="169.3" y="98" class="B"/><use xlink:href="#B" x="169.3" y="119.6" class="C"/><use xlink:href="#B" x="169.3" y="141.2" class="B"/><use xlink:href="#B" x="169.3" y="162.8" class="C"/><ellipse ry="33.1" rx="77.9" cy="298.2" cx="340.5" class="B"/><ellipse ry="26.3" rx="61.8" cy="298.2" cx="340.5" class="C"/><ellipse ry="23.7" rx="55.8" cy="298.2" cx="340.5" class="B"/><path d="M338.3 316.3v-3.2c-9.4-.4-17.8-2-25.2-4.8l7.5-3.8c5.7 2.1 11.7 3.4 17.8 3.8v-8.5c-7.7-.8-13.4-1.8-17-3.1s-5.4-3.2-5.4-5.7 2.1-4.6 6.2-6.2 9.5-2.5 16.2-2.6V280h6.6v2.2c7.5.2 14.6 1.3 21.3 3.3l-6.7 4c-4.5-1.4-9.4-2.2-14.7-2.5v8.2h.3c7.9.8 13.6 1.8 17.3 3.2 3.7 1.3 5.5 3.3 5.5 5.8s-2.1 4.6-6.4 6.2c-4.2 1.6-9.8 2.5-16.8 2.6v3.1h-6.5zm-7.3-28.2c-1.7.7-2.6 1.5-2.6 2.4s.7 1.7 2 2.3c1.4.6 4 1.1 7.8 1.6V287c-3 .1-5.4.5-7.2 1.1zm21.6 19.2c1.9-.7 2.9-1.5 2.9-2.5s-.8-1.8-2.3-2.4-4.3-1.2-8.4-1.7v7.9c3.3-.3 5.9-.7 7.8-1.3z" fill="#fff"/><use xlink:href="#C" x="169.3" y="97.9" class="C"/><ellipse ry="33.1" rx="77.9" cy="276.6" cx="340.5" class="B"/><ellipse ry="26.3" rx="61.8" cy="276.6" cx="340.5" class="C"/><ellipse ry="23.7" rx="55.8" cy="276.6" cx="340.5" class="B"/><path d="M338.3 294.7v-3.2c-9.4-.4-17.8-2-25.2-4.8l7.5-3.8c5.7 2.1 11.7 3.4 17.8 3.8v-8.5c-7.7-.8-13.4-1.8-17-3.1s-5.4-3.2-5.4-5.7 2.1-4.6 6.2-6.2 9.5-2.5 16.2-2.6v-2.2h6.6v2.2c7.5.2 14.6 1.3 21.3 3.3l-6.7 4c-4.5-1.4-9.4-2.2-14.7-2.5v8.2h.3c7.9.8 13.6 1.8 17.3 3.2 3.7 1.3 5.5 3.3 5.5 5.8s-2.1 4.6-6.4 6.2c-4.2 1.6-9.8 2.5-16.8 2.6v3.1h-6.5zm-7.3-28.2c-1.7.7-2.6 1.5-2.6 2.4s.7 1.7 2 2.3c1.4.6 4 1.1 7.8 1.6v-7.5c-3 .2-5.4.6-7.2 1.2zm21.6 19.2c1.9-.7 2.9-1.5 2.9-2.5s-.8-1.8-2.3-2.4-4.3-1.2-8.4-1.7v7.9c3.3-.3 5.9-.7 7.8-1.3z" fill="#fff"/></g><defs ><path id="B" d="M249.1 200.3v21.6c0 18.3-34.9 33.1-77.9 33.1s-77.9-14.8-77.9-33.1v-21.6c0 18.3 34.9 33.1 77.9 33.1s77.9-14.8 77.9-33.1z"/><path id="C" d="M249.1 178.7v21.7c0 18.3-34.9 33.1-77.9 33.1s-77.9-14.8-77.9-33.1v-21.7h19c14.3-7 35.4-11.5 59-11.5s44.7 4.4 58.9 11.5z"/></defs></svg>