<svg xmlns="http://www.w3.org/2000/svg" xmlns:xlink="http://www.w3.org/1999/xlink" width="48" height="48"><style><![CDATA[.D{fill:#FFEDCF}.E{fill:#DFA074}.M{fill:#F4C600}]]></style><g transform="scale(.375)"><circle r="64" cy="64" cx="64" fill="#f15a24"/><defs><circle r="64" id="A" cy="64" cx="64"/></defs><clipPath id="B"><use xlink:href="#A"/></clipPath><path clip-path="url(#B)" d="M88 42.5l-64 2.4 17.2 17.2.1 21.8L24 99.3l28.7 28.6 75.3.1V66l-23.6-23.5z" fill="#d33e1f"/><path d="M35.9 53.3h56.2v36H35.9z" fill="#e7c9a7"/><path d="M103.6 41.8L65.3 18.3a2.44 2.44 0 0 0-2.6 0L24.4 41.8c-1.8 1.1-.9 3.7 1.3 3.7h2.9c.2 0 .4.1.8.1 3.8 0 3.9 3.9 3.9 3.9h61.3s.1-3.9 3.9-3.9c.4 0 .6-.1.8-.1h2.9c2.4 0 3.3-2.6 1.4-3.7z" class="D"/><path d="M34.7 40.8l28-16.8c.8-.5 1.8-.5 2.5 0l28.1 16.9c1.9 1.1 1 3.8-1.3 3.8H35.9c-2.2-.1-3.1-2.7-1.2-3.9zM98 53.3H30v-2a2.01 2.01 0 0 1 2-2h64a2.01 2.01 0 0 1 2 2zm6 46H24v-3c0-1.7 1.3-3 3-3h74c1.7 0 3 1.3 3 3z" class="E"/><defs><path id="C" d="M35.9 53.3h56.2v36H35.9z"/></defs><clipPath id="D"><use xlink:href="#C"/></clipPath><path clip-path="url(#D)" d="M70.4 91.5H102l-1-45.3-74.1 2z" fill="#e1b68b"/><path d="M67 81.3c0-1.6-1.4-2.9-3-2.9s-3 1.3-3 2.9v8h6z" fill="#603813"/><path d="M95.1 85.3v-28a4.92 4.92 0 0 0 2-4h-10a5.07 5.07 0 0 0 2 4v28a4.92 4.92 0 0 0-2 4h10a5.07 5.07 0 0 0-2-4zm-54.2-32h-10a5.07 5.07 0 0 0 2 4v28a4.92 4.92 0 0 0-2 4h10a5.07 5.07 0 0 0-2-4v-28c1.2-1 2-2.4 2-4zm18.7 0h-10a5.07 5.07 0 0 0 2 4v28a4.92 4.92 0 0 0-2 4h10a5.07 5.07 0 0 0-2-4v-28c1.2-1 2-2.4 2-4zm18.8 0h-10a5.07 5.07 0 0 0 2 4v28a4.92 4.92 0 0 0-2 4h10a5.07 5.07 0 0 0-2-4v-28c1.2-1 2-2.4 2-4z" fill="#fff"/><path d="M101 93.3H27v-1c0-1.7 1.3-3 3-3h68c1.7 0 3 1.3 3 3z" class="D"/><defs><path id="E" d="M95.1 85.3v-28a4.92 4.92 0 0 0 2-4h-10a5.07 5.07 0 0 0 2 4v28a4.92 4.92 0 0 0-2 4h10a5.07 5.07 0 0 0-2-4zm-54.2-32h-10a5.07 5.07 0 0 0 2 4v28a4.92 4.92 0 0 0-2 4h10a5.07 5.07 0 0 0-2-4v-28c1.2-1 2-2.4 2-4zm18.7 0h-10a5.07 5.07 0 0 0 2 4v28a4.92 4.92 0 0 0-2 4h10a5.07 5.07 0 0 0-2-4v-28c1.2-1 2-2.4 2-4zm18.8 0h-10a5.07 5.07 0 0 0 2 4v28a4.92 4.92 0 0 0-2 4h10a5.07 5.07 0 0 0-2-4v-28c1.2-1 2-2.4 2-4z"/></defs><clipPath id="F"><use xlink:href="#E"/></clipPath><path clip-path="url(#F)" d="M46.3 60l30.6 30.5H103V68L82.7 47.7z" fill="#fee1c5"/><path d="M82.6 49.5l-.1-2 1.9 2z" fill="#e1b68b"/><defs><path id="G" d="M98 53.3H30v-2c0-1.1.9-2 2-2h64c1.1 0 2 .9 2 2z"/></defs><clipPath id="H"><use xlink:href="#G"/></clipPath><path clip-path="url(#H)" d="M82 53.6l.6-6 5.9 5.9z" fill="#cb794f"/><path d="M81.2 60.5H47.7c-1.1 0-1.9-.9-1.9-1.9v-9.7c0-1.1.9-1.9 1.9-1.9h33.5c1.1 0 1.9.9 1.9 1.9v9.7c0 1.1-.8 1.9-1.9 1.9z" fill="#5b3c36"/><path d="M50.5 50.2h3.1c.4 0 .8 0 1.1.1s.6.2.9.4l.6.6c.1.2.2.5.2.7s0 .3-.1.5a.76.76 0 0 1-.2.4c-.1.1-.2.2-.3.4-.1.1-.3.2-.5.4l.6.3c.2.1.3.2.5.4.1.1.2.3.3.5s.1.4.1.6c0 .3-.1.5-.2.8s-.3.5-.5.6c-.2.2-.5.3-.9.4-.3.1-.7.2-1.1.2h-3.5v-7.3zm1.8 3.1h1.2c.2 0 .3 0 .5-.1.1-.1.3-.1.4-.2s.2-.2.2-.4c.1-.1.1-.3.1-.5s0-.4-.1-.5c-.1-.2-.2-.3-.3-.4s-.3-.2-.5-.3-.5-.1-.8-.1h-.7zm0 3.3h1c.3 0 .5 0 .7-.1s.4-.1.5-.3c.1-.1.2-.2.3-.4.1-.1.1-.3.1-.5s0-.4-.1-.6a1.38 1.38 0 0 0-.3-.4c-.1-.1-.3-.2-.5-.3s-.5-.1-.8-.1h-.9zm8.9-6.5l3.3 7.3h-1.8l-.9-1.9H59l-.9 1.9h-1.2l3.5-7.3zm-1.8 4.7h2.1l-1.1-2.3zm5.8-4.6h1.1l4.1 4.5v-4.5h1.1v7.2h-.8l-4.4-5v4.9h-1.1zm7.8 0h1.8v2.7l3.2-2.7h1.4l-3.6 3 4.5 4.1h-2.1l-3.4-3.1v3.1H73z" class="M"/><defs><path id="I" d="M67 81.3c0-1.6-1.4-2.9-3-2.9s-3 1.3-3 2.9v8h6z"/></defs><clipPath id="J"><use xlink:href="#I"/></clipPath><path clip-path="url(#J)" d="M67.4 88.5V78H60l-.2 2.9z" fill="#492905"/></g></svg>