<svg xmlns="http://www.w3.org/2000/svg" width="48" height="48"><g transform="scale(0.24)"><circle r="100" cy="100" cx="100" fill="#ff8e31"/><path d="M147.527 90.698c-1.685-1.7-3.942-2.643-6.343-2.643h-.744l-6.984-6.985h-20.78L82.913 51.3l-.014.014c-.044.03-.13.086-.285.17a6.83 6.83 0 0 0-.571.386l-12.3-12.3s-.157.085-.43.255c-.284.16-.67.428-1.156.8-.472.385-1.042.87-1.6 1.528a11.03 11.03 0 0 0-1.63 2.543c-.457 1.03-.77 2.285-.857 3.6-.042.672-.015 1.344.057 2.03a12.57 12.57 0 0 0 .358 2.041c.33 1.343.815 2.657 1.387 3.915.57 1.243 1.2 2.458 1.844 3.6l1.856 3.358 1.5 3.158.53 1.5c.143.485.243.97.313 1.44.088.472.13.942.13 1.4.017.23-.014.443-.014.673l-.058.656c-.1.857-.327 1.672-.57 2.387-.258.727-.557 1.34-.8 1.87l-.627 1.2-.23.444 3.1 3.1H58.985v48.457c0 .428.014.843.058 1.27l.002.003c.284 3.064 1.593 6.052 3.94 8.397l58.468 58.47c32.886-7.19 59.7-30.553 71.713-61.34z" fill="#ed7425"/><path d="M133.456 129.527c0 3.502-1.333 7.003-4.006 9.67-2.672 2.675-6.17 4.008-9.67 4.008H72.654c-3.498 0-7-1.333-9.67-4.008-2.672-2.668-4.008-6.17-4.008-9.67v-48.45h74.48z" fill="#34495e"/><path d="M72.654 134.486c-1.32 0-2.566-.518-3.5-1.45-.94-.94-1.457-2.186-1.457-3.508V81.084c0-.002-.004-.005-.004-.008h-4.976c0 .003-.005.006-.005.008v48.443c0 2.653 1.036 5.152 2.917 7.03a9.87 9.87 0 0 0 7.024 2.908 2.49 2.49 0 0 0 2.492-2.488c.001-1.38-1.112-2.492-2.49-2.492z" fill="#5d7d99"/><path d="M141.18 122.207h-7.723v-5.13h7.723c1.03 0 2-.398 2.73-1.13a3.86 3.86 0 0 0 1.125-2.727V97.045a3.86 3.86 0 0 0-1.125-2.724c-.73-.73-1.698-1.128-2.73-1.128h-7.723v-5.135h7.723c2.403 0 4.658.937 6.356 2.633a8.93 8.93 0 0 1 2.628 6.354v16.175a8.93 8.93 0 0 1-2.628 6.356 8.92 8.92 0 0 1-6.356 2.631z" fill="#283a4d"/><path d="M69.745 77.97s.073-.156.227-.438c.167-.276.366-.695.63-1.2.24-.528.538-1.147.793-1.87.247-.72.47-1.528.576-2.392l.062-.66.013-.672c0-.453-.05-.92-.125-1.393-.08-.47-.177-.958-.325-1.444s-.322-.993-.52-1.5c-.41-1.018-.933-2.067-1.51-3.155l-1.857-3.355-1.834-3.607c-.566-1.254-1.056-2.57-1.4-3.917-.166-.67-.293-1.355-.36-2.036s-.093-1.366-.052-2.026c.085-1.324.398-2.572.86-3.6a10.54 10.54 0 0 1 1.622-2.542c.564-.66 1.13-1.152 1.605-1.538.487-.37.873-.636 1.152-.795l.433-.255-.233.44c-.162.272-.368.7-.625 1.202-.252.523-.552 1.144-.798 1.87s-.47 1.525-.575 2.395c-.03.21-.04.428-.063.647 0 .233-.024.45-.007.675 0 .458.047.92.124 1.4.085.472.18.955.327 1.443l.522 1.5c.408 1.015.932 2.067 1.513 3.15l1.852 3.36 1.835 3.613c.57 1.254 1.06 2.557 1.39 3.908a16.83 16.83 0 0 1 .363 2.041c.056.68.09 1.362.045 2.024-.093 1.33-.406 2.572-.868 3.6-.465 1.037-1.05 1.874-1.615 2.535a11.73 11.73 0 0 1-1.613 1.544 10.38 10.38 0 0 1-1.152.798l-.424.252zm13.163 0l.165-.305.434-.832c.173-.368.383-.793.55-1.302.173-.496.328-1.062.402-1.66l.042-.456c0-.153.017-.307.003-.468 0-.313-.03-.637-.08-.966-.056-.33-.126-.663-.224-1l-.366-1.048c-.283-.704-.647-1.434-1.048-2.187l-1.3-2.332-1.273-2.507c-.392-.875-.73-1.782-.963-2.716a9.47 9.47 0 0 1-.25-1.416c-.047-.476-.07-.948-.04-1.4a7.36 7.36 0 0 1 .598-2.496 7.44 7.44 0 0 1 1.124-1.768c.392-.46.79-.802 1.12-1.066.33-.258.602-.44.798-.555l.293-.177-.158.305c-.11.19-.25.48-.432.834a11.19 11.19 0 0 0-.554 1.298c-.174.503-.324 1.058-.402 1.664l-.04.454c0 .155-.02.31-.006.47a6.35 6.35 0 0 0 .083.964c.058.332.126.667.228 1.005L82 59.34c.286.704.645 1.432 1.048 2.187l1.29 2.332 1.28 2.513c.387.867.73 1.776.96 2.714a11.49 11.49 0 0 1 .251 1.416c.04.476.062.946.03 1.406-.063.926-.277 1.8-.6 2.502-.322.718-.73 1.298-1.118 1.76-.396.462-.792.806-1.124 1.072s-.604.444-.798.557l-.297.17z" fill="#fff"/><path d="M72.654 143.206h46.94v3.51h-46.94z" fill="#283a4d"/></g></svg>