<svg xmlns="http://www.w3.org/2000/svg" xmlns:xlink="http://www.w3.org/1999/xlink" width="48" height="48"><g transform="scale(.375)"><circle r="64" cy="64" cx="64" fill="#ef4c45"/><defs><circle r="64" id="A" cy="64" cx="64"/></defs><clipPath id="B"><use xlink:href="#A"/></clipPath><path clip-path="url(#B)" d="M128 68.4L94.4 35.1 37 60.4 22 91.6 58.5 128H128z" fill="#d43032"/><path d="M106.5 66.9c-2.2-9.4-7.2-23.1-8.3-25.1l-2.6-4.6s0-1.4-2.9-3.6-8.9-3.5-11-3.6-2.9.8-4 1.4-2.7.6-2.7.6H53s-1.5 0-2.7-.6-1.9-1.5-4-1.4-8.1 1.5-11 3.6-2.9 3.6-2.9 3.6l-2.3 4.1C29 43.2 24 57.4 21.9 66.8c-2.2 9.4-2.6 14.9-1 19.4s3.9 5.6 4.9 6.1 1.3 2.2 1.3 2.2 1.5-.1 3.2-1.7 8.2-11 10.2-13.3 4.1-4.5 8-4.5h30.8c3.9 0 6 2.2 8 4.5s8.6 11.7 10.2 13.3c1.7 1.6 3.2 1.7 3.2 1.7s.1-1.5 1.1-1.9 4-1.4 5.6-5.9 1.3-10.4-.9-19.8z" fill="#32353a"/><defs><path id="C" d="M106.5 66.9c-2.2-9.4-7.2-23.1-8.3-25.1l-2.6-4.6s0-1.4-2.9-3.6-8.9-3.5-11-3.6-2.9.8-4 1.4-2.7.6-2.7.6H53s-1.5 0-2.7-.6-1.9-1.5-4-1.4-8.1 1.5-11 3.6-2.9 3.6-2.9 3.6l-2.3 4.1C29 43.2 24 57.4 21.9 66.8c-2.2 9.4-2.6 14.9-1 19.4s3.9 5.6 4.9 6.1 1.3 2.2 1.3 2.2 1.5-.1 3.2-1.7 8.2-11 10.2-13.3 4.1-4.5 8-4.5h30.8c3.9 0 6 2.2 8 4.5s8.6 11.7 10.2 13.3c1.7 1.6 3.2 1.7 3.2 1.7s.1-1.5 1.1-1.9 4-1.4 5.6-5.9 1.3-10.4-.9-19.8z"/></defs><clipPath id="D"><use xlink:href="#C"/></clipPath><path clip-path="url(#D)" d="M54.9 43h18.6l5.8-5.5-3.9-6.5H53l-3.9 6.5z" fill="#4c505f"/><path d="M107.7 66.8c-2.2-9.4-7.8-23.9-8.8-25.8-1.1-1.9-3.4-3.8-3.4-3.8-4.1-3-9.8-4.2-12.3-4.4s-3.7 1.6-3.7 1.6l-5.4 5.8C72.3 42.1 71 42 71 42H57s-1.3.1-3.1-1.8l-5.4-5.8s-1.2-1.8-3.7-1.6-8.2 1.4-12.3 4.4c0 0-2.3 1.9-3.4 3.8s-6.6 16.4-8.8 25.8-2.6 15.9-1 20.4 5.4 6.4 6.4 6.8 1.5.5 1.5.5 4.1-5 8.4-11.1c2.1-3 4.8-6.6 6.5-8S46.2 73 50 73l14-.1 14 .1c3.8 0 6.2 1 7.9 2.4s4.4 5 6.5 8a214.85 214.85 0 0 0 8.4 11.1s.5 0 1.5-.5 4.8-2.3 6.4-6.8 1.2-11-1-20.4z" fill="#e4e8f1"/><circle r="2" cy="46.9" cx="70.9" fill="#333"/><circle r="2.9" cy="37" cx="64.4" fill="#91c5ea"/><circle r="2" cy="46.9" cx="57.7" fill="#333"/><circle r="3" cy="46.9" cx="81.4" fill="#0484c0"/><g fill="#fff"><circle r="7.4" cy="60" cx="74.4"/><circle r="7.6" cy="46.9" cx="41.4"/></g><circle r="3" cy="46.9" cx="93.9" fill="#a62338"/><circle r="3" cy="40.9" cx="87.9" fill="#f7971d"/><circle r="3" cy="52.9" cx="87.9" fill="#2fa042"/><circle r="1.5" cy="40.9" cx="87.9" fill="#ffcd03"/><circle r="1.5" cy="52.9" cx="87.9" fill="#aac737"/><circle r="1.5" cy="46.9" cx="81.4" fill="#3ac2e5"/><circle r="1.5" cy="46.9" cx="93.9" fill="#e51b23"/><g fill="#e4e8f1"><circle r=".7" cy="46.9" cx="57.7"/><circle r=".7" cy="46.9" cx="70.9"/></g><defs><path id="E" d="M107.7 66.8c-2.2-9.4-7.8-23.9-8.8-25.8-1.1-1.9-3.4-3.8-3.4-3.8-4.1-3-9.8-4.2-12.3-4.4s-3.7 1.6-3.7 1.6l-5.4 5.8C72.3 42.1 71 42 71 42H57s-1.3.1-3.1-1.8l-5.4-5.8s-1.2-1.8-3.7-1.6-8.2 1.4-12.3 4.4c0 0-2.3 1.9-3.4 3.8s-6.6 16.4-8.8 25.8-2.6 15.9-1 20.4 5.4 6.4 6.4 6.8 1.5.5 1.5.5 4.1-5 8.4-11.1c2.1-3 4.8-6.6 6.5-8S46.2 73 50 73l14-.1 14 .1c3.8 0 6.2 1 7.9 2.4s4.4 5 6.5 8a214.85 214.85 0 0 0 8.4 11.1s.5 0 1.5-.5 4.8-2.3 6.4-6.8 1.2-11-1-20.4z"/></defs><clipPath id="F"><use xlink:href="#E"/></clipPath><path clip-path="url(#F)" d="M100.4 95.9l7.3-1.4 2.3-6.6-31.2-31.3-8.3 7.4 30.2 30.5-3 .7-52.2-52.1-8.4 7.5 23.3 23.3 24 21.5z" fill="#c6d2dc"/><circle r="8.3" cy="61.4" cx="52.2" fill="#fff"/><path d="M54.6 55.9c0-.5-.3-.9-.8-1s-1.1-.2-1.7-.2-1.1.1-1.7.2c-.5.1-.8.5-.8 1v2a.94.94 0 0 1-1 1h-2c-.5 0-.9.3-1 .8s-.2 1.1-.2 1.7.1 1.1.2 1.7c.1.5.5.8 1 .8h2a.94.94 0 0 1 1 1v2c0 .5.3.9.8 1s1.1.2 1.7.2 1.1-.1 1.7-.2c.5-.1.8-.5.8-1v-2a.94.94 0 0 1 1-1h2c.5 0 .9-.3 1-.8s.2-1.1.2-1.7-.1-1.1-.2-1.7c-.1-.5-.5-.8-1-.8h-2a.94.94 0 0 1-1-1z" fill="#333"/><path d="M52.2 56.1l-.9 1.5h1.9zm.1 10.6l.9-1.5h-1.9zm-3.8-4.3v-1.9l-1.5 1zm7.5-1.9v1.9l1.5-1zm-3.8-.2a1.11 1.11 0 0 0-1.1 1.1 1.11 1.11 0 0 0 1.1 1.1 1.11 1.11 0 0 0 1.1-1.1c-.1-.6-.5-1.1-1.1-1.1z" fill="#e4e8f1"/><path d="M74.4 64.6c-2.5 0-4.6-2.1-4.6-4.6s2.1-4.6 4.6-4.6S79 57.5 79 60s-2.1 4.6-4.6 4.6z" fill="#58555c"/><path d="M74.4 56.4c2 0 3.6 1.6 3.6 3.6s-1.6 3.6-3.6 3.6-3.6-1.6-3.6-3.6 1.6-3.6 3.6-3.6m0-2a5.59 5.59 0 1 0 0 11.2 5.59 5.59 0 1 0 0-11.2z" fill="#333"/><path d="M41.4 51.6c-2.6 0-4.7-2.1-4.7-4.7s2.1-4.7 4.7-4.7 4.7 2.1 4.7 4.7-2.1 4.7-4.7 4.7z" fill="#58555c"/><path d="M41.4 43.3c2 0 3.7 1.6 3.7 3.7s-1.6 3.7-3.7 3.7c-2 0-3.7-1.6-3.7-3.7s1.7-3.7 3.7-3.7m0-2c-3.1 0-5.7 2.5-5.7 5.7a5.63 5.63 0 0 0 5.7 5.7c3.1 0 5.7-2.5 5.7-5.7s-2.6-5.7-5.7-5.7z" fill="#333"/></g></svg>