<svg xmlns="http://www.w3.org/2000/svg" xmlns:xlink="http://www.w3.org/1999/xlink" height="48" width="48"><style><![CDATA[.d{stroke-miterlimit:10}.e{stroke:#9b9d9e}.f{stroke-width:0.25}]]></style><g transform="matrix(.106423 0 0 .106423 -3.753435 -3.164171)"><circle r="225.515" cy="255.247" cx="260.784" fill="#1f5a6e"/><g opacity=".8"><defs><path id="A" d="M392.67 141.736l126.65 158.98-79.935 110.71L310.707 522.48l-100.76-108.116 52.764-79.15z"/></defs><clipPath id="B"><use height="100%" width="100%" xlink:href="#A" x="0" y="0"/></clipPath><linearGradient y2="649.914" x2="501.583" y1="157.094" x1="200.897" gradientUnits="userSpaceOnUse" id="C"><stop offset="0" stop-color="#1A171B"/><stop offset=".424" stop-color="#1A171B" stop-opacity=".326"/><stop offset=".503" stop-color="#1A171B" stop-opacity=".281"/><stop offset="1" stop-color="#1A171B" stop-opacity="0"/></linearGradient><circle r="225.515" cy="255.247" cx="260.784" clip-path="url(#B)" fill="url(#C)"/></g><path d="M222.433 417.227c-9.56 3.443-20.208-.457-25.312-9.26L92.962 228.085c-2.813-4.854-3.567-10.52-2.122-15.947a20.92 20.92 0 0 1 9.783-12.795l101.11-58.545a20.94 20.94 0 0 1 3.442-1.598c9.567-3.448 20.208.453 25.304 9.26l104.16 179.872c2.813 4.856 3.572 10.522 2.125 15.95-1.45 5.437-4.925 9.97-9.784 12.8l-101.105 58.538c-1.11.644-2.263 1.182-3.44 1.61z" fill="#fff" class="d e f"/><path d="M124.535 239.957c-1.064 1.715-2.313 2.95-4.032 3.663-3.372 1.418-6.627-.22-7.482-3.772-.504-2.088-.3-4.163.278-6.192 1.045-3.633 1.687-7.328 1.87-11.112.005-.13.04-.256.077-.475l2.18 1.137c2.613 1.298 5.354 2.204 8.202 2.823 1.796.4 3.467 1.09 4.922 2.236 1.858 1.465 3.003 3.313 2.515 5.775-.49 2.445-2.173 3.863-4.472 4.583-.74.234-1.528.318-2.382.5 1.453 1.682 3.072 3.078 5.453 3.644l-6.445 3.732c.3-2.24-.043-4.316-.684-6.532zm-14.638-20.905l.996 4.382-1.552.936-3.058-13.998 1.812-1.087 10.96 9.227-1.6.964-3.443-2.9zm3.1-3.464l-3.155-2.66c-.714-.606-1.297-1.188-1.878-1.757l-.033.023.68 2.45.89 4.056zm193.716 102.485c1.06-1.72 2.314-2.95 4.026-3.67 3.373-1.418 6.63.22 7.5 3.776.5 2.092.296 4.166-.285 6.185-1.04 3.648-1.682 7.336-1.867 11.122-.006.128-.04.262-.076.473l-2.18-1.138c-2.612-1.294-5.354-2.202-8.204-2.822-1.796-.385-3.464-1.087-4.918-2.23-1.857-1.473-3.007-3.326-2.515-5.78.485-2.445 2.165-3.863 4.466-4.584.742-.23 1.53-.312 2.385-.486-1.455-1.688-3.072-3.08-5.45-3.643l6.444-3.73c-.3 2.234.042 4.313.685 6.53zm14.635 20.9l-.994-4.372 1.55-.94 3.062 13.994-1.812 1.092-10.96-9.222 1.598-.964 3.445 2.9zm-3.103 3.473l3.155 2.652c.714.606 1.304 1.193 1.88 1.757l.034-.018-.682-2.46-.9-4.047z"/><path d="M223.98 399.743c-10.08 1.258-19.61-4.88-22.662-14.59l-62.15-198.35c-1.68-5.354-1.17-11.05 1.43-16.024 2.608-4.99 6.994-8.652 12.354-10.334l111.488-34.937a21.17 21.17 0 0 1 3.71-.805 21 21 0 0 1 22.655 14.585L352.96 337.64c1.682 5.348 1.176 11.047-1.43 16.025a20.94 20.94 0 0 1-12.354 10.333l-111.49 34.933a21.1 21.1 0 0 1-3.707.811z" fill="#fff" class="d e f"/><path d="M169.803 194.43c.023-.63-.062-1.264-.27-1.9-.925-2.803-3.953-4.33-6.765-3.407-2.81.934-4.336 3.955-3.412 6.767.208.628.52 1.18.906 1.667-2.597 1.052-3.963 3.947-3.078 6.642.93 2.81 3.955 4.34 6.767 3.41.917-.3 1.7-.832 2.3-1.497.185 1.91.235 4.155-.434 5.55l7.896-2.603c-1.492-.7-2.918-2.538-4.002-4.18a5.38 5.38 0 0 0 2.913-.123c2.81-.934 4.335-3.955 3.4-6.767a5.35 5.35 0 0 0-6.233-3.557zm-12.712-11.53l.01 4.487-1.718.574.084-14.324 2-.66 8.67 11.397-1.774.596-2.722-3.583zm3.787-2.698l-2.495-3.3c-.562-.743-1-1.44-1.45-2.124l-.035.014.122 2.537-.018 4.148zM323.45 332.37a5.42 5.42 0 0 0 .268 1.904 5.35 5.35 0 0 0 6.764 3.4c2.812-.918 4.338-3.95 3.412-6.758a5.37 5.37 0 0 0-.904-1.67c2.594-1.05 3.965-3.94 3.076-6.64-.928-2.813-3.957-4.34-6.766-3.404-.918.294-1.698.82-2.304 1.49-.182-1.918-.235-4.148.435-5.547l-7.896 2.6c1.494.697 2.918 2.533 4.002 4.18-.93-.22-1.932-.193-2.91.128-2.8.922-4.337 3.955-3.4 6.767.867 2.634 3.584 4.138 6.232 3.547zm12.7 11.54l-.012-4.492 1.72-.578-.085 14.33-2.014.665-8.668-11.397 1.775-.596 2.72 3.588zm-3.787 2.702l2.492 3.28c.566.743 1.014 1.45 1.45 2.13l.037-.014-.127-2.546.02-4.148z" fill="#8d1f31"/><path d="M236.418 389.98c-10.156-.234-18.686-7.7-20.28-17.758l-32.375-205.32a20.88 20.88 0 0 1 3.764-15.644c3.31-4.552 8.187-7.53 13.736-8.412l115.408-18.203c1.254-.197 2.524-.273 3.787-.245 10.163.23 18.688 7.698 20.272 17.758l32.378 205.3c.878 5.54-.456 11.102-3.76 15.648s-8.185 7.53-13.734 8.404L240.2 389.72c-1.26.2-2.53.287-3.783.26z" fill="#fff" class="d e f"/><path d="M210.663 197.095l-10.83-11.11 7.374-13.87 10.834 11.115zm-6.73-30.036l-.645 4.446-1.786.312 2.188-14.16 2.083-.362 6.9 12.55-1.837.33-2.167-3.946zm4.145-2.12l-1.985-3.61c-.45-.82-.786-1.574-1.122-2.317l-.036.005-.255 2.533-.623 4.102zm138.497 157.78l10.835 11.103-7.377 13.87-10.832-11.112zm6.73 30.034l.646-4.44 1.78-.317-2.183 14.15-2.084.372-6.904-12.55 1.84-.33 2.165 3.946zm-4.145 2.12l1.987 3.61c.447.82.783 1.578 1.123 2.312l.037-.005.25-2.533.625-4.102z"/><path d="M253.368 381.805a21.03 21.03 0 0 1-16.538-21.281l7.203-207.742c.195-5.6 2.562-10.803 6.667-14.64a20.95 20.95 0 0 1 15.084-5.644l116.766 4.047a21.64 21.64 0 0 1 3.766.468c9.937 2.16 16.89 11.112 16.53 21.285l-7.203 207.728c-.19 5.604-2.555 10.816-6.663 14.644-4.1 3.843-9.466 5.845-15.08 5.65l-116.766-4.047c-1.277-.048-2.544-.203-3.766-.468z" fill="#fff" class="d e f"/><path d="M341.795 225.1c14.33.548 27.854 12 27.147 34.68-.627 20.104-20.615 36.81-33.186 44.38l-21.207 12.257-20.213-13.837c-11.963-8.5-30.614-26.683-29.714-46.764 1.026-22.67 15.378-33.066 29.702-32.514 8.795.332 17.573 4.78 23.26 13.042l.023.007c6.305-7.812 15.4-11.587 24.19-11.25m-69.2-62.99c2.837.106 5.52 2.372 5.378 6.873-.122 3.982-4.084 7.295-6.577 8.8l-4.203 2.423-4-2.753c-2.376-1.675-6.068-5.28-5.9-9.263.204-4.483 3.048-6.547 5.885-6.437 1.745.07 3.48.95 4.6 2.588h.004c1.25-1.542 3.05-2.3 4.794-2.23m-8.168-8.68l-1.483 4.24-1.8-.032 4.838-13.48 2.116.04 4.394 13.627-1.87-.023-1.375-4.3zm4.468-1.294l-1.264-3.923c-.283-.895-.476-1.707-.66-2.49l-.035.005-.73 2.436-1.396 3.904zm96.826 205.272c-2.84-.1-5.52-2.372-5.38-6.868.127-3.978 4.092-7.295 6.578-8.79l4.2-2.436 4 2.744c2.375 1.688 6.07 5.285 5.894 9.273-.2 4.483-3.05 6.547-5.887 6.442-1.742-.07-3.482-.95-4.607-2.583h-.006c-1.246 1.542-3.05 2.29-4.793 2.22m8.168 8.685l1.48-4.235 1.81.028-4.835 13.484-2.113-.04-4.397-13.636 1.872.032 1.378 4.285zm-4.47 1.294l1.265 3.927c.28.895.47 1.698.663 2.487h.038l.723-2.44 1.396-3.904z" fill="#8d1f31"/></g></svg>