<svg xmlns="http://www.w3.org/2000/svg" viewBox="0 0 48 48.007" height="49" width="48"><g transform="matrix(.081269 0 0 .081269 -.188952 -10.209844)"><circle r="295.315" cy="420.945" cx="297.64" fill="#f89f6a"/><path d="M400.652 216.55H194.63a10.42 10.42 0 0 0-10.464 10.464v387.862a10.42 10.42 0 0 0 10.464 10.464h205.8a10.42 10.42 0 0 0 10.464-10.464V227.014c.232-5.813-4.42-10.464-10.23-10.464z" fill="#36505f"/><path d="M192.303 258.87h210.44v304.85h-210.44z" fill="#bbc2c6"/><g fill="#0b2c48"><path d="M275.55 235.152h44.18v7.44h-44.18z"/><circle r="18.835" cy="592.786" cx="297.64"/></g></g><path d="M15.05 40.384l7.42 7.568s13.09 1.442 21.37-10.442c0 0 4.624-6.163 4.116-14.997L33.126 7.86l.077 31.635s.026 1.115-.85 1.115H15.995s-.75.046-.946-.227z" fill="#c57e54"/></svg>