<svg xmlns="http://www.w3.org/2000/svg" xmlns:xlink="http://www.w3.org/1999/xlink" width="48" height="48"><g transform="scale(.375)"><circle r="64" cy="64" cx="64" fill="#58505b"/><defs><circle r="64" id="A" cy="64" cx="64"/></defs><clipPath id="B"><use xlink:href="#A"/></clipPath><path clip-path="url(#B)" d="M128 63.1L89 24.2l-6.9 25.3-24.9-25.1-24.6 79L57.2 128H128z" fill="#413b43"/><path d="M53.6 105.1H36.3a4.95 4.95 0 0 1-5-5V27.9a4.95 4.95 0 0 1 5-5h17.2a4.95 4.95 0 0 1 5 5V100c.1 2.8-2.2 5.1-4.9 5.1z" fill="#fcd6bd"/><path d="M89.1 46.3H77V37c0-3.4 1.3-6.9 4.1-9.2 3.3-2.7 6.3-3.7 6.3-3.7.7-.3 1.7-.2 1.7.6z" fill="#e83583"/><path d="M91.7 105.1H74.4a4.95 4.95 0 0 1-5-5V68.6c0-1.1.9-2 2-2h23.2c1.1 0 2 .9 2 2V100c.1 2.8-2.2 5.1-4.9 5.1z" fill="#fcd6bd"/><path d="M72.7 100.1V68.6c0-1.1.9-2 2-2h-3.2c-1.1 0-2 .9-2 2V100a4.95 4.95 0 0 0 5 5h3.2c-2.8.1-5-2.2-5-4.9z" fill="#feefdf"/><path d="M93.4 100.1V68.6c0-1.1-.9-2-2-2h3.2c1.1 0 2 .9 2 2V100a4.95 4.95 0 0 1-5 5h-3.2c2.8.1 5-2.2 5-4.9z" fill="#ef7d5a" opacity=".23"/><path d="M92.9 69H73.2V47.2c0-1.1.9-2 2-2h15.7c1.1 0 2 .9 2 2z" fill="#fcd6bd"/><path d="M76.5 45.2h-1.2c-1.1 0-2 .9-2 2V69h3.2z" fill="#feefdf"/><path d="M89.6 45.2h1.2c1.1 0 2 .9 2 2V69h-3.2z" fill="#ef7d5a" opacity=".23"/><path d="M96.7 75.2H69.4v-6.6c0-1.1.9-2 2-2h23.2c1.1 0 2 .9 2 2v6.6z" fill="#e83583"/><path d="M34.5 100.1V27.9a4.95 4.95 0 0 1 5-5h-3.1a4.95 4.95 0 0 0-5 5V100a4.95 4.95 0 0 0 5 5h3.1c-2.8.1-5-2.2-5-4.9z" fill="#feefdf"/><path d="M55.5 100.1V27.9a4.95 4.95 0 0 0-5-5h3.1a4.95 4.95 0 0 1 5 5V100a4.95 4.95 0 0 1-5 5h-3.1c2.7.1 5-2.2 5-4.9z" fill="#ef7d5a" opacity=".23"/><path d="M31.3 66.6h27.2v8.6H31.3z" fill="#e83583"/><path d="M31.3 66.6h3.1v8.6h-3.1z" fill="#eb619f"/><path d="M55.5 66.6h3.1v8.6h-3.1z" fill="#d20069"/><path d="M69.4 68.6v6.6h3.2v-8.6h-1.2c-1.1 0-2 .9-2 2z" fill="#eb619f"/><path d="M94.7 66.6h-1.2v8.6h3.2v-6.6c0-1.1-.9-2-2-2z" fill="#d20069"/></g></svg>