<svg xmlns="http://www.w3.org/2000/svg" xmlns:xlink="http://www.w3.org/1999/xlink" width="48" height="48"><g transform="scale(.375)"><circle r="64" cy="64" cx="64" fill="#ffcd03"/><g opacity=".3"><defs><circle r="64" id="A" cy="64" cx="64" opacity=".3"/></defs><clipPath id="B"><use height="100%" width="100%" xlink:href="#A" y="0"/></clipPath><path clip-path="url(#B)" d="M61.777 128L43.12 109.338 91.254 23.77l36.773 36.785V128z" fill="#c18643"/></g><path d="M99.38 44.515L97 35v-3a4 4 0 0 0-4-4 6 6 0 0 0-6-6H41a6 6 0 0 0-6 6 4 4 0 0 0-4 4v3l-2.38 9.515A2 2 0 0 0 30.562 47H33l9 60a3 3 0 0 0 3 3h38a3 3 0 0 0 3-3l9-60h2.438a2 2 0 0 0 1.941-2.485z" fill="#fff"/><defs><path id="C" d="M99.38 44.515L97 35v-3a4 4 0 0 0-4-4 6 6 0 0 0-6-6H41a6 6 0 0 0-6 6 4 4 0 0 0-4 4v3l-2.38 9.515A2 2 0 0 0 30.562 47H33l9 60a3 3 0 0 0 3 3h38a3 3 0 0 0 3-3l9-60h2.438a2 2 0 0 0 1.941-2.485z"/></defs><clipPath id="D"><use height="100%" width="100%" xlink:href="#C" x="0" y="0"/></clipPath><path clip-path="url(#D)" d="M27 47h73v44H27z" fill="#ecefed"/><path clip-path="url(#D)" d="M27.44 28h73v7.004h-73z" fill="#91bf3e"/><path clip-path="url(#D)" d="M27.44 35h73v2.93h-73zM27 47h73v3H27zm0 60h73v3H27z" fill="#385c67"/><path clip-path="url(#D)" d="M27.44 90.368h73v16.657h-73z" fill="#91bf3e"/><circle r="15" cy="70.039" cx="64" fill="#385c67"/><path d="M64.02 72.048c-.62-5.672-4.424-8.604-4.424-8.604s4.8 1.567 5.943 6.018c.668 2.598 2.455 6.086 5.07 7.7l.29.2c2.34-2.786 2.5-7.453.112-11.473-2.875-4.84-8.344-6.9-12.216-4.6S54.115 69.367 57 74.207c2.555 4.3 7.156 6.398 10.867 5.2-1.4-1.186-3.416-3.51-3.838-7.358z" fill="#e7dab2"/></g></svg>