<svg xmlns="http://www.w3.org/2000/svg" xmlns:xlink="http://www.w3.org/1999/xlink" height="48" width="48"><g transform="scale(.375)"><circle cx="64" cy="64" r="64" fill="#00b1a7"/><defs><circle cx="64" cy="64" id="A" r="64"/><path id="B" d="M45.5 86.7c-.2-.2-.3-.5-.3-.9h.5c0 .2.1.4.1.5.1.2.3.3.6.3.2 0 .4-.1.6-.2.1-.1.2-.3.2-.5 0-.3-.1-.4-.2-.5-.2-.1-.4-.1-.6-.1h-.2v-.4h.2c.2 0 .3 0 .4-.1a.55.55 0 0 0 .3-.5c0-.2-.1-.3-.2-.4s-.3-.1-.4-.1c-.3 0-.5.1-.6.3-.1.1-.1.3-.1.5h-.5c0-.3.1-.5.2-.7.2-.3.5-.5 1-.5.4 0 .7.1.9.2.2.2.3.4.3.7 0 .2-.1.4-.2.5s-.2.2-.3.2a1.38 1.38 0 0 1 .4.3c.1.2.2.3.2.5 0 .3-.1.6-.3.8s-.6.3-1 .3c-.5.1-.8 0-1-.2z"/><path id="C" d="M55.7 84.3V84c.3 0 .6-.1.7-.2s.2-.3.3-.5h.4v3.6h-.5v-2.6z"/><path id="D" d="M61.1 84.8c-.1-.1-.2-.3-.2-.5 0-.3.1-.5.3-.7s.5-.3.8-.3.6.1.8.3.3.4.3.6-.1.4-.2.6c-.1.1-.2.2-.3.2.2.1.3.1.4.2.2.2.2.4.2.7s-.1.6-.3.8-.5.3-.9.3-.7-.1-.9-.3-.4-.5-.4-.8c0-.2.1-.4.2-.6s.3-.3.5-.4c-.1 0-.2 0-.3-.1zm1.5 1.6c.1-.1.2-.3.2-.5s-.1-.4-.2-.5-.3-.2-.6-.2c-.2 0-.4.1-.5.2s-.2.3-.2.5.1.4.2.5.3.2.6.2c.2 0 .3-.1.5-.2zm-.1-1.8c.1-.1.2-.2.2-.4a.76.76 0 0 0-.2-.4c-.1-.1-.3-.2-.5-.2s-.4.1-.5.2-.1.2-.1.4.1.3.2.4.3.1.4.1c.2.1.4 0 .5-.1z"/><path id="E" d="M79.2 83.3v.4c-.1.1-.3.3-.5.6s-.4.6-.5.9-.3.6-.3.9c0 .2-.1.4-.2.8h-.5c.1-.7.4-1.4.8-2.1.2-.4.5-.7.7-1h-2v-.5z"/><path id="F" d="M65.3 93.8h.9c.3 0 .5.1.7.3.1.2.2.4.2.7 0 .2 0 .4-.1.6-.1.3-.4.5-.8.5h-.9zm.8 1.9h.2c.1 0 .2-.1.3-.2s.1-.2.1-.3V95c0-.3-.1-.5-.2-.6s-.3-.2-.5-.2h-.5v1.7z"/></defs><clipPath id="G"><use xlink:href="#A"/></clipPath><g clip-path="url(#G)"><path d="M128 65.8L84.3 22.3 34 99.9 62 128h66z" opacity=".35" fill="#3b6d6d"/></g><path d="M94.8 67.6L35.5 86.9a4.59 4.59 0 0 1-5.8-2.9L17.4 46.3a4.59 4.59 0 0 1 2.9-5.8l59.4-19.4a4.59 4.59 0 0 1 5.8 2.9l12.3 37.7c.8 2.5-.6 5.1-3 5.9z" fill="#ffe3a7"/><path d="M19.064 51.593l68.063-22.217 3.413 10.457L22.478 62.05z" fill="#59515c"/><path d="M85.2 56.1l4.4-1.4c.5-.2.8-.7.6-1.3l-2.3-7.1c-.2-.5-.7-.8-1.3-.6L82.2 47c-.5.2-.8.7-.6 1.3l2.3 7.1c.2.5.7.8 1.3.7zm-29.1 9.4l24.3-7.9c.5-.2.8-.7.6-1.3l-2.3-7.1c-.2-.5-.7-.8-1.3-.6l-24.3 7.9c-.5.2-.8.7-.6 1.3l2.3 7.1c.2.5.8.8 1.3.6z" opacity=".46" fill="#a05b41"/><path d="M100 101.7H37.5c-2.5 0-4.6-2.1-4.6-4.6V57.5c0-2.5 2.1-4.6 4.6-4.6H100c2.5 0 4.6 2.1 4.6 4.6v39.6c-.1 2.5-2.1 4.6-4.6 4.6z" fill="#f1f8f5"/><circle cx="91.5" cy="66.6" r="6.3" fill="#d22027"/><circle cx="83.1" cy="66.6" r="6.3" fill="#fcb813"/><g fill="#3a3f48"><path d="M40 86c0 .3.1.4.3.5.1.1.2.1.3.1.2 0 .4-.1.6-.3s.3-.6.3-1.1c-.1.2-.2.3-.4.3-.1.1-.3.1-.5.1-.4 0-.6-.1-.8-.3s-.3-.5-.3-.8.1-.6.3-.9.5-.4.9-.4c.5 0 .9.2 1.1.7.1.3.2.6.2 1s-.1.8-.2 1.2c-.2.6-.6.9-1.1.9-.4 0-.6-.1-.8-.3s-.3-.4-.3-.7zm1.2-.9c.1-.1.2-.3.2-.6s-.1-.5-.2-.6-.3-.2-.5-.2-.4.1-.5.2-.2.3-.2.6c0 .2.1.4.2.6.1.1.3.2.6.2a.76.76 0 0 0 .4-.2zm1.5-.3c-.1-.1-.2-.3-.2-.5 0-.3.1-.5.3-.7s.5-.3.8-.3.6.1.8.3.3.4.3.6-.1.4-.2.6c-.1.1-.2.2-.3.2.2.1.3.1.4.2.2.2.2.4.2.7s-.1.6-.3.8-.5.3-.9.3-.7-.1-.9-.3-.4-.5-.4-.8c0-.2.1-.4.2-.6s.3-.3.5-.4c-.1 0-.2 0-.3-.1zm1.5 1.6c.1-.1.2-.3.2-.5s-.1-.4-.2-.5-.3-.2-.6-.2c-.2 0-.4.1-.5.2s-.2.3-.2.5.1.4.2.5.3.2.6.2c.2 0 .4-.1.5-.2zm-.1-1.8c.1-.1.2-.2.2-.4a.76.76 0 0 0-.2-.4c-.1-.1-.3-.2-.5-.2s-.4.1-.5.2c0 .2-.1.3-.1.5s.1.3.2.4.3.1.4.1c.2 0 .4-.1.5-.2z"/><use xlink:href="#B"/><path d="M48.4 86.1c.1-.2.3-.4.7-.6l.5-.3c.2-.1.4-.2.5-.3s.2-.3.2-.5-.1-.4-.2-.5-.3-.2-.5-.2c-.3 0-.5.1-.6.4-.1.1-.1.3-.1.5h-.5c0-.3.1-.6.2-.8.2-.4.5-.5 1-.5.4 0 .7.1.9.3s.3.5.3.8-.1.5-.3.7c-.1.1-.3.3-.6.4l-.3.2c-.2.1-.3.2-.4.3a.55.55 0 0 0-.3.5h2v.4h-2.5c-.2-.3-.1-.6 0-.8z"/><use xlink:href="#C"/><use xlink:href="#C" x="2.5"/><use xlink:href="#D"/><path d="M64.2 86c0 .3.1.4.3.5.1.1.2.1.3.1.2 0 .4-.1.6-.3s.3-.6.3-1.1c-.1.2-.2.3-.4.3-.1.1-.3.1-.5.1-.3 0-.6-.1-.8-.3s-.3-.5-.3-.8.1-.6.3-.9.5-.4.9-.4c.5 0 .9.2 1.1.7.1.3.2.6.2 1s-.1.8-.2 1.2c-.2.6-.6.9-1.1.9-.4 0-.6-.1-.8-.3s-.3-.4-.3-.7zm1.2-.9c.1-.1.2-.3.2-.6s-.1-.5-.2-.6-.3-.2-.5-.2-.4.1-.5.2-.2.3-.2.6c0 .2.1.4.2.6.1.1.3.2.6.2.1 0 .2-.1.4-.2zm6 .9c0 .3.2.4.4.5.1.1.2.1.4.1.3 0 .5-.1.6-.3s.2-.4.2-.6c0-.3-.1-.4-.2-.6-.3-.1-.5-.1-.7-.1s-.3 0-.4.1-.2.1-.3.3H71l.3-2h1.9v.4h-1.5l-.2 1c.1-.1.2-.1.2-.1.1-.1.3-.1.5-.1.3 0 .6.1.8.3s.3.5.3.8-.1.6-.3.9-.6.4-1 .4c-.3 0-.6-.1-.8-.3s-.4-.4-.4-.8h.6zm4.6-2.4c.2.2.2.4.2.7h-.5c0-.1-.1-.3-.1-.3-.1-.2-.3-.2-.5-.2-.3 0-.5.1-.6.4-.2.2-.2.6-.3 1 .1-.2.2-.3.4-.3.1-.1.3-.1.5-.1.3 0 .6.1.8.3s.3.5.3.9c0 .3-.1.6-.3.9s-.5.4-.9.4c-.3 0-.6-.1-.9-.4-.2-.3-.4-.7-.4-1.3 0-.5.1-.8.2-1.1.2-.6.6-.9 1.2-.9.4-.3.7-.2.9 0zm-.4 2.8c.1-.2.2-.4.2-.6s-.1-.4-.2-.5c-.1-.2-.3-.3-.6-.3-.2 0-.4.1-.5.2s-.2.3-.2.6c0 .2.1.4.2.6s.3.2.6.2c.2 0 .4-.1.5-.2z"/><use xlink:href="#E"/><use xlink:href="#B" x="34.3"/><use xlink:href="#D" x="26"/><use xlink:href="#E" x="13"/><path d="M94.1 86.9V86h-1.6v-.4l1.7-2.3h.4v2.4h.5v.3h-.5v.9zm0-1.3V84l-1.2 1.6z"/><use xlink:href="#B" x="50.2"/></g><path d="M54.3 65.6h-3.5v4.8h4.6v-3.6c.1-.7-.5-1.2-1.1-1.2zm-9.4 10.6h4.8V65.6h-4.8zm-5.4-1.1a1.11 1.11 0 0 0 1.1 1.1h3.2v-4.8h-4.3zm0-8.4v3.6h4.3v-4.8h-3.2c-.6.1-1.1.6-1.1 1.2zm11.3 9.5h3.5a1.11 1.11 0 0 0 1.1-1.1v-3.6h-4.6z" fill="#8a7967"/><g fill="#6d8793"><path d="M39.6 95.4c.1-.1.2-.3.4-.4l.3-.2c.1-.1.2-.1.3-.2s.1-.2.1-.3 0-.2-.1-.3-.2-.1-.3-.1c-.2 0-.3.1-.4.2 0 .1-.1.2-.1.3h-.3c0-.2 0-.3.1-.4.1-.2.3-.3.6-.3.2 0 .4.1.5.2a.76.76 0 0 1 .2.4c0 .2-.1.3-.2.4s-.2.2-.4.2l-.2.1c-.1.1-.2.1-.2.1-.1.1-.2.2-.2.3H41v.2h-1.4c-.1.1 0 0 0-.2z"/><path d="M41.3 95.7c-.1-.1-.2-.3-.2-.5h.3c0 .1 0 .2.1.3s.2.2.4.2c.1 0 .2 0 .3-.1s.1-.2.1-.3 0-.2-.1-.3-.2-.1-.4-.1h-.2v-.2h.4c.1-.1.2-.2.2-.3s0-.2-.1-.2c0-.1-.1-.2-.2-.2-.2 0-.3.1-.4.2 0 .1-.1.2-.1.3h-.3c0-.2 0-.3.1-.4.1-.2.3-.3.6-.3.2 0 .4 0 .5.1s.2.2.2.4c0 .1 0 .2-.1.3 0 0-.1.1-.2.1.1 0 .2.1.3.2s.1.2.1.3c0 .2-.1.4-.2.5s-.3.2-.6.2c-.2 0-.4 0-.5-.2zm2.3-1.9h.2l-.7 2.1h-.2zm.4.6v-.2c.2 0 .3 0 .4-.1.1 0 .1-.1.2-.3h.2v2.1h-.3v-1.5zm1.8 1c0 .1.1.3.2.3h.2c.2 0 .3 0 .3-.1.1-.1.1-.2.1-.3s0-.3-.1-.3c-.1-.1-.2-.1-.3-.1s-.2 0-.2.1c-.1 0-.1.1-.2.1h-.2l.2-1.1h1.1v.3H46l-.1.6.1-.1h.3c.2 0 .4.1.5.2s.2.3.2.5-.1.4-.2.5c-.1.2-.3.2-.6.2-.2 0-.3 0-.4-.1s-.2-.2-.2-.4h.2zm44.5-1.6h.4l.6 1.8.6-1.8h.4v2.1H92v-1.8l-.6 1.8h-.3l-.6-1.8v1.8h-.3v-2.1zm2.8 0v1.3c0 .2 0 .3.1.4.1.2.2.2.4.2a.55.55 0 0 0 .5-.3c0-.1.1-.2.1-.4v-1.3h.3V95c0 .3 0 .5-.1.6-.1.3-.4.4-.7.4-.4 0-.6-.1-.7-.4-.1-.1-.1-.3-.1-.6v-1.2zm1.9 0h.3v1.9h1.1v.3H95zm2.9 0v.3h-.7V96h-.3v-1.9h-.7v-.3z"/></g><path d="M63.9 30.8a.78.78 0 0 1 .4.4l-.3.1-.3-.3h-.4a.78.78 0 0 0-.4.4c-.1.2-.1.4 0 .7.1.2.2.4.4.5s.3.1.6.1a.78.78 0 0 0 .4-.4v-.4l.3-.1c0 .2 0 .4-.1.6s-.3.4-.6.5c-.2.1-.5.1-.7 0-.3-.1-.5-.4-.6-.8-.1-.3-.1-.6 0-.8.1-.3.3-.5.6-.5.3-.1.6-.1.7 0zm.6-.4l.9-.3c.2-.1.3-.1.4-.1.2 0 .4.2.4.4v.3c0 .1-.1.2-.2.3.1 0 .2 0 .2.1.1 0 .1.1.2.2l.1.3c0 .1.1.1.1.2s.1.1.1.1l-.3.1v-.1s0-.1-.1-.2l-.1-.3c-.1-.1-.1-.2-.2-.2h-.3l-.6.2.3.9-.3.1zm1.3.7c.1 0 .2-.1.3-.2s.1-.2 0-.3c0-.1-.1-.2-.3-.2h-.2l-.7.2.2.7zm.8-1.3l1.5-.5.1.3-1.2.3.2.6 1.1-.4.1.2-1.1.4.2.7 1.2-.4.1.2-1.5.5zm1.9-.7l.8-.3c.3-.1.5-.1.7.1.2.1.3.3.4.6.1.2.1.4.1.6 0 .4-.2.6-.6.7l-.8.3zm1.4 1.6c.1 0 .2-.1.2-.1.1-.1.2-.2.2-.3v-.4c0-.1 0-.2-.1-.2-.1-.3-.2-.4-.3-.5s-.3-.1-.5-.1l-.5.2.5 1.6zm.7-2.3l.3-.1.7 2.1-.3.1zm2.3-.7l.1.3-.7.2.6 1.8-.3.1-.6-1.8-.7.2-.1-.2zm2.5-.6a.78.78 0 0 1 .4.4l-.3.1-.3-.3h-.4a.78.78 0 0 0-.4.4c-.1.2-.1.4 0 .7.1.2.2.4.4.5s.3.1.6.1a.78.78 0 0 0 .4-.4v-.4l.3-.1c0 .2 0 .4-.1.6s-.3.4-.6.5c-.2.1-.5.1-.7 0-.3-.1-.5-.4-.6-.8-.1-.3-.1-.6 0-.8.1-.3.3-.5.6-.5.3-.1.5-.1.7 0zm1.2-.6l.3-.1 1.4 1.8-.3.1-.4-.5-.8.2v.7l-.3.1zm.8 1.1l-.6-.8v1zm.5-1.5l.9-.3c.2-.1.3-.1.4-.1.2 0 .4.2.4.4v.3c0 .1-.1.2-.2.3.1 0 .2 0 .2.1.1 0 .1.1.2.2l.1.3c0 .1.1.1.1.2s.1.1.1.1l-.3.1v-.1s0-.1-.1-.2l-.1-.3c-.1-.1-.1-.2-.2-.2h-.3l-.6.2.3.9-.3.1zm1.2.6c.1 0 .2-.1.3-.2s.1-.2 0-.3c0-.1-.1-.2-.3-.2h-.2l-.7.2.2.7zm.9-1.3l.8-.3c.3-.1.5-.1.7.1.2.1.3.3.4.6.1.2.1.4.1.6 0 .4-.2.6-.6.7l-.8.3zm1.3 1.6c.1 0 .2-.1.2-.1.1-.1.2-.2.2-.3v-.4c0-.1 0-.2-.1-.2-.1-.3-.2-.4-.3-.5s-.3-.1-.5-.1l-.5.2.5 1.6z" fill="#59515c"/><g fill="#6d8793"><path d="M60.4 94c.2.1.2.3.3.5h-.3c0-.1-.1-.2-.2-.3s-.2-.2-.4-.2-.4.1-.5.2c-.1.2-.2.4-.2.7s.1.5.2.6c.1.2.3.2.5.2a.55.55 0 0 0 .5-.3c.1-.1.1-.2.1-.3h.3c0 .2-.1.4-.2.6-.2.2-.4.3-.7.3-.2 0-.5-.1-.6-.2-.2-.2-.3-.5-.3-.9 0-.3.1-.6.2-.8.2-.2.4-.3.7-.3s.5.1.6.2zm.7-.2h1c.2 0 .3 0 .4.1a.55.55 0 0 1 .3.5c0 .1 0 .2-.1.3l-.2.2c.1 0 .1.1.2.1 0 .1.1.1.1.3v.5c0 .1 0 .1.1.1h-.4v-.7c0-.1-.1-.2-.2-.3h-.9v.9h-.3zm1 1c.1 0 .2 0 .3-.1s.1-.2.1-.3c0-.2-.1-.3-.2-.3h-.9v.7zm1.2-1h1.6v.3h-1.3v.7h1.2v.3h-1.2v.7h1.3v.3h-1.6z"/><use xlink:href="#F"/><path d="M67.5 93.8h.3V96h-.3zm2.4 0v.3h-.7V96h-.3v-1.9h-.7v-.3zm2.6.1c.2.1.2.3.3.5h-.3c0-.1-.1-.3-.2-.3-.2-.1-.3-.1-.5-.1s-.4.1-.5.2c-.1.2-.2.4-.2.7s.1.5.2.6c.1.2.3.2.5.2a.55.55 0 0 0 .5-.3c.1-.1.1-.2.1-.3h.3c0 .2-.1.4-.2.6-.2.2-.4.3-.7.3-.2 0-.5-.1-.6-.2-.2-.2-.3-.5-.3-.9 0-.3.1-.6.2-.8.2-.2.4-.3.7-.3.3-.1.5 0 .7.1zm1.2-.1h.3l.8 2.2h-.3l-.2-.6h-.9l-.2.7h-.3zm.5 1.3l-.3-1-.3 1zm1-1.3h1c.2 0 .3 0 .4.1a.55.55 0 0 1 .3.5c0 .1 0 .2-.1.3l-.2.2c.1 0 .1.1.2.1 0 .1.1.1.1.3v.5c0 .1 0 .1.1.1h-.4v-.7c0-.1-.1-.2-.2-.3h-.9v.9h-.3zm.9 1c.1 0 .2 0 .3-.1s.1-.2.1-.3c0-.2-.1-.3-.2-.3h-.9v.7z"/><use xlink:href="#F" x="12"/></g></g></svg>