<svg xmlns="http://www.w3.org/2000/svg" width="48" height="48"><circle r="24" cy="24" cx="24" fill="#f1c40e"/><path d="M36.8 31.483c-1.177 0-2.133-.957-2.133-2.133v-8c0-.294-.24-.533-.533-.533H32c-.294 0-.533-.238-.533-.533s.24-.533.533-.533h2.133c.882 0 1.6.718 1.6 1.6v8a1.07 1.07 0 0 0 1.067 1.067 1.07 1.07 0 0 0 1.067-1.067v-9.067c0-.295.24-.533.533-.533s.533.238.533.533v9.067c0 1.177-.957 2.133-2.133 2.133z" fill="#232e38"/><path d="M16 37.35v-25.6c0-1.178.955-2.133 2.133-2.133h11.733c1.178 0 2.133.955 2.133 2.133v25.6z" fill="#e45544"/><path d="M32 37.883H16c-.294 0-.533-.24-.533-.534v-25.6a2.67 2.67 0 0 1 2.667-2.667h11.733a2.67 2.67 0 0 1 2.667 2.667v25.6c0 .295-.24.534-.533.534zm-15.467-1.067h14.933V11.75a1.6 1.6 0 0 0-1.6-1.6h-11.733a1.6 1.6 0 0 0-1.6 1.6z" fill="#3f291e"/><path d="M18.133 11.75h11.733v8.533H18.133z" fill="#abcfd3"/><path d="M29.867 20.816H18.133c-.294 0-.533-.238-.533-.533V11.75c0-.295.24-.534.533-.534h11.733c.294 0 .533.24.533.534v8.533c0 .295-.24.533-.533.533zm-11.2-1.066h10.667v-7.467H18.667z" fill="#232e38"/><path d="M16 35.216h16v2.133H16z" fill="#fff"/><path d="M32 37.883H16c-.294 0-.533-.24-.533-.534v-2.133c0-.295.24-.533.533-.533h16c.294 0 .533.238.533.533v2.133c0 .295-.24.534-.533.534zm-15.467-1.067h14.933V35.75H16.533z" fill="#3f291e"/><path d="M38.4 20.816a.53.53 0 0 1-.417-.2L35.85 17.95c-.184-.23-.147-.566.083-.75s.566-.147.75.083l2.133 2.667c.184.23.147.566-.083.75a.53.53 0 0 1-.333.117zM24 20.815a.53.53 0 0 1-.458-.259l-3.2-5.333c-.15-.253-.07-.58.183-.732s.58-.07.732.183l3.2 5.333c.15.253.07.58-.183.732-.086.05-.18.076-.274.076z" fill="#232e38"/><path d="M24 23.482c-.8 1.55-3.2 3.103-3.2 5.43 0 1.713 1.434 3.104 3.2 3.104s3.2-1.4 3.2-3.104c0-2.328-2.4-3.88-3.2-5.43z" clip-rule="evenodd" fill="#fff" fill-rule="evenodd"/><path d="M24 32.55c-2.06 0-3.733-1.63-3.733-3.636 0-1.73 1.12-3.02 2.108-4.157.467-.537.907-1.044 1.15-1.518a.56.56 0 0 1 .948 0c.244.474.685.98 1.15 1.518.988 1.138 2.108 2.427 2.108 4.157 0 2.005-1.675 3.636-3.733 3.636zm0-8.083a18.03 18.03 0 0 1-.82.989c-.908 1.045-1.846 2.126-1.846 3.458 0 1.417 1.196 2.57 2.667 2.57s2.667-1.152 2.667-2.57c0-1.333-.94-2.412-1.846-3.458l-.82-.99z" fill="#3f291e"/><path d="M37.333 37.883H10.667c-.294 0-.533-.238-.533-.533s.24-.533.533-.533h26.667c.294 0 .533.238.533.533s-.24.533-.533.533z" fill="#222"/><path d="M38.923 20.134l-.024 9.478c-.38 2.388-3.63 2.57-4.22-.08-.048-1.308-.002-8.286-.002-8.286s-.04-.33-.43-.43c-.424.001-1.712-.007-1.712-.007l-.007 16.013c.022.05 4.023-.014 4.835.001.21.016.514.185.502.55-.014.432-.436.512-.53.512l-26.863.002 7.082 9.235s5.253 1.45 10.018.616c3.307-.625 5.988-1.294 10.18-4.05 3.075-2.02 4.9-4.54 6.837-7.234 2.388-3.32 3.133-9 3.133-9l-15.6-17.14a4.7 4.7 0 0 0 .394.925c.06 1.556-.018 5.855.027 8.532.426.008.876-.028 1.81.008.532.032 1.225.51 1.374 1.333l.013 8.353c.01 1.113 1.907 1.44 2.118.02l.017-9-2.115-2.69c-.135-.812.65-.767.845-.625l2.32 2.97z" fill="#c6a200"/></svg>