<svg xmlns="http://www.w3.org/2000/svg" height="48" width="48"><circle cx="55" cy="55" r="55" fill="#e04f5f" transform="scale(.4363636374473572)"/><path d="M11.62 26.542l3.966 4.017.356 4.12 12.9 12.788s4.828-.91 9.534-4.22c1.633-1.148 4.41-3.885 6.395-7.218 2.83-4.748 2.866-7.785 2.866-7.785L36.66 17.136l-2.212-1.424-4.703-4.754-4.983 3.05-2.797-2.95-3.636 7.83-2.568-2.263z" fill="#cc2636"/><g fill="#fff"><path d="M28.364 24.877c-.436-2.182-1.745-4.8-4.364-4.8s-3.927 2.618-4.364 4.8c-.47 2.354-4.364 3.927-4.364 7.418 0 7.44 17.455 7.438 17.455 0 0-3.49-3.893-5.065-4.364-7.418z"/><ellipse cx="78.5" cy="49.511" rx="8.5" ry="13.5" transform="scale(0.43636364)"/><ellipse cx="63.784" cy="34.441" rx="7.207" ry="11.447" transform="matrix(-.436015 -.01728 .01728 -.436015 55.048363 31.149382)"/><ellipse cx="46.216" cy="34.441" rx="7.207" ry="11.447" transform="matrix(.436015 -.01728 .01728 .436015 -.579971 .811374)"/><ellipse cx="31.5" cy="49.511" rx="8.5" ry="13.5" transform="scale(0.43636364)"/></g></svg>