<svg xmlns="http://www.w3.org/2000/svg" xmlns:xlink="http://www.w3.org/1999/xlink" width="48" height="48"><style><![CDATA[.P{fill:#e6e6dc}.Q{fill:#f5f0e3}]]></style><g transform="scale(.375)"><circle r="64" cy="64" cx="64" fill="#a6519a"/><defs><circle r="64" id="A" cy="64" cx="64"/></defs><clipPath id="B"><use xlink:href="#A"/></clipPath><path clip-path="url(#B)" d="M61.9 128H128V69.1L79.7 21.3l4.5 8.9-12.3-12.3-12.1 10.2-6-5.9-11.6 11.6 5 5.1-9.5 12.9 6.7 6.8-1 1.2 7.7 10.7-30.8.4 23.3 23.4 1.2 16.6z" opacity=".7" fill="#7e3982"/><path d="M105.2 67c-7.8-7.8-19.5-9.5-28.9-4.9-2.5 1.2-4.8-4.4-6.8-2.4-2.2 2.2-4-3.6-5.4-2.3-1.3-1.3-3.5 4.5-5.7 2.3-2.3-2.3-4.7 3.2-7.5 1.9-9.2-4-20.4-2.2-27.9 5.3-10 10 9.4-2.9 24 11.7 3.3 3.3 3.3 15.9 13.1 6l3.8-3.9c1 1.1 2.3 2.3 3.8 3.9 9.9 9.9 9.8-2.7 13.1-6C95.6 64 115 76.9 105.2 67z" fill="#76b82a"/><defs><path id="C" d="M105.2 67c-7.8-7.8-19.5-9.5-28.9-4.9-2.5 1.2-4.8-4.4-6.8-2.4-2.2 2.2-4-3.6-5.4-2.3-1.3-1.3-3.5 4.5-5.7 2.3-2.3-2.3-4.7 3.2-7.5 1.9-9.2-4-20.4-2.2-27.9 5.3-10 10 9.4-2.9 24 11.7 3.3 3.3 3.3 15.9 13.1 6l3.8-3.9c1 1.1 2.3 2.3 3.8 3.9 9.9 9.9 9.8-2.7 13.1-6C95.6 64 115 76.9 105.2 67z"/></defs><clipPath id="D"><use xlink:href="#C"/></clipPath><path clip-path="url(#D)" d="M109 60.5v-2l-68.2.8L58 76.5h51z" fill="#4f9834"/><path d="M86.2 77.3H41.8c-1.3 0-2.2 1.3-2 2.8l4 28.5c.2 1.8 1.5 3.1 3.1 3.1h34.4c1.5 0 2.8-1.3 3.1-3.1l4-28.5c.1-1.4-.9-2.8-2.2-2.8z" fill="#d06b38"/><path d="M88.1 82.5H39.9c-1.9 0-3.4-1.8-3.4-4s1.5-4 3.4-4h48.2c1.9 0 3.4 1.8 3.4 4s-1.6 4-3.4 4z" fill="#f39149"/><g fill="#a04642"><path d="M88.1 74.6h-3.8c1.9 0 3.4 1.8 3.4 4s-1.5 4-3.4 4h-.2l-3.7 26.2c-.2 1.8-1.5 3.1-3.1 3.1h3.8c1.5 0 2.8-1.3 3.1-3.1l3.7-26.2h.2c1.9 0 3.4-1.8 3.4-4 0-2.3-1.6-4-3.4-4z" opacity=".45"/><path d="M40.1 82.5h47.8l-.4 3.2z" opacity=".4"/></g><path d="M40.1 82.5l3.7 26.2c.2 1.8 1.5 3.1 3.1 3.1h3.8c-1.5 0-2.8-1.3-3.1-3.1l-3.7-26.2h-.2c-1.9 0-3.4-1.8-3.4-4s1.5-4 3.4-4h-3.8c-1.9 0-3.4 1.8-3.4 4s1.5 4 3.4 4z" fill="#fed571" opacity=".28"/><path d="M72.4 21.2c0 6.5-6 19.8-8.1 19.8s-8.1-13.2-8.1-19.8 3.6-3.2 8.1-3.2 8.1-3.3 8.1 3.2z" class="P"/><path d="M64.4 18v23c2.1 0 8.1-13.2 8.1-19.8S68.9 18 64.4 18z" class="Q"/><path d="M56.3 67.6c0-6.5 6-19.8 8.1-19.8s8.1 13.2 8.1 19.8c0 6.5-3.6 3.2-8.1 3.2s-8.1 3.4-8.1-3.2z" class="P"/><path d="M64.3 70.8v-23c-2.1 0-8.1 13.2-8.1 19.8s3.6 3.2 8.1 3.2z" class="Q"/><path d="M87.5 52.5c-6.5 0-19.8-6-19.8-8.1s13.2-8.1 19.8-8.1 3.2 3.6 3.2 8.1 3.4 8.1-3.2 8.1z" class="P"/><path d="M90.7 44.5h-23c0 2.1 13.2 8.1 19.8 8.1s3.2-3.6 3.2-8.1z" class="Q"/><path d="M41.2 36.3c6.5 0 19.8 6 19.8 8.1s-13.2 8.1-19.8 8.1-3.2-3.5-3.2-8-3.4-8.2 3.2-8.2z" class="P"/><path d="M38 44.4h23c0-2.1-13.2-8.1-19.8-8.1S38 39.9 38 44.4z" class="Q"/><path d="M75 66.5c-4.6-4.6-9.7-18.2-8.2-19.7s15.1 3.6 19.7 8.2-.3 4.8-3.5 8-3.3 8.2-8 3.5z" class="P"/><path d="M83 63.1L66.7 46.9C65.3 48.4 70.3 62 75 66.6c4.6 4.6 4.8-.3 8-3.5z" class="Q"/><path d="M53.7 22.3c4.6 4.6 9.7 18.2 8.2 19.7s-15.1-3.6-19.7-8.2.3-4.8 3.5-8 3.4-8.1 8-3.5z" class="P"/><path d="M45.7 25.7L62 42c1.5-1.5-3.6-15.1-8.2-19.7s-4.9.2-8.1 3.4z" class="Q"/><path d="M42.2 55.1c4.6-4.6 18.2-9.7 19.7-8.2S58.3 62 53.7 66.6s-4.8-.3-8-3.5c-3.1-3.2-8.1-3.4-3.5-8z" class="P"/><path d="M45.7 63l16.2-16.2c-1.5-1.5-15.1 3.6-19.7 8.2s.3 4.9 3.5 8z" class="Q"/><path d="M86.5 33.8c-4.6 4.6-18.2 9.7-19.7 8.2s3.6-15.1 8.2-19.7 4.8.3 8 3.5 8.1 3.3 3.5 8z" class="P"/><path d="M83.1 25.8L66.8 42c1.5 1.5 15.1-3.6 19.7-8.2s-.3-4.8-3.4-8z" class="Q"/><circle r="10.2" cy="43.7" cx="64" fill="#ee458a"/><circle r="5.7" cy="43.7" cx="64" fill="#ffcd00"/></g></svg>