<svg xmlns="http://www.w3.org/2000/svg" height="48" width="48"><circle r="24" cy="24" cx="24" fill="#37505f"/><path d="M36.472 8.145l11.03 11.03c.648 3.865.784 7.794-.8 12.408-2.468 7.185-6.955 11.637-13.17 14.452-4.254 1.927-10.436 2.727-16.45.922L8.9 38.324l2.134-1.05-.4-2.716-3.69-4.793 8.788-5.15-.59-1.614-2.435-2.516 20.233-5.924z" fill="#263843"/><g transform="matrix(.188976 0 0 .188976 -.188976 -.18898)"><path d="M172.4 44.1H192v41.6h-19.6z" fill="#ca9563"/><path d="M170.4 44.1H194v4h-23.6z" fill="#b87854"/><path d="M143.9 46.6l-58.6 58.6h-4.2v82.4h125.6v-82.4h-4.2z" fill="#bc9269"/><path d="M143.9 33.6l-75.7 75.8h12.9l62.8-62.8 62.7 62.8h13z" fill="#d32328"/><g fill="#dfcdb7"><path d="M165.2 187.6v-59c0-11.8-9.5-21.3-21.3-21.3s-21.3 9.5-21.3 21.3v59z"/><circle r="14.4" cy="84.6" cx="143.9"/></g><circle r="12.8" cy="84.6" cx="143.9" fill="#a7cae1"/><path d="M89.6 126.1h26.1v33.4H89.6z" fill="#dfcdb7"/><path d="M103.2 127.5h11.2v14.7h-11.2zm-12.3-.001h11.2V142.2H90.9zm12.3 15.8h11.2V158h-11.2zm-12.3 0h11.2V158H90.9z" fill="#9dbfd2"/><path d="M172.1 126.1h26.1v33.4h-26.1z" fill="#dfcdb7"/><path d="M185.7 127.5h11.2v14.7h-11.2zm-12.3-.001h11.2V142.2h-11.2zm12.3 15.8h11.2V158h-11.2zm-12.3 0h11.2V158h-11.2z" fill="#9dbfd2"/><path d="M144.6 108.9v15.6L156 113c-3.1-2.5-7.1-4-11.4-4.1zm-1.4 15.6v-15.6c-4.3.2-8.3 1.7-11.4 4.2zM130.6 114c-3.4 3.098-5.7 7.3-6.3 12.1h18.4zm26.5 0L145 126.1h18.4c-.5-4.8-2.9-9.1-6.3-12.1zM143 147v-19.5h-18.8V147zm1.8 0h18.8v-19.5h-18.8zm0 1.902h18.8v17.3h-18.8zm-20.7 0h18.8v17.3h-18.8zm20.7 19.2h18.8V187.6h-18.8zm-20.7 0h18.8V187.6h-18.8z" fill="#a7cae1"/><path d="M75.4 187.6h137v7.5h-137z" fill="#dfcdb7"/><path d="M62.5 124.1h-1.7c-1.6 0-2.9 1-2.9 2.3l-.9 76.5h9.3l-.9-76.5c0-1.3-1.3-2.3-2.9-2.3z" fill="#e15d4a"/><path d="M67.1 195c.6-.8 1.3-1.5 1.9-2.3.4 1.2.5 2.6.4 3.9.4-.1.8-.4 1.1-.7.3 1.3.4 2.6.2 3.9.9-.1 1.6-.8 1.7-1.7.1.5.4 1 .9 1.2.3-1.3 1.5-2.4 2.8-2.7l-.8 5.5c.8-.4 1.9 0 2.3.8-4.8 1.4-10 1.2-15 1.1l-5.6-.2c-.5 0-1 0-1.3-.3-.4-.3-.5-.8-.9-1-.4-.3-1-.2-1.5 0l-5.2 1.3c0-1.1-.8-2-1.5-2.8-3.2-3.3-6.6-6.4-10.2-9.3 5 2 9.4 5.6 12.4 10.1.2-1 .2-2 .1-2.9.1.3.6.2.7-.1s0-.6-.1-.9c.6 0 1-.6 1-1.2s-.3-1.1-.6-1.6l-7.2-12.9c5.8 3.9 9.8 9.9 13.7 15.7l-2.2-7.3a5.51 5.51 0 0 1 1.7 2c0-.4.1-.8.1-1.2l1.3 2.2c-.8-6.3-.1-12.9 2.2-18.8-.2 7.1-.4 14.5 2.1 21.2-.1-1.5.1-3 .6-4.4.2-.4.5-1 1-.8.2.1.3.3.4.5l1.2 2.7c.9-.4.9-1.8.8-2.8-.3-3.3.9-6.7 3.2-9.1 0 4.4-.6 8.7-1.7 12.9z" fill="#28a065"/><path d="M82 163.5l-44.3-5v-23.3l44.3-5 14.9 15.9z" fill="#f2b545"/><path d="M51.8 145c0 1.8-.7 2.9-2.1 3.5l2.8 4h-3.1l-2.5-3.5h-1.7v3.5h-2.5v-11.1H47c1.7 0 3 .3 3.7.9.7.5 1.1 1.4 1.1 2.7zm-3 1.3c.3-.3.5-.7.5-1.3s-.2-1-.5-1.2-.9-.3-1.7-.3h-1.9v3.3H47c.9-.1 1.5-.2 1.8-.5zm13.6-5v2.2h-5.5v2.3h5v2.1h-5v2.3h5.7v2.2h-8.2v-11.1zm10.1 0H75v11.1h-2.5l-5.3-7v7h-2.5v-11.1H67l5.5 7.2zm10 2.1v9H80v-9h-3.1v-2.1h8.8v2.1z" fill="#0a2c48"/></g></svg>