<svg xmlns="http://www.w3.org/2000/svg" xmlns:xlink="http://www.w3.org/1999/xlink" width="48" height="48"><style><![CDATA[.D{fill:#EBECF0}.E{fill:#302622}.N{fill:#16B9BA}.Q{fill:#FEFEFE}.S{opacity:0.4;fill:#302622}.U{fill:#fff}]]></style><g transform="scale(.375)"><circle r="64" cy="64" cx="64" fill="#8dba2a"/><defs><circle r="64" id="A" cy="64" cx="64"/></defs><clipPath id="B"><use xlink:href="#A"/></clipPath><path clip-path="url(#B)" d="M128 55.6L95.4 22.8l-62.7 82.8L55.1 128H128z" fill="#6ba02e"/><path d="M91.9 106.9H36.1a4.95 4.95 0 0 1-5-5V26.4a4.95 4.95 0 0 1 5-5H92a4.95 4.95 0 0 1 5 5v75.5c-.1 2.8-2.3 5-5.1 5z" fill="#4f4644"/><circle r="1.6" cy="26.6" cx="36.2" class="D"/><circle r="1.6" cy="26.6" cx="91.8" class="D"/><circle r="1.6" cy="102" cx="36.2" class="D"/><path d="M72.5 97.5h18.3a2.22 2.22 0 0 0 2.2-2.2v-39c0-15.8-12.4-29.2-28.2-29.6-16.4-.5-29.9 12.7-29.9 29v32.6c0 .6.2 1.2.7 1.6l11.5 11.5c.4.4 1 .7 1.6.7H68a2.22 2.22 0 0 0 2.2-2.2c.1-1.4 1.1-2.4 2.3-2.4z" class="E"/><path d="M57.6 97.4h4.1s3.2 0 3.2-3.2V81.4" fill="none" stroke="#d83c5e" stroke-miterlimit="10"/><circle r="1.6" cy="102" cx="91.8" class="D"/><path d="M53.6 89.5s3.6 3.5 8.5.4S66.8 86 72.5 86" fill="none" stroke="#71cbf4" stroke-miterlimit="10"/><circle r="25.8" cy="55.8" cx="64" fill="#ecf0f0"/><path d="M52 95.4l8.2-11.1-9.2-6.4-10.4 5.7 9.7 11.8z" fill="#005b70"/><circle r="10.3" cy="55.8" cx="64" fill="#b0c9da"/><circle r="4.6" cy="55.8" cx="64" fill="none" stroke="#fff" stroke-width="2"/><defs><circle r="25.8" id="C" cy="55.8" cx="64"/></defs><clipPath id="D"><use xlink:href="#C"/></clipPath><path clip-path="url(#D)" d="M63.2 82.7l-2.4-.4 7.7-12.1 3.8-2.5 8.7 8.6-8.7 4.9z" opacity=".43" fill="#b0c9da"/><circle r="1.5" cy="55.8" cx="64" class="E"/><path d="M57.6 102H49c-.8 0-1.6-.3-2.2-.9l-11-11c-.6-.6-.9-1.4-.9-2.2V74.8c0-1.1 1.4-1.7 2.2-.9l4.2 4.2c.8.8 1.3 1.8 1.4 3 .8 6.9 6.2 12.3 13 13.2 1.2.1 2.3.7 3.2 1.5l3.9 3.9c.9.9.2 2.4-1 2.4h-4.2z" fill="#fcbe0f"/><circle r="5.7" cy="82.4" cx="54.5" class="N"/><path d="M51 77.9l17.3-10.2c1.2-.8 2.8-.8 4 0 .3.2.3.5.1.8L58.9 86z" class="N"/><path d="M89 83.3H71.4a.94.94 0 0 0-1 1v9.1a.94.94 0 0 0 1 1H89a.94.94 0 0 0 1-1v-9.1c0-.6-.5-1-1-1z" fill="#2597ce"/><path d="M84 37.8l-4.7-4.7c-.3-.3-.3-.9 0-1.2l2.4-2.4c.3-.3.9-.3 1.2 0l4.7 4.7c.3.3.3.9 0 1.2l-2.4 2.4c-.3.3-.8.3-1.2 0zm-40.9.3l5.4-5.4a.85.85 0 0 0 0-1.301l-2.3-2.3a.85.85 0 0 0-1.3 0l-5.4 5.4a.85.85 0 0 0 0 1.299l2.3 2.3c.3.4.9.4 1.3 0z" class="E"/><circle r="2" cy="82.4" cx="54.5" fill="#addadb"/><circle r="1" cy="47.9" cx="64" class="Q"/><circle r="1" cy="63.6" cx="64" class="Q"/><circle r="1" cy="50.2" cx="69.5" class="Q"/><circle r="1" cy="61.3" cx="58.5" class="Q"/><circle r="1" cy="55.8" cx="71.8" class="Q"/><circle r="1" cy="55.8" cx="56.2" class="Q"/><circle r="1" cy="61.3" cx="69.5" class="Q"/><circle r="1" cy="50.2" cx="58.5" class="Q"/><defs><path id="E" d="M91.9 106.9H36.1a4.95 4.95 0 0 1-5-5V26.4a4.95 4.95 0 0 1 5-5H92a4.95 4.95 0 0 1 5 5v75.5c-.1 2.8-2.3 5-5.1 5z"/></defs><clipPath id="F"><use xlink:href="#E"/></clipPath><g clip-path="url(#F)"><path class="S" d="M37.3 25.5l-2.2 2.3 6.7 6.7 2.3-2.2zm55.7 0l-2.3 2.3 6.2 6.2v-4.5zm-55.7 75.4l-2.2 2.2 3.8 3.8h4.4zm55.7 0l-2.3 2.2 3.8 3.8H99z"/></g><defs><path id="G" d="M89 83.3H71.4a.94.94 0 0 0-1 1v9.1a.94.94 0 0 0 1 1H89a.94.94 0 0 0 1-1v-9.1c0-.6-.5-1-1-1z"/></defs><clipPath id="H"><use xlink:href="#G"/></clipPath><path clip-path="url(#H)" d="M90.4 89.1l-3.5-3.5-.8 3.2-3.2-3.2-1.1 3-2.9-3-.9 3.1-3.1-3-1.4 6.2 2.8 2.8h14.1z" fill="#0079b1"/><use xlink:href="#J" class="U"/><use xlink:href="#J" x="4" class="U"/><use xlink:href="#J" x="8" class="U"/><use xlink:href="#J" x="12" class="U"/><circle r="1.5" cy="80.8" cx="38.8" class="E"/></g><defs ><path id="J" d="M74.2 92.2a.94.94 0 0 1-1-1v-4.8a.94.94 0 0 1 1-1 .94.94 0 0 1 1 1v4.8a1.08 1.08 0 0 1-1 1z"/></defs></svg>