<svg xmlns="http://www.w3.org/2000/svg" viewBox="0 0 48 42.989" height="43" width="48"><style><![CDATA[.AH{fill:#202121}.AI{fill:#ebebeb}.AJ{fill:#3d4040}.AK{opacity:0.4}.AL{fill:#e0e0e0}.AM{stroke-miterlimit:10}]]></style><g transform="matrix(.086645 0 0 .086645 -.686313 -.686573)"><path d="M504.078 256.006c0-137.023-111.07-248.082-248.075-248.082C118.99 7.924 7.92 118.982 7.92 256.006c0 137 111.07 248.07 248.082 248.07 137.006 0 248.075-111.07 248.075-248.07z" fill="#008f9b"/><path d="M329.327 290.697c0-32.014 25.954-57.965 57.97-57.965s57.968 25.952 57.968 57.965-25.953 57.97-57.968 57.97-57.97-25.953-57.97-57.97z" class="AH"/><path d="M343.087 290.697c0-24.414 19.792-44.208 44.2-44.208s44.208 19.793 44.208 44.208-19.793 44.21-44.208 44.21-44.2-19.79-44.2-44.21z" class="AI"/><circle r="30.788" cy="289.424" cx="388.824" fill="#fff"/><path d="M385.593 224.728s26.667 7.722 30.745 13.798c0 0-32.443 12.786-21.742 49.238l-5.77 1.66-23.44-63.337z" class="AJ"/><g class="AH"><path d="M409.692 242.223c5.443-5.788 6.646-3.697 6.646-3.697-4.078-6.076-30.745-13.798-30.745-13.798l-20.21 1.358 4.03 10.226c12.456-3.9 32.45.84 40.28 5.91z" opacity=".3"/><path d="M78.877 290.697c0-32.014 25.953-57.965 57.968-57.965s57.968 25.952 57.968 57.965-25.952 57.97-57.968 57.97-57.968-25.953-57.968-57.97z"/></g><path d="M92.637 290.697c0-24.414 19.793-44.208 44.208-44.208s44.2 19.793 44.2 44.208-19.794 44.21-44.2 44.21-44.208-19.79-44.208-44.21z" class="AI"/><circle r="30.788" cy="289.424" cx="139.224" fill="#fff"/><path d="M124.093 286.37l-.764 1.275 1.4 9.426 81.185 17.366 4.332-10.956-62.843-19.148z" fill="#d1d1d1"/><g class="AJ"><path d="M196.58 261.002l-8.087 16.613-5.402 32.985 21.25 5.457 2.894 7.693 50.623-45.94-7.644-33.255-31.42 2.043h-2.566m122.145-68.747l-1.36 25.306c0 1.358 6.072 16.153 6.072 16.153l51.51-12.078-12.91-29.38-29.852-4.588z"/><path d="M338.375 177.677l-1.36 25.308c0 1.36 6.072 16.156 6.072 16.156l51.51-12.08-12.91-29.385-29.852-4.585z"/></g><path d="M228.733 188.167c-7.922 7.92-9.76 12.205-9.76 12.205-1.36 3.166-.856 8.067 1.113 10.895l26.38 37.823a6.13 6.13 0 0 0 8.646 1.451l24.44-17.796c2.783-2.026 4.358-6.417 3.5-9.753l-8.595-33.37c-.86-3.335-3.283-6.326-5.387-6.648s-3.897-1.033-3.99-1.582-3-1.014-6.434-1.03c.003 0-21.99-.12-29.914 7.804z" fill="#d6d6d6"/><path d="M116.842 290.697c0-11.045 8.957-20 20.003-20s20.002 8.955 20.002 20-8.954 20.004-20.002 20.004-20.003-8.955-20.003-20.004z" fill="none" stroke="#ebebeb" stroke-width="1.963" class="AM"/><path d="M104.9 183.786s-1.265.432.352 1.28c1.61.85 66.41 27.687 74.057 30.404 0 0 19.872 4.63 38.046 35.18l13.305 20.462s3.548-.24 6.4-4.857 3.396-4.076 3.396-4.076l11.32-8.46-30.345-42.494s-4.418-9.342-13.42-11.042c0 0-39.238-12.23-41.615-8.662 0 0-9-3.397-15.116-25.987 0 0-1.868-3.738-6.623-2.38-.002-.002-24.14 5.42-39.758 20.63z" fill="#ccc"/><path d="M272.895 183.56l-7.644-1.167-1.46-1.382s-27.138-.767-35.06 7.157-12.23 17.96-12.23 17.96l3.994 3.442c12.305-7.675 38.462-15.627 50.18-19.897z" opacity=".7" class="AI"/><g class="AJ"><path d="M193.508 313.352l6.547-48.854s-9.827-30.068-43.208-40.004c0 0 14.632 20.204 15.778 24.355s-4.97 10.01-9.043 13.07l-34.555 35.746"/><path d="M129.03 297.662l34.555-35.746c4.075-3.06 10.188-8.92 9.043-13.07s-15.778-24.355-15.778-24.355c33.38 9.937 43.208 40.004 43.208 40.004.788 2.46-6.547 48.855-6.547 48.855"/></g><ellipse ry="6.148" rx="6.041" cy="191.981" cx="352.387" fill="#9c9c9c"/><ellipse ry="3.695" rx="3.63" cy="191.981" cx="352.387" fill="#eaebed"/><path d="M356.017 192.397l-7.192-1.135-1.172 11.273 7.133.61z" class="AI"/><path d="M285.556 228.414l7.34-5.106 26.647-18.38 6.897-4.998c.958-.794 2.222-7.265 2.913-10.64 0 0 .1-.485-7.88-2.354s-47.618-6.235-47.618-6.235c-3.425-.377-6.05-.123-5.832.565l2.278 7.228 11.186 35.5c1.037 3.285 2.868 5.276 4.07 4.422z" fill="#f6921e"/><g class="AH"><path d="M337.713 189.673l-97.98 67.253s-3.417 10.973-13.1 10.208l.894 5.607 3.44.766 1.527 10.824-3.564 1.158 1.402 6.247h2.393l1.87 8.183 7.7-8.187.55-12.106 21.87-15.1 78.36-45.185-6.072-15.662z"/><circle r="14.516" cy="281.891" cx="192.332" class="AK"/></g><ellipse ry="3.695" rx="3.63" cy="202.172" cx="351.282" class="AL"/><path d="M321.475 186.935c-7.985-1.87-53.846-6.92-53.846-6.92l3.046 9.66 55.917.11c-.994-1.186-2.586-2.257-5.117-2.85z" fill="#faaf40"/><circle r="7.637" cy="281.891" cx="219.593" opacity=".5" class="AH"/><path d="M219.594 309.912L99.048 264.475s-7.645-14.1 9.852-19.536c0 0 71.85 41.786 109.048 54.014l2.72-4.246s8.663-4.926 10.53-2.547 6.86.574 6.86.574" fill="#c9c9c9"/><path d="M381.687 177.677l-29.852-4.585-13.462 4.585-.154 2.74c7.676.233 43.42 2.73 46.717 28.91l9.66-2.266z" opacity=".2" class="AH"/><path d="M387.8 166.553l-39.766-34.698c-2.676-.126-15.798 13.5-15.798 13.5s44.124 34.62 55.564 21.197z" class="AI"/><path d="M332.684 144.898l-10.906 10.38-1.238-.362-6.88 6.624s-3.99 3.06.425 7.22l11.636 10.446s1.358 1.443 4.926.426l9.597-2.89 2.604-27.6z" fill="#ccc"/><path d="M322.916 154.238s-5.036 3.964-4.188 8.04c0 0 9.513 10.246 17.777 15.172 0 0 .72.95 8.874-1.683s11.062-.54 18.516 1.85 13.463 6.174 13.463 6.174 14.86 9.173 13.56 23.498l-124.024 29.785-31.72 23.185s-2.166 1.527 0 4.203c0 0 11.464 14.52 12.6 18.98 0 0-35.725 34.76-52.937 46.707 0 0 20.963 2.844 58.16-4.926l71.845 2.166s5.03.268 4.18-5.933-7.22-17.836.255-24.967c0 0 13.163-44.758 91.806-77.7 0 0 2.55-5.265-1.188-14.606l-32.103-37.622s-2.292 2.04-9.512-1.445-41.443-22.25-41.443-22.25l-8.494 7.644c-.002 0-2.89.34-5.438 3.738z" class="AL"/><path d="M318.728 162.28s9.513 10.246 17.777 15.172c0 0 .72.95 8.874-1.683 3.1-.998 5.682-1.5 8.72-1.087l-34.994-15.592c-.408 1.004-.606 2.093-.378 3.2zm84.92 47.29s-21.937-26.613-23.512-23.74c4.232 3.46 11.72 11.114 10.78 21.456l-87.987 21.637c26.576-2.52 100.718-19.354 100.718-19.354z" class="AI"/><path d="M235.172 260.26s-2.166 1.527 0 4.203c0 0 11.464 14.52 12.6 18.98 0 0-35.725 34.76-52.937 46.707 0 0 20.963 2.844 58.16-4.926l71.845 2.166s5.03.268 4.18-5.933-7.22-17.836.255-24.967c0 0 2.26-7.68 10.49-19.015l-87.523-29.705z" fill="#d1d1d1"/><path d="M253.007 325.225l71.845 2.166s5.03.27 4.18-5.932c-.754-5.488-5.83-15.238-1.8-22.352l-80.312-14.83c-5.54 5.354-36.44 35.024-52.074 45.873 0 0 20.963 2.844 58.16-4.925z" class="AL"/><path d="M177.816 195.674l-.984-3.777c-5.487-1.075-9.702-1.472-10.436-.376 0 0-9-3.397-15.116-25.987 0 0-1.868-3.738-6.624-2.38 0 0-8.213 1.846-18.154 6.4 19.296 26.008 51.314 26.12 51.314 26.12z" fill="#d6d6d6"/><path d="M215.302 204.46s8.663 12.74-1.272 16.307l-46.376-21.66s-8.405-10.7 10.703-5.86c20.48 2.1 36.34 9.103 36.945 11.212z" opacity=".2"/><path d="M215.302 200.285s8.663 12.74-1.272 16.307l-46.376-21.658s-8.405-10.7 10.703-5.86c20.48 2.11 36.34 9.105 36.945 11.212z" class="AJ"/><path d="M108.9 244.94c-14.755 4.585-11.63 15.33-10.29 18.584l10.335-18.558c-.03-.014-.046-.026-.046-.026z" fill="#9c9c9c"/><path d="M224.26 306.03L110.108 252l-5.678 9.937 116.067 46.98" fill="#eaebed" class="AK"/><g class="AH"><path d="M156.847 224.492s13.544 18.7 15.59 23.815c7.4 2.56 20.17 7.654 26.854 14.197-2.863-6.874-14.254-29.62-42.445-38.012z" class="AK"/><path d="M198.566 262.3h3.926l15.745-10.4-2.647-4.18-17.83 12.016" class="AK"/><path d="M206.512 321.08l8.167-6.992z"/></g><path d="M212.865 315.64l-6.353 5.44-2.154-4.967" class="AJ"/><path d="M204.358 316.113l2.154 4.967 6.353-5.44-78.278-23.73-5.558 5.752z" class="AH AK"/><path d="M353.1 132.356" fill="none" stroke="#000" class="AM"/></g><path d="M7.468 27.894l14.93 15.076s11.113-.06 17.13-9.78c1.53-2.473 2.848-5.35 3.337-9.452l-9.36-9.36 2.193 2.628s.275.577.164 1.028c0 0 .018.2-.305.34l-1.67.797s1.406.58 1.502.81l-.17.08s2.742 1.49 2.676 4.44c0 0 .077 4.583-4.9 5.023 0 0-4.246.266-5.16-4.52 0 0-.596.46-.083 1.888 0 0 .176.563-.007.67a.9.9 0 0 1-.412.13c-.065 0-.672-.033-.672-.033l-5.436-.164s-2.697.658-5.042.47l1.014-.83-.166-.377-1.223-.348s-1.086 2.956-4.44 3.115c0 0-2.2.2-3.91-1.63zm.965-12.546l4.2 4.35s1.14.45 1.314.603c0 0-.655-1.06-1.054-1.536 0 0 2.485.648 3.545 3.054l1.545-1.04S16.56 18.45 14.5 17.85zm3.902-1.802s.093.18.19.465.442 1.406 1.154 1.873c0 0-.007-.23.216-.28.234-.054.804.076.804.076z" fill="#017179"/></svg>