<svg xmlns="http://www.w3.org/2000/svg" viewBox="0 0 48 48.005" height="49" width="48"><g transform="matrix(.09375 0 0 .09375 0 .000094)"><circle r="256" cy="255.999" cx="256" fill="#383844"/><path d="M404.168 201.943c-4.305 0-8.263 2.71-11.42 7.25l.02-1c0-84.65-61.954-153.27-138.374-153.27-75.604 0-137.038 67.16-138.35 150.554-2.478-2.26-5.268-3.536-8.216-3.536-10.31 0-18.665 15.513-18.665 34.65 0 14.983 5.124 27.74 12.293 32.575a24.34 24.34 0 0 1 8.03 9.024l3.212 5.983c3.38 6.005 5.156 12.8 5.118 19.698v.384c0 13.956 4.1 25.265 9.133 25.265 1.462 0 2.84-.976 4.064-2.666 19.24 77.207 58.953 130.218 104.835 130.218h37.567c46.56 0 86.774-54.594 105.678-133.673 1.598 3.806 3.675 6.12 5.95 6.12 5.043 0 9.13-11.3 9.13-25.265l-.003-.384a39.53 39.53 0 0 1 5.122-19.695l2.585-4.78c2.192-4.192 5.282-7.76 9.104-10.545 6.937-5.056 11.846-17.592 11.846-32.262.004-19.135-8.352-34.648-18.66-34.648z" fill="#e9a583"/><path d="M362.516 227.54l35.174-20.8-1.054-6.674-37.4 19.7c-2.734-2.585-7.033-6.526-9.173-7.83-3.308-2.022-10.755-4.368-16.423-5.98-3.52-1-7.322-1.402-10.996-1.164L290.26 206.9c-9.49.615-17.424 6.466-21.16 14.55-12.48-5.276-22.086-5.248-34.15.1-4.027-5.9-10.51-10.064-18.15-10.846l-32.272-3.324a32.84 32.84 0 0 0-11.031.751c-5.726 1.4-13.254 3.464-16.64 5.36-2.182 1.223-6.628 5.002-9.457 7.482l-30.897-21.604.467 5.85 26.853 23.397-1.272 12.375c-1.833 17.81 11.168 33.79 28.977 35.622l22.368 2.3c22.433 2.31 42.56-14.062 44.87-36.495l.43-4.187c.476-4.61-.36-9.053-2.168-12.987 10.854-4.728 19.303-4.673 30.658.176-.7 2.592-1.016 5.327-.832 8.155l.274 4.194c1.464 22.505 20.965 39.62 43.47 38.154l22.438-1.46c17.866-1.164 31.454-16.645 30.29-34.51zM235 237.802l-.432 4.184c-2.07 20.124-20.127 34.81-40.248 32.74l-22.364-2.305c-15.498-1.595-26.812-15.5-25.217-31l1.612-15.665c2.688-2.408 8.42-7.387 10.567-8.59 2.314-1.297 7.844-3.054 15.574-4.943 3.1-.756 6.41-.98 9.604-.65l32.267 3.32c11.455 1.18 19.815 11.458 18.637 22.9zm97.757 32.457l-22.438 1.462c-20.184 1.316-37.678-14.04-39-34.223l-.27-4.196c-.75-11.5 7.99-21.447 19.48-22.198l32.37-2.105c3.204-.2 6.513.138 9.573 1.013 7.65 2.177 13.113 4.137 15.38 5.522 2.098 1.28 7.64 6.474 10.235 8.982l1.022 15.713c1.014 15.548-10.812 29.02-26.358 30.03z" fill="#1f1919"/><path d="M144.062 200.952c3.753 22.43 11.962-7.06 32.6-4.647 20.73 1.733 43.54 16.402 45.686 9.823 3.774-11.602-3.1-19.73-29.225-23.812-26.29-4.25-47.775 9.077-49.07 18.636zM364.2 207.18c-4.84 21.752-11.568-8.912-32.253-9.746-20.733-1.526-44.182 9.51-45.987 2.62-3.193-12.147 4.053-19.168 30.277-19.137 26.398-.11 47.143 16.538 47.963 26.263zm-221.232-71.725c0-20.69 16.674-25.992 7.954-31.847-16.73-11.235-35.8 11.51-36.722 30.44-8.19 3.792-14.312 18.694-14.312 36.524 0 20.69 8.24 37.457 18.405 37.457 9.547 0 9.703-16.184 10.627-35.118 8.194-3.787 14.048-19.632 14.048-37.457zm219.144 5.146c0-20.69-13.59-35.368-3.746-38.868 21.072-7.5 32.575 17.6 33.52 36.535 8.422 3.787 14.712 18.69 14.712 36.52 0 20.69-8.468 37.457-18.915 37.457-9.808 0-9.636-16.658-10.584-35.587-8.424-3.787-14.987-18.226-14.987-36.055zm-67.327-50.86c8.478-16.246 13.288-24.836 6.543-28.268-8.307-4.23-18.644-6.45-30.057-5.277 14.282 6.09 5.672 21.867 1.535 35.56 6.133-9.928 10.52-16.913 12.344-22.315 1.052 6.964-1.242 15.246-3.763 22.6 7.532-10.756 12.695-17.996 14.256-23.492 2.12 5.98.463 14.2-.858 21.19z" fill="#fff"/><path d="M305.982 338.745c-.984 6.3-23.77 11.356-51.755 11.356-25.434 0-46.57-4.17-50.953-9.666l-3.072.933s20.262 27.16 52.328 27.16 58.3-28.916 58.3-28.916l-4.847-.866z" fill="#210800"/><path d="M254.227 350.102c27.982 0 50.77-5.047 51.755-11.356-9.01-1.493-29.612-4.4-53.452-4.4-24.754 0-42.463 4.186-49.256 6.092 4.383 5.495 25.52 9.665 50.953 9.665z" fill="#fff"/><path d="M207.695 342.302c11.108-4.026 25.354.563 45.655.563 20.81 0 42.643-4.05 54.587-.944 2.146-1.226 2.276-1.178 2.494-2.565-9.176-2.293-34.062-5.013-57.9-5.013-24.754 0-44.792 3.865-51.944 6.903.945 1.188 4.25 1.483 7.11 1.056z" fill="#ca745c"/><path d="M311.24 339.992c-1.115 3.097-2.97 6.01-4.785 8.738-2.37 3.558-5.16 6.855-8.17 9.89-5.913 5.968-13.11 11.302-20.895 14.56-8.26 3.45-17.34 5.932-26.395 5.336-7.354-.483-14.396-1.936-21.14-4.982-7.6-3.43-14.478-8.473-19.97-14.754-2.716-3.11-5.127-6.438-7.08-10.076-.86-1.6-1.657-3.202-2.32-4.895l-.687-1.932c-.098-.332.424-.525.675-.7.37-.274 1.836 1.812 2.208 2.222a68.67 68.67 0 0 0 4.287 4.313c3.1 2.833 6.337 5.458 9.766 7.868 11.13 7.82 24.707 12.525 38.39 11.693 12.723-.772 24.78-5.355 35.475-12.236 4.58-2.95 8.996-6.156 13.166-9.666 1.826-1.536 3.606-3.13 5.316-4.793l1.234-1.232c.227-.236.728.47.928.656z" fill="#a65f4c"/><path d="M281.74 366.117c-.54.72-1.433 1.402-2.312 2.037-1.145.83-2.494 1.597-3.948 2.306-2.855 1.396-6.335 2.638-10.096 3.396-3.99.806-8.378 1.385-12.754 1.242-3.555-.11-6.957-.45-10.217-1.16-3.67-.8-6.995-1.974-9.65-3.44-1.312-.725-2.477-1.502-3.42-2.35-.415-.375-.8-.746-1.118-1.142-.122-.147-.24-.296-.334-.45-.046-.08.205-.123.324-.166.18-.063.89.422 1.068.52l2.07 1.006c1.495.66 3.062 1.272 4.723 1.833 5.376 1.824 11.936 2.92 18.547 2.727a64.59 64.59 0 0 0 17.144-2.853 80.22 80.22 0 0 0 6.361-2.256l2.57-1.116.595-.29c.1-.055.353.112.448.155z" fill="#dcc2ac"/><path d="M275.11 304.09c-.277 0-.543.03-.814.045.013-.048.046-.07.056-.124-1.255.107-2.408.352-3.5.728a9.49 9.49 0 0 0-.854.346c-2.634 1.142-4.896 3.192-7.17 6.43-1.717 2.422-3.365 4.272-5.578 5.5-1.42.524-2.808.683-4.227.683-1.413 0-2.804-.157-4.223-.683-2.215-1.228-3.862-3.078-5.577-5.5-2.274-3.236-4.54-5.287-7.172-6.43-.273-.122-.55-.24-.855-.346-1.1-.376-2.246-.62-3.493-.728.003.053.033.076.046.124l-.813-.045c-4.272 0-7.742 1.743-7.742 3.894s3.47 3.892 7.742 3.892c3.01 0 5.586-.873 6.87-2.13l5.003 6.633c1.896 2.287 4.137 3.76 6.588 3.78h7.255c2.45-.02 4.697-1.495 6.588-3.78 1.736-2.094 3.317-4.446 5.006-6.633 1.284 1.256 3.862 2.13 6.868 2.13 4.275 0 7.742-1.743 7.742-3.892s-3.47-3.894-7.745-3.894zm11.174-21.024c3.98 3.282 6.135 8.803 6.27 15.512.147 7.36-2.444 13.803-7.146 16.418-.213-.89.637-1.552.996-2.203.574-1.047 1.103-2.23 1.477-3.46.873-2.85 1.354-6.09 1.396-9.204.048-3.39-.132-6.657-.79-9.923-.312-1.552-.847-2.927-1.262-4.417-.336-.74-1.328-1.87-.943-2.724zm-70.632-1.51c-3.98 3.282-6.135 8.803-6.27 15.517-.147 7.355 2.44 13.803 7.147 16.418.207-.896-.642-1.557-1-2.21-.57-1.047-1.102-2.23-1.477-3.453-.872-2.85-1.352-6.09-1.396-9.21-.046-3.39.134-6.652.79-9.918.315-1.557.848-2.933 1.263-4.422.334-.734 1.326-1.865.942-2.724zm-20.918-124.533c15.866 2.912 31.146 8.7 47.282 10.147 8.685.776 16.935-.76 25.28-3.09 8.488-2.365 17.04-4.76 25.794-5.902 8.098-1.057 16.328-.39 23.965 2.537.147.057 1.293.35 1.353.516.187.53-.418.34-.623.286l-5.25-1.068c-4.06-.573-8.14-.708-12.225-.323-8.7.828-17.038 3.35-25.364 5.88-8.532 2.6-17.25 5.47-26.26 5.547-10.448.094-20.812-2.77-30.67-5.97l-13.982-4.89-5.633-2.005-2.44-.818c-.46-.15-1.616-.193-1.227-.85zm-10.495-34.488c15.815 1.807 31.307 5.724 47.062 7.98 8.7 1.245 17.71 1.854 26.452.646 8.977-1.245 17.82-3.37 26.676-5.25 8.55-1.823 17.213-3.198 25.973-3.334 4.063.1 8.023.266 12.05.865 3.872.583 7.563 1.698 11.24 3.005.23.083.882.156.815.443-.135.578-.28.37-.855.26l-5.696-.98c-4.042-.464-8.062-.688-12.127-.547-8.775.302-17.407 2.02-25.925 4.068l-26.376 6.188c-8.94 1.677-17.8 1.646-26.805.484-16.142-2.078-31.688-7.282-47.257-11.793l-3.715-1.042c-.554-.15-2.037-.14-1.512-.995z" fill="#ca745c"/><path d="M172.547 231.912c0 4.96 9.478 10.067 20.017 10.067s13.697-1.404 23.414-6.908c5.157-2.92-12.876-11.06-23.414-11.06s-20.017 2.936-20.017 7.902z" fill="#fcfbfa"/><path d="M182.28 233.233c0 5.085 5.507 9.213 12.3 9.213 6.788 0 12.293-4.127 12.293-9.213 0-5.096-5.505-9.223-12.293-9.223-6.794.001-12.3 4.128-12.3 9.223z"/><path d="M185.373 236.896c0 1.58 1.358 2.86 3.032 2.86s3.035-1.278 3.035-2.86-1.36-2.86-3.035-2.86-3.032 1.275-3.032 2.86z" fill="#fcfbfa"/><path d="M169.85 232.527c.567 1.233 10.305-5.658 23.342-5.4s23.87 6.312 23.87 6.312-10.298-14.375-23.333-14.625c-13.04-.25-27.113 6.675-23.88 13.723zm45.762 4.255c-.854 1.307-1.772 2.547-2.7 3.802-1.885 2.558-4.13 5.053-6.558 7.1l-2.653 2.12c-1.296.53-2.598 1.02-3.946 1.432-6.674 2.23-14.48 1.735-20.593-1.766-3.273-1.875-5.667-4.77-7.658-7.912-.916-1.438.02.927.195 1.333.644 1.5 1.514 3.172 2.653 4.35 6.164 7.204 15.565 8.605 24.008 6.058-2.16 1.172-4.435 2.104-6.823 2.59-4.186.844-8.044.802-12.193-.177-3.667-.865-6.9-3-9.895-5.172-1.138-.828-.66-.057-.038.61a29.44 29.44 0 0 0 3.826 3.448c3.168 2.396 6.932 3.797 10.854 4.323 14.922 2.026 27.93-10.7 32.854-23.653-.45-.37-1.11 1.172-1.333 1.516zm-46.27-4.016c-.777-.203-2.074-.203-2.375-.22-1.657-.052-3.278.094-4.93.22-1.39.11-3.22.474-4.48-.542-.997-.797-1.56-1.86-2.268-3.032-.398.344 1.032 2.953 1.33 3.328 1.194 1.47 2.766 1.745 4.34 1.714 1.737-.026 3.48-.313 5.215-.59-1 .5-1.927 1.146-2.816 1.953-1.38 1.245-2.53 2.828-3.846 4.183-1.15 1.188-1.78.557-2.53-.87-.22.177.165.943.277 1.214.338.823.882 1.39 1.624 1.198 1.552-.41 2.945-2.464 4.158-3.688 2.35-2.375 4.777-4.177 7.777-4.48-.068-.385-.765-.438-1.476-.39z" fill="#ca745c"/><path d="M338.22 231.912c0 4.96-9.48 10.067-20.02 10.067s-13.695-1.404-23.41-6.908c-5.157-2.92 12.874-11.06 23.41-11.06 10.542.001 20.02 2.936 20.02 7.902z" fill="#fcfbfa"/><path d="M328.488 233.233c0 5.085-5.506 9.213-12.3 9.213s-12.296-4.127-12.296-9.213c0-5.096 5.505-9.223 12.296-9.223s12.3 4.128 12.3 9.223z"/><path d="M325.395 236.896c0 1.58-1.356 2.86-3.03 2.86s-3.038-1.278-3.038-2.86 1.36-2.86 3.038-2.86 3.03 1.275 3.03 2.86z" fill="#fcfbfa"/><g fill="#ca745c"><path d="M340.914 232.527c-.564 1.233-10.303-5.658-23.34-5.4s-23.868 6.312-23.868 6.312 10.298-14.375 23.332-14.625 27.11 6.675 23.877 13.723zm-44.396 4.255c.856 1.307 1.774 2.547 2.7 3.802 1.884 2.558 4.13 5.053 6.558 7.1l2.653 2.12c1.292.53 2.597 1.02 3.946 1.432 6.67 2.23 14.478 1.735 20.594-1.766 3.27-1.875 5.667-4.77 7.658-7.912.916-1.438-.02.927-.198 1.333-.643 1.5-1.512 3.172-2.65 4.35-6.163 7.204-15.566 8.605-24.008 6.058 2.16 1.172 4.437 2.104 6.822 2.59 4.187.844 8.044.802 12.194-.177 3.667-.865 6.898-3 9.896-5.172 1.137-.828.66-.057.038.61-1.204 1.287-2.423 2.386-3.827 3.448-3.17 2.396-6.932 3.797-10.854 4.323-14.922 2.026-27.93-10.7-32.854-23.653.447-.37 1.108 1.172 1.332 1.516z"/><path d="M340.628 231.364c.725-.212 1.934-.212 2.213-.22 1.542-.052 3.06.093 4.6.217 1.298.105 3.002.472 4.178-.54.93-.8 1.45-1.86 2.1-3.035.372.346-.96 2.957-1.242 3.326-1.1 1.47-2.575 1.748-4.042 1.72-1.62-.03-3.245-.314-4.863-.596.923.494 1.8 1.15 2.627 1.953 1.288 1.247 2.358 2.833 3.585 4.187 1.074 1.2 1.658.556 2.36-.87.203.18-.155.942-.26 1.214-.314.822-.822 1.4-1.512 1.197-1.45-.4-2.747-2.465-3.877-3.69-2.19-2.373-4.46-4.173-7.257-4.478.07-.383.72-.435 1.382-.385zm-232.322-2.146c5.722 7.13 11.313 11.834 16.857 14.397-1.208 14.82 1.1 36.274 3.862 59.177-9.77-39.9-41.088-70.94-20.72-73.575zm293.52 0c-5.72 7.13-11.31 11.834-16.855 14.397 1.208 14.82-1.11 36.274-3.86 59.177 9.767-39.9 41.086-70.94 20.715-73.575zm-77.51 182.887c-2.554 16.24-17.888 25.497-32.25 30.45-16.77 5.792-35.1 6.86-52.632 4.933-8.598-.953-17.236-2.88-25.313-6-7.688-2.953-15.192-6.985-20.98-12.944-2.702-2.776-4.98-5.933-6.53-9.5-.706-1.547-1.166-3.172-1.524-4.83-.142-.65-.228-1.318-.334-1.974-.043-.27.482-.417.563-.15 2.33 7.496 7.335 13.236 13.815 17.56 7.003 4.672 15.138 7.548 23.267 9.537 8.564 2.094 17.38 3.14 26.177 3.5 17.322.708 35.802-1.115 51.864-8.006 5.782-2.474 11.348-5.698 15.822-10.173 2.11-2.094 4-4.5 5.375-7.147.7-1.333 1.304-2.714 1.747-4.14.173-.563.16-1.625.936-1.125zm-109.372-3.964c-14.658-5.162-28.696-17.606-29.688-34.055-.226-3.756.16-7.256 1.04-10.897.055-.198.146-.97.592-.63.107.073.053.98.057 1.094.105 2.01.272 3.98.525 5.98 1.08 8.475 4.858 16.897 10.677 23.195 3.374 3.745 7.064 7.084 10.99 10.24l4.727 3.724c.347.266 1.715.885 1.08 1.35zm35.774 22.216c-13.932 3.438-28.965 3.115-33.54-4.448-1.045-1.73-1.495-3.573-1.553-5.698 0-.12-.1-.52.372-.547.11 0 .268.453.296.5.546.927 1.135 1.818 1.808 2.683 2.853 3.662 8.042 6.204 14.53 6.89 3.78.448 7.75.568 11.88.5l4.957-.115c.365-.01 1.696-.26 1.25.224zm40.577-22.216c14.66-5.162 28.696-17.606 29.688-34.055.226-3.756-.158-7.256-1.038-10.897-.052-.198-.143-.97-.594-.63-.104.073-.047.98-.055 1.094-.104 2.01-.27 3.98-.526 5.98-1.078 8.475-4.86 16.897-10.675 23.195-3.374 3.745-7.062 7.084-10.992 10.24l-4.728 3.724c-.345.266-1.714.885-1.08 1.35zm-35.772 22.216c13.93 3.438 28.965 3.115 33.536-4.448 1.046-1.73 1.5-3.573 1.554-5.698 0-.12.095-.52-.368-.547-.114 0-.268.453-.3.5a24.9 24.9 0 0 1-1.808 2.683c-2.852 3.662-8.042 6.204-14.53 6.89-3.78.448-7.75.568-11.884.5l-4.957-.115c-.362-.01-1.694-.26-1.244.224zm12.4-13.543c0 1.578-6.455-.286-15.086-.286s-16.168 1.865-16.168.286 6.998-2.86 15.627-2.86 15.627 1.28 15.627 2.86z"/></g></g><path d="M17.32 40.644L24.497 48s10.71.508 18.537-9.38c0 0 5.56-6.32 4.89-16.564L35.35 9.777s1.377 1.242 1.39 3.186c0 0 2.55 1.37.788 6.04 0 0 .996-.368 1.45.63s1.437 3.152-.16 5.305c0 0-1.8 1.458-1.836 3.096-.033 1.444-.37 2.388-.37 2.388s-.278.56-.512.47-.55-.21-.558-.574c0 0-1.638 7.134-5.136 10.345 0 0-1.438 1.567-3.99 2.13l-4.302.055c0 0-2.47.14-4.79-2.207zm-5.8-10l1.095 1.234-.333-1.235s-.336.584-.763.002z" fill="#1f2027"/></svg>