<svg xmlns="http://www.w3.org/2000/svg" xmlns:xlink="http://www.w3.org/1999/xlink" width="48" height="48"><g transform="matrix(.24 0 0 .24 0 .00024)"><circle r="100" cy="99.999" cx="100" fill="#0575a5"/><path d="M114.414 47.372l-.115-.114H82.657v23.53c-9.858-2.444-20.8-1.344-21.6.357-.543 1.143 2.242 5.87 5.27 10.472-4.87 4.243-8.57 9.457-10.642 15.27h-6.842c-1.33 0-2.414 4.058-2.414 9.06 0 3.728.613 6.94 1.484 8.328.215.357.443.585.686.687 0 0 0 .014.015.014h-.03c.03.014.058.027.07.04l10.6 10.6.87 1.287.614.828 1.186 1.5.73.842c.486.557 1 1.086 1.528 1.627l.485.502a41.43 41.43 0 0 0 2.143 1.942l.744.584c.557.473 1.144.917 1.743 1.345l.757.557c.215.156.443.3.657.44l1.93 1.927v12.143a1.61 1.61 0 0 0 .472 1.131l45.9 45.9c36.668-7.062 66.196-34.14 76.77-69.428z" fill="#025e90"/><path d="M151.963 103.964c-.563 0-1.312-.112-2.077-.376.966-1.527 1.463-3.157 1.463-4.598 0-3.074-2.153-4.734-4.184-4.734a3.94 3.94 0 0 0-2.911 1.305c-.54.606-1.188 1.687-1.188 3.43 0 2.168.77 3.88 1.92 5.164-.543.4-1.15.732-1.827 1.023-1.528-19.584-20.918-35.07-44.622-35.07a52.76 52.76 0 0 0-12.807 1.566c-10.507-3.573-23.787-2.406-24.674-.524-.538 1.144 2.247 5.87 5.28 10.46C61.454 85.86 57.76 91.07 55.7 96.88h-6.846c1.337 0 2.42 4.058 2.42 9.064s-1.083 9.063-2.42 9.063a.74.74 0 0 1-.251-.049c.074.047.14.11.216.15l6.95 3.545c2.914 8.02 8.93 14.896 16.877 19.648v12.834c0 .414.157.822.472 1.136a1.59 1.59 0 0 0 1.136.475h12.194a3.22 3.22 0 0 0 1.742-.514 3.21 3.21 0 0 0 1.185-1.371l2.74-6.014c2.102.258 4.247.392 6.43.392 3.45 0 6.805-.33 10.03-.95v6.846c0 .408.156.822.47 1.136s.727.475 1.138.475h12.28a3.21 3.21 0 0 0 2.875-1.778l15.462-30.95c.848-2.05 1.492-4.178 1.906-6.373.315-1.65.494-3.336.54-5.054 1.753-.56 3.23-1.418 4.425-2.444 1.416.7 2.957 1.035 4.3 1.035a1.61 1.61 0 0 0 1.61-1.608 1.61 1.61 0 0 0-1.609-1.61zm-4.738-2.16c-.567-.717-.938-1.64-.938-2.815 0-.922.346-1.517.878-1.517.48 0 .966.47.966 1.517 0 .868-.308 1.857-.906 2.815z" fill="#ff9d4d"/><path d="M58.586 107.723c0-5.983-1.288-10.832-2.904-10.832h-6.838c1.346 0 2.416 4.05 2.416 9.056s-1.07 9.06-2.416 9.06c-.078 0-.177-.02-.254-.04.077.04.137.097.217.138l6.174 3.154.603.313.156.076c0-.02-.02-.038-.02-.058 1.597-.078 2.866-4.93 2.866-10.868z" fill="#f28124"/><path d="M46.43 105.945c0 5.006 1.083 9.063 2.416 9.063s2.42-4.058 2.42-9.063-1.083-9.064-2.42-9.064c-1.333 0-2.416 4.058-2.416 9.064z" fill="#ff9d4d"/><path d="M151.963 103.964c-.563 0-1.312-.112-2.077-.376.966-1.527 1.463-3.157 1.463-4.598 0-3.074-2.153-4.734-4.184-4.734a3.94 3.94 0 0 0-2.911 1.305c-.54.606-1.188 1.687-1.188 3.43 0 2.168.77 3.88 1.92 5.164-.543.4-1.15.732-1.827 1.023-.91-11.668-8.16-21.877-18.883-28.23 7.183 6.517 11.577 15.238 11.577 24.825 0 20.172-19.437 36.522-43.413 36.522-13.625 0-25.78-5.283-33.74-13.547 3.292 5.4 8.09 10.058 13.937 13.556v12.834c0 .414.157.822.472 1.136a1.59 1.59 0 0 0 1.136.475h12.194a3.22 3.22 0 0 0 1.742-.514 3.21 3.21 0 0 0 1.185-1.371l2.74-6.014c2.102.258 4.247.392 6.43.392 3.45 0 6.805-.33 10.03-.95v6.846c0 .408.156.822.47 1.136s.727.475 1.138.475h12.28a3.21 3.21 0 0 0 2.875-1.778l15.462-30.95c.848-2.05 1.492-4.178 1.906-6.373.315-1.65.494-3.336.54-5.054 1.753-.56 3.23-1.418 4.425-2.444 1.416.7 2.957 1.035 4.3 1.035a1.61 1.61 0 0 0 1.61-1.608c0-.89-.72-1.613-1.6-1.613zm-4.738-2.16c-.567-.717-.938-1.64-.938-2.815 0-.922.346-1.517.878-1.517.48 0 .966.47.966 1.517 0 .868-.308 1.857-.906 2.815z" fill="#f28124"/><path d="M76.395 152.273a1.6 1.6 0 0 0 1.136.475h-3.287c-.415 0-.825-.16-1.136-.475a1.59 1.59 0 0 1-.472-1.136v-12.834l3.284 1.756v11.078a1.58 1.58 0 0 0 .475 1.136zm35.93 0c-.318-.313-.475-.728-.475-1.136v-7.597l-3.284.75v6.846c0 .408.156.822.47 1.136s.727.475 1.138.475h3.287c-.41 0-.82-.16-1.136-.475z" fill="#ff9d4d"/><path d="M73.355 95.2c0 2.163-1.753 3.923-3.923 3.923s-3.92-1.76-3.92-3.923 1.756-3.925 3.92-3.925c2.17 0 3.923 1.76 3.923 3.925z" fill="#34495e"/><path d="M69.786 94.064c0 .82-.667 1.5-1.5 1.5s-1.5-.67-1.5-1.5a1.49 1.49 0 1 1 2.98 0z" fill="#e1effa"/><path d="M114.417 81.447c-.138 0-.286-.02-.426-.064-10.07-3.05-20.834-3.05-30.907 0-.79.232-1.606-.203-1.84-.982s.202-1.603.982-1.838c10.628-3.22 21.994-3.22 32.62 0 .778.236 1.218 1.06.98 1.838a1.47 1.47 0 0 1-1.411 1.046z" fill="#f28124"/><defs><path id="A" d="M82.658 47.254V79.97a54.69 54.69 0 0 1 15.879-2.363 54.66 54.66 0 0 1 15.88 2.363V47.254z"/></defs><clipPath id="B"><use height="100%" width="100%" xlink:href="#A" x="0" y="0"/></clipPath><g clip-path="url(#B)"><path d="M82.658 47.256h31.76v54.796h-31.76z" fill="#d0e070"/><path d="M108.564 74.65c0-4.75-4.488-8.598-10.025-8.6-5.542.007-10.04 3.85-10.035 8.6 0 4.754 4.488 8.597 10.03 8.6s10.03-3.856 10.03-8.6zm-15.034.555l-1.3.001v-.892h1.292c.086-1.464.697-2.58 1.517-3.306l.933.722c-.654.56-1.234 1.443-1.366 2.584l3.526.005c.412-1.48.9-3.004 2.688-3 1.5-.005 2.552 1.26 2.684 3l1.32-.005v.9h-1.336c-.1 1.197-.596 2.16-1.334 2.876l-.887-.73c.643-.58 1.002-1.33 1.117-2.146l-3.164.001c-.422 1.498-.974 3.09-2.87 3.086-1.31.002-2.666-.84-2.83-3.085zm2.746 1.842c-.7 0-1.525-.46-1.673-1.842l3.31-.004c-.305 1.017-.693 1.846-1.636 1.846zm6.15-2.733H99.47c.28-.982.637-1.753 1.432-1.753.84.001 1.45.726 1.523 1.753zm10.348 18.52V48.898H91.868l-7.568-.002V100.408h28.474zm-20.743 5.93c-.1-1.453-.798-2.932-1.984-4.112-1.17-1.164-2.677-1.87-4.107-1.978l-.001-36.04c1.436-.108 2.942-.812 4.108-1.982 1.186-1.178 1.885-2.657 1.986-4.114l13.007.004c.104 1.453.802 2.932 1.986 4.112 1.17 1.168 2.678 1.87 4.113 1.98v36.04c-1.44.108-2.947.812-4.118 1.982-1.183 1.178-1.877 2.655-1.98 4.108H92.03z" fill="#a6b83d"/></g></g></svg>