<svg xmlns="http://www.w3.org/2000/svg" width="48" height="48"><g transform="scale(.09375)"><path d="M512 256.017C512 397.406 397.38 512 256 512a258.14 258.14 0 0 1-29.662-1.707c-21.642-2.494-42.497-7.716-62.157-15.26C68.13 458.133 0 365.045 0 256.017 0 114.592 114.585 0 256 0c137.318 0 249.412 108.107 255.693 243.933l.307 12.084z" fill="#bd2508"/><path d="M512 256.017C512 397.406 397.38 512 256 512a258.14 258.14 0 0 1-29.662-1.707L88.542 396.928c-2.345-1.992-4.028-4.602-4.847-7.1-1.065-2.762-1.356-6.5-1.126-9.49 1.945-34.305 3.312-78.717 2.628-128.213-.34-10.797 4.528-14.087 8.602-15.53v-27.65c0-1.707-.375-3.38-1.058-4.882a9.77 9.77 0 0 0-.82-1.433l-5.836-8.74 1.126-47.687.172-3.277.375-7.442c.033-.887.238-1.707.546-2.492l.818-2.05c.068-.17.238-.273.4-.273h.033c.035 0 .035 0 .068.035.104.033.24.102.308.238l.785 1.742c.443 1 .682 2.05.717 3.14l.068 7.987 3.687-10.957.717-1.844c.033-.068.102-.068.137-.102.068-.104.17-.205.27-.205h.103v.033c.137.035.273.104.342.24l.75 1.775c.4.922.615 1.945.648 3.004l.068 6.247 3.722-9.183.75-1.8c0-.033 0-.033.035-.033.068-.137.205-.273.34-.273h.035c.033 0 .068.033.102.033v.035c.104.033.24.068.31.205l.75 1.81c.376.888.58 1.912.615 2.935l.033 6.18 3.858-9.216.204-.4.445-1c.068-.17.205-.273.342-.307 0-.035 0-.035.033-.068h.205c.238 0 .443.137.546.4l.682 1.638c3.14 8.02 34.27 43.488 34.373 43.556 24.95-32.36 65.092-53.422 110.387-53.422 46.354 0 87.313 22.085 112.093 55.777l35.807 46.186v-111.11c0-1.296.955-2.867 2.218-2.867.102-.068.17-.068.273-.068h.033c1.8 0 3.55 1.127 4.642 3.003l.068.137C414.685 120.055 512 256.017 512 256.017z" opacity=".2"/><path d="M425.9 211.362l1.287-3.017-1.307-3 1.277-3.04-1.33-3 1.257-3.06-1.357-2.98 1.22-3.074-1.394-2.967 1.184-3.107-1.44-2.92 1.13-3.144-1.487-2.88 1.063-3.184-1.547-2.83 1-3.22-1.613-2.777.923-3.257-1.687-2.7.83-3.304-1.764-2.62.73-3.347-1.843-2.527.624-3.374-1.93-2.427.247-3.087-1.756-2.637-.08-3.44-1.644-2.18-.463-3.46-1.47-2.037-.793-3.14-1.36-2.233-1.043-2.15-.193-.44c-.1-.203-.2-.394-.303-.58l-.077-.146.003.01c-1.1-1.88-2.8-3.014-4.65-3.014h-.017c-1.227 0-2.22 1.29-2.22 2.877V239.93h15.423v-10.317c0-5.567 2.7-10.314 6.473-12.21l1.4-3.023z" fill="#dcddde"/><path d="M426.167 211.295l1.3-3.02-1.3-3 1.28-3.04-1.33-2.993 1.253-3.063-1.357-2.984 1.224-3.077-1.397-2.96 1.18-3.1-1.434-2.917 1.13-3.15-1.494-2.883 1.074-3.177-1.547-2.833 1-3.217-1.617-2.773.923-3.26-1.7-2.7.833-3.307-1.767-2.613.733-3.347-1.843-2.52.624-3.384-1.93-2.423.25-3.087-1.76-2.633-.08-3.447-1.644-2.18-.463-3.46-1.466-2.04-.8-3.144-1.353-2.23-1.047-2.146-.2-.44c-.097-.2-.203-.394-.3-.58l-.07-.147v.014c-1.1-1.88-2.813-3.017-4.653-3.017h-.014a1.64 1.64 0 0 0-.57.11c.097-.02.197-.04.3-.04h.017c1.84 0 3.56 1.134 4.65 3.014l-.003-.01.077.146.303.58.193.44 1.043 2.15 1.36 2.233.793 3.14 1.47 2.037.463 3.46 1.644 2.18.08 3.44 1.756 2.637-.247 3.087 1.93 2.427-.624 3.374 1.843 2.527-.73 3.347 1.764 2.62-.83 3.304 1.687 2.7-.923 3.257 1.613 2.777-1 3.22 1.547 2.83-1.063 3.184 1.487 2.88-1.13 3.144 1.44 2.92-1.184 3.107 1.394 2.967-1.22 3.074 1.357 2.98-1.257 3.06 1.33 3-1.277 3.04 1.307 3-1.287 3.017 1.293 3.017-1.4 3.023c-3.783 1.897-6.473 6.644-6.473 12.21v10.25h.27V229.54c0-5.564 2.7-10.308 6.477-12.21l1.387-3.02z" fill="#636363"/><path d="M427.193 214.38l-1.4 3.017a8.95 8.95 0 0 0-1.487.95l-20.4-21.56v-7.514l22.883 24.175zm-23.286-35.525l22.92 24.22-.95 2.26.124.28-22.093-23.328zm0-43.4l19.47 20.573-.293 1.167 1.684 2.708-.224.786-20.636-21.802z" fill="#edeeee"/><path d="M405.023 111.456c-.667.497-1.117 1.42-1.117 2.483V239.93H405V111.826c0-.127.013-.25.023-.37z" fill="#fff"/><path d="M429.394 380.333c2.213 27.572-36.617 27.572-34.407 0 1.923-34.286 3.313-78.708 2.62-128.202-.126-4.48 1.54-11.78 5.5-14.14 5.44-3.267 12.724-3.267 18.167 0 3.963 2.36 5.626 9.66 5.5 14.14l2.62 128.202z" fill="#133861"/><path d="M417.333 256.008c0 3.18-2.307 5.76-5.147 5.76s-5.14-2.58-5.14-5.76 2.303-5.76 5.14-5.76 5.147 2.577 5.147 5.76z" fill="#dcddde"/><path d="M416.3 252.545c.387.803.606 1.73.606 2.707 0 3.184-2.303 5.767-5.14 5.767-1.677 0-3.167-.9-4.107-2.297.867 1.8 2.573 3.047 4.537 3.047 2.84 0 5.147-2.58 5.147-5.76 0-1.304-.393-2.504-1.043-3.464z" opacity=".3"/><path d="M417.333 375.493c0 3.187-2.307 5.767-5.147 5.767s-5.14-2.58-5.14-5.767 2.303-5.764 5.14-5.764 5.147 2.58 5.147 5.764z" fill="#dcddde"/><path d="M416.3 372.03a6.25 6.25 0 0 1 .606 2.71c0 3.18-2.303 5.76-5.14 5.76-1.677 0-3.167-.907-4.107-2.297.867 1.816 2.573 3.057 4.537 3.057 2.84 0 5.147-2.58 5.147-5.767 0-1.297-.393-2.5-1.043-3.464z" opacity=".3"/><path d="M426.833 308.252l-29.054-26.6-.02 7.48 29.213 26.752zm-.1-6.216L397.8 275.52l-.01-3.432 28.927 26.48.036 3.47z" opacity=".3" fill="#fff"/><path d="M429.394 380.333c-1.93-34.286-3.313-78.708-2.62-128.202.117-4.014-1.22-10.3-4.36-13.248 1.927 3.35 2.624 8.2 2.4 11.5l-2.3 128.208c.62 14.79-10.193 21.128-19.883 19.638 10.622 6.905 28.272.94 26.763-17.897z" opacity=".3"/><path d="M396.26 388.054l2.62-136.146c-.1-4.154 1.15-10.604 4.1-13.834-3.874 2.424-5.507 9.63-5.384 14.058l-2.62 128.202c-.304 3.774.167 7.027 1.2 9.77l.084-2.05z" opacity=".2" fill="#fff"/><path d="M114.604 189.754l-2.807-54.253c-.047-.883-.237-1.744-.563-2.543l-.677-1.653c-.1-.25-.316-.403-.553-.4a.62.62 0 0 0-.567.383l-.64 1.427c-.434.96-.664 2.027-.674 3.107l-.396 39.433c-.007.76-.563 1.374-1.24 1.363-.67-.007-1.207-.62-1.217-1.363l-.4-39.53a7.85 7.85 0 0 0-.606-2.94l-.744-1.783c-.077-.184-.24-.293-.42-.293s-.336.117-.4.3l-.733 1.813a7.94 7.94 0 0 0-.567 2.847l-.396 39.586c-.007.76-.557 1.374-1.237 1.363-.67-.007-1.2-.62-1.213-1.363l-.396-39.486c-.013-1.043-.23-2.077-.64-3.017L96.76 131c-.077-.18-.243-.293-.42-.3s-.34.124-.413.307l-.717 1.85a7.8 7.8 0 0 0-.527 2.75l-.396 39.64c-.01.76-.563 1.374-1.243 1.363-.67-.007-1.207-.62-1.213-1.363l-.397-39.406c-.01-1.1-.25-2.177-.693-3.15l-.793-1.753c-.083-.177-.244-.283-.42-.277-.173 0-.337.117-.407.3l-.8 2.02c-.317.787-.503 1.633-.547 2.497l-2.807 54.28c-.077 1.487.32 2.944 1.117 4.134l5.847 8.74c1.224 1.82 1.883 4.037 1.883 6.324v29.572h11.95v-29.572c0-2.287.657-4.504 1.883-6.324l5.85-8.74c.792-1.193 1.19-2.65 1.116-4.137z" fill="#dcddde"/><path d="M108.876 200.765l-1.243 1.857c-.643.973-1.137 2.05-1.45 3.2l-21.06-19.28.377-7.18zm3.967-5.932l-1.423 2.135-25.626-23.474.173-3.276 5.93 5.422v.01c.144.5.534.875 1.023.938zM91.547 146.75l.03 3.464-4.37-4 .166-3.28zm6.783 6.203l.037 3.474L94.5 152.9l.03-3.406zm6.78 6.22l.036 3.47-3.973-3.64.027-3.406zm8.303 7.604v.01l.19 3.594-5.767-5.28.026-3.406z" fill="#edeeee"/><g fill="#fff"><path d="M103.223 130.733l-.657 1.26c-.463.913-.707 1.903-.723 2.903l-.506 40.316c-.007.6-.634 1.344-1.244 1.344.52-.15.907-.7.914-1.313l.396-39.583c.007-.983.203-1.96.563-2.854l.73-1.807c.073-.17.22-.283.4-.296h.013c.04.007.084.024.124.03zm6.754.168l-.53.98c-.527.98-.807 2.057-.817 3.15l-.5 40.052c-.007.578-.394 1.068-.94 1.27.313-.24.523-.65.53-1.115l.396-39.427a7.76 7.76 0 0 1 .67-3.115l.643-1.422c.073-.182.204-.302.367-.354.007-.005.017-.005.023-.005.044-.005.098-.016.148-.016zm-13.537-.182c-.257.365-.54 1.464-.54 1.464-.5.885-.777 1.844-.8 2.802l-.597 40.375c-.003.61-.517 1.11-1.23 1.302.02-.026.027-.052.04-.083.54-.135.957-.682.963-1.333l.396-39.64a7.82 7.82 0 0 1 .523-2.75l.72-1.854c.073-.182.236-.292.417-.292.034-.005.065-.005.098.01z" opacity=".5"/><path d="M94.553 237.7v-29.575c0-2.284-.663-4.5-1.883-6.327l-5.85-8.734c-.796-1.187-1.193-2.657-1.12-4.14l2.807-54.277c.05-.863.23-1.7.546-2.5l.583-1.447c-.037-.013-.073-.04-.1-.033-.173 0-.337.117-.407.3l-.8 2.02c-.317.787-.503 1.633-.547 2.497l-2.807 54.28c-.077 1.487.32 2.944 1.117 4.134l5.847 8.74c1.224 1.82 1.883 4.037 1.883 6.32v29.575z"/></g><path d="M116.987 380.333c2.207 27.572-36.624 27.572-34.414 0 1.927-34.286 3.313-78.708 2.62-128.202-.127-4.48 1.537-11.78 5.5-14.14 5.443-3.267 12.727-3.267 18.173 0 3.957 2.36 5.624 9.66 5.5 14.14l2.62 128.202z" fill="#133861"/><path d="M104.92 256.008c0 3.18-2.3 5.76-5.14 5.76s-5.143-2.58-5.143-5.76 2.3-5.76 5.143-5.76 5.14 2.577 5.14 5.76z" fill="#dcddde"/><path d="M103.88 252.545c.383.803.607 1.73.607 2.707 0 3.184-2.304 5.767-5.144 5.767-1.677 0-3.163-.9-4.103-2.297.863 1.8 2.573 3.047 4.54 3.047 2.84 0 5.14-2.58 5.14-5.76 0-1.304-.4-2.504-1.04-3.464z" opacity=".3"/><path d="M104.92 375.493c0 3.187-2.3 5.767-5.14 5.767s-5.143-2.58-5.143-5.767 2.3-5.764 5.143-5.764 5.14 2.58 5.14 5.764z" fill="#dcddde"/><path d="M103.88 372.03c.383.803.607 1.73.607 2.7 0 3.18-2.304 5.76-5.144 5.76-1.677 0-3.163-.907-4.103-2.297.863 1.816 2.573 3.057 4.54 3.057 2.84 0 5.14-2.58 5.14-5.767a6.2 6.2 0 0 0-1.04-3.464z" opacity=".3"/><path d="M114.43 308.252l-29.06-26.6-.023 7.48 29.217 26.752zm-.097-6.216l-28.96-26.516-.003-3.432 28.927 26.48.036 3.47z" opacity=".3" fill="#fff"/><path d="M116.987 380.333c-1.93-34.286-3.313-78.708-2.62-128.202.1-4.014-1.227-10.3-4.36-13.248 1.926 3.35 2.62 8.2 2.396 11.5l-2.297 128.208c.6 14.79-10.196 21.128-19.887 19.638 10.628 6.905 28.278.94 26.768-17.897z" opacity=".3"/><g fill="#fff"><path d="M83.85 388.054l2.62-136.146c-.1-4.154 1.147-10.604 4.1-13.834-3.877 2.424-5.5 9.63-5.387 14.058l-2.62 128.202c-.303 3.774.17 7.027 1.193 9.77l.084-2.05z" opacity=".2"/><path d="M392.987 254.108c0 72.354-61.337 131.005-137.003 131.005s-137-58.65-137-131.005c0-72.348 61.333-131 137-131s137.003 58.65 137.003 131z"/></g><path d="M387.387 216.95c3.157 11.044 4.854 22.655 4.854 34.642 0 72.36-61.34 131.012-137 131.012-62.167 0-114.653-39.6-131.403-93.846 15.9 55.537 69.03 96.356 132.146 96.356 75.667 0 137.003-58.65 137.003-131.005 0-12.907-1.96-25.375-5.6-37.16z" opacity=".3"/><path d="M341.173 254.11c0 45-38.144 81.46-85.2 81.46-37.05 0-68.58-22.622-80.3-54.204-3.167-8.517-4.9-17.698-4.9-27.255 0-44.993 38.14-81.458 85.2-81.458 36.97 0 68.44 22.515 80.227 54.003 3.217 8.58 4.963 17.822 4.963 27.455z" fill="#dedede"/><path d="M179.383 272.086c0-44.996 38.14-81.465 85.187-81.465 30.75 0 57.677 15.58 72.653 38.94l-1.013-2.904c-11.787-31.49-43.257-54.003-80.227-54.003-47.05 0-85.2 36.466-85.2 81.458a78.03 78.03 0 0 0 4.89 27.255c1.997 5.377 4.58 10.487 7.657 15.284a77.97 77.97 0 0 1-3.957-24.564z" opacity=".7" fill="#f2f2f2"/><path d="M277.327 381.693l-21.343-13.964-21.34 13.964-17.12-19.975-24.017 6.66-11.15-24.755-24.73-2-3.213-27.548-22.497-11.86 6.6-26.868-16.14-21.228 16.14-21.235-6.6-26.858 22.497-11.86 3.213-27.555 24.73-2 11.15-24.75 24.017 6.66 17.12-19.978 21.34 13.964 21.343-13.964 17.12 19.978 24.017-6.66 11.143 24.75 24.733 2 3.213 27.555 22.5 11.86-6.6 26.862 16.14 21.23-16.14 21.23 6.6 26.865-22.5 11.86-3.216 27.548-24.73 2-11.143 24.755-24.017-6.66zm-21.344-19.014l20.663 13.518 16.55-19.312 23.2 6.43 10.74-23.858 23.767-1.927 3.077-26.398 21.463-11.31-6.267-25.555 15.327-20.158-15.327-20.162 6.267-25.555-21.46-11.31-3.08-26.385-23.767-1.934-10.74-23.855-23.2 6.424-16.553-19.312-20.66 13.515-20.657-13.515-16.553 19.312-23.2-6.424-10.747 23.855-23.764 1.93-3.077 26.388-21.463 11.31 6.27 25.555-15.323 20.162 15.323 20.158-6.27 25.555 21.463 11.307 3.077 26.398 23.764 1.93 10.747 23.858 23.2-6.43 16.553 19.312z" fill="#fed466"/><g fill="#133861"><path d="M277.394 382.22l-21.4-14.004-21.407 14.004-.204-.236-16.973-19.8-24.097 6.68-11.183-24.835-24.82-2.02-3.23-27.662-22.6-11.914 6.624-26.988-16.22-21.338 16.22-21.335-6.624-26.992 22.6-11.914 3.23-27.655.304-.026 24.517-1.994 11.183-24.842 24.1 6.684 17.173-20.042L255.984 140l21.4-14.008.207.237 16.966 19.805 24.097-6.684 11.184 24.842 24.823 2.02 3.227 27.66 22.6 11.91-6.623 26.992 16.223 21.335-16.223 21.338 6.623 26.988-22.6 11.914-3.227 27.662-.307.026-24.517 1.994-11.184 24.835-24.097-6.68zm-21.41-14.97l21.276 13.917 17.067-19.91 23.94 6.64 11.104-24.668 24.64-2 3.2-27.44 22.4-11.808-6.56-26.742 16.063-21.128-16.063-21.125 6.563-26.742-22.4-11.808-3.204-27.44-24.64-2-11.104-24.665-23.94 6.634-17.065-19.91-21.276 13.92-21.277-13.92-17.063 19.912-23.94-6.634-11.106 24.665-24.633 2-3.207 27.44-22.4 11.808 6.56 26.742-16.06 21.125 16.06 21.128-6.56 26.742 22.4 11.808 3.207 27.438 24.633 2.003 11.106 24.668 23.94-6.64 17.063 19.91zm20.727 9.477l-20.727-13.56-20.72 13.56-.207-.24-16.403-19.138-23.273 6.447-10.776-23.938-23.86-1.947-3.1-26.495-21.563-11.368 6.304-25.675-15.407-20.265 15.407-20.262-6.304-25.682 21.563-11.367 3.1-26.502.304-.023 23.553-1.907 10.78-23.948 23.273 6.454 16.6-19.38 20.72 13.558 20.727-13.558.203.24 16.403 19.14 23.27-6.454 10.78 23.948 23.856 1.93 3.1 26.502 21.563 11.367-6.3 25.682 15.407 20.262-15.407 20.265 6.3 25.675-21.563 11.37-3.1 26.5-.303.023-23.553 1.917-10.78 23.942-23.27-6.45zM255.983 362.2l20.597 13.47 16.497-19.25 23.107 6.4 10.707-23.778 23.673-1.92 3.063-26.275 21.367-11.26-6.24-25.43 15.25-20.058-15.25-20.058 6.24-25.428-21.367-11.26-3.063-26.278-23.673-1.924-10.707-23.768-23.107 6.407-16.497-19.255-20.597 13.475-20.6-13.475-16.5 19.255-23.114-6.407-10.7 23.768-23.667 1.92-3.063 26.282-21.363 11.26 6.233 25.428-15.243 20.058 15.243 20.058-6.237 25.43 21.367 11.257 3.063 26.278 23.667 1.92 10.7 23.775 23.114-6.407 16.5 19.25z"/><path d="M255.983 362.405c-63.753 0-115.627-48.7-115.627-108.6 0-59.874 51.874-108.584 115.627-108.584 63.76 0 115.63 48.7 115.63 108.584 0 59.88-51.87 108.6-115.63 108.6zm0-213.22c-61.8 0-112.107 46.943-112.107 104.63 0 57.7 50.297 104.64 112.107 104.64s112.1-46.94 112.1-104.64c0-57.687-50.286-104.63-112.1-104.63zm0 186.67c-46.967 0-85.187-36.677-85.187-81.745 0-45.073 38.22-81.745 85.187-81.745s85.183 36.672 85.183 81.745c.001 45.068-38.213 81.745-85.183 81.745zm0-159.53c-45.027 0-81.657 34.89-81.657 77.786 0 42.885 36.63 77.786 81.657 77.786s81.657-34.9 81.657-77.786c0-42.896-36.63-77.786-81.657-77.786z"/></g></g></svg>