<svg xmlns="http://www.w3.org/2000/svg" viewBox="0 0 48 48.21" height="49" width="48"><g transform="matrix(.096743 0 0 .096743 -.766207 -.766595)"><path d="M256.003 7.924C118.99 7.924 7.92 118.984 7.92 256.006c0 137 111.07 248.07 248.083 248.07 137.006 0 248.075-111.07 248.075-248.07 0-137.023-111.07-248.082-248.075-248.082z" fill="#d8dbba"/><g fill="#0e7765"><path d="M306.65 314.613v39.7c0 28.298-21.978 51.318-48.994 51.318s-48.994-23.02-48.994-51.318v-39.7l-25.286-10.367v47.63c0 42.496 33.322 77.068 74.28 77.068s74.278-34.572 74.278-77.068v-47.63z"/><path d="M388.762 242.265l-8.16 17.793C354.203 249.723 308.262 242.88 256 242.88c-52.253 0-98.2 6.84-124.6 17.173l-8.158-17.79-34.59 10.453S118.54 323.74 256 323.74s167.354-71.024 167.354-71.024z"/></g><path d="M256 83.056c-29.64 0-53.665 24.024-53.665 53.665 0 29.636 24.025 53.662 53.665 53.662s53.663-24.025 53.663-53.662S285.637 83.056 256 83.056z" fill="#d19d0b"/><path d="M256 207.223c-92.614 0-167.69 18.992-167.69 42.42s75.078 56.713 167.69 56.713 167.69-33.285 167.69-56.713-75.077-42.42-167.69-42.42z" fill="#149381"/><path d="M256 218.488c-71.563 0-129.576 14.676-129.576 32.778S184.437 295.09 256 295.09s129.575-25.72 129.575-43.823S327.563 218.488 256 218.488z" fill="#36a895"/><path d="M256 227.212c-55.266 0-100.065 11.333-100.065 25.314s44.8 33.84 100.065 33.84 100.065-19.862 100.065-33.84-44.8-25.314-100.065-25.314z" fill="#149381"/><g fill="#d19d0b"><path d="M256 241.2c-33.35 0-60.384 6.84-60.384 15.276S222.65 276.908 256 276.908s60.385-11.986 60.385-20.422S289.35 241.2 256 241.2z"/><path d="M291.777 203.018c0-24.852 15.823-51.733 15.823-51.733H204.397s15.823 25.526 15.823 52.186c0 19.77-17.885 51.85-17.885 51.85s20.01 10.505 53.22 10.505 54.107-10.505 54.107-10.505-17.884-32.08-17.884-52.302z"/></g><path d="M281.312 101.4c-16.37-16.37-42.907-16.37-59.276 0s-16.37 42.9 0 59.278 75.646-42.91 59.276-59.278z" fill="#e8af21"/><path d="M197.714 400.716" stroke-miterlimit="10" fill="none" stroke="#000"/></g><path d="M9.597 26.022l7.377 7.442v-3.72s-4.285-.812-7.377-3.72zm9.677 12.714l8.75 8.927 2.883-.67c1.985-.6 13.604-4.643 16.524-17.775L28.87 10.656s1.05 2.473-.58 4.66c0 0-.985 1.777-.79 4.093 0 0 10.816.388 12.6 3.464 0 0 .32.8-.25 1.422 0 0-2.205 3.804-8.503 5.407 0 0 0 3.763-.274 5.617 0 0-1.702 5.412-6.542 5.394-3.722-.014-5.18-1.98-5.256-1.976zm.146-8.488s5.334.69 9.48-.047l-.014 3.88s-.2 1.325-.673 2.002c0 0-1.298 2.407-4.053 2.393 0 0-1.874.165-3.605-1.746 0 0-1.797-1.4-1.135-6.482z" fill="#c8cbad"/><path d="M16.535 38.48"/><path d="M19.274 38.736" fill="#c8cbad"/></svg>