<svg xmlns="http://www.w3.org/2000/svg" width="48" height="48"><g transform="matrix(.377953 0 0 .377953 -.188976 -.377953)"><circle r="63.5" cy="64.5" cx="64" fill="#ed5e53"/><path d="M108.908 60.27l-.616.308-5.454-.545-11.403-11.192-45.314 1.103-3.817 3-20.18 11.452-3.573.962 61.25 60.658c23.336-5.978 41.492-24.882 46.388-48.632z" fill="#dd4a43"/><path d="M41.356 55.56l3.374-4.053v.393l-2.5 4.114zm44.152-1.9l5.927-5.518v.69L87.13 55.25z" fill="#829382"/><path d="M64.48 58.392l21.117-2.663 5.838-7.578-4.856-.092zm-23.352-1.42c0-.372 3.602-5.465 3.602-5.465l-2.033-.176-9.27 4.647z" fill="#9aa99a"/><path d="M18.398 45.557h7.01l9.524 9.525h43.13c10.603-.72 15.995-4.497 23.183 1.436 0 0 15.635 3.596 4.133 10.245s-57.148 5.212-71.525 0-8.446-3.954-8.446-3.954l3.055-2.335z" fill="#dfe8ed"/><path d="M54.838 75.747s3.843 3.107 14.483 2.92l-.51-8.29-11.47 1.548z" fill="#273f47"/><ellipse ry="4.209" rx="2.711" cy="74.457" cx="69.322" fill="#738ba5"/><ellipse ry="3.362" rx="2.166" cy="74.457" cx="69.322" fill="#3a8073"/><path d="M43.935 80.517s3.843 3.106 14.483 2.92l-.51-8.29-11.47 1.547z" fill="#273f47"/><ellipse ry="4.21" rx="2.712" cy="79.226" cx="58.418" fill="#738ba5"/><ellipse ry="3.362" rx="2.166" cy="79.226" cx="58.418" fill="#3a8073"/><path d="M41.13 61.494l.063-1.215.607.025-.064 1.228zm1.81.106l.054-1.252 1.2.04-.054 1.275zm2.405.12l.047-1.3 1.2.03-.047 1.324zm2.405.107l.04-1.347 1.202.026-.042 1.37zm2.404.094l.036-1.394 1.202.02-.037 1.417zm2.406.084l.03-1.44 1.202.014-.032 1.464zm2.405.072l.025-1.488 1.202.01-.026 1.512zm2.406.062l.02-1.536 1.202.004-.02 1.56zm2.406.052l.013-1.583 1.203-.001-.014 1.606zm2.407.04l.007-1.63 1.203-.005-.008 1.652zm2.408.032V60.59l1.2-.013v1.7zm2.406.02l-.007-1.723 1.202-.017.007 1.747zm2.408.012l-.015-1.77 1.202-.022.015 1.793zm2.408 0l-.024-1.818 1.203-.028.023 1.84zm2.41-.012l-.033-1.863 1.202-.032.033 1.887zm2.41-.02l-.042-1.912 1.2-.04.043 1.935zm2.407-.034l-.052-1.96 1.2-.044.053 1.983zm2.408-.043l-.063-2.004 1.2-.05.064 2.027zm2.41-.056l-.075-2.052 1.2-.057.076 2.076zm2.4-.067l-.088-2.098 1.2-.062.088 2.12zm2.433-.08l-.1-2.143.608-.035.1 2.157zm-50.935-2.703h2.373s-.915 3.125-.322 5.172l-2.785-.443s-.404-2.35.734-4.728zm56.72-.893l-3.05.416.514 4.616 3.35-.355zm4.883-1.143a5.45 5.45 0 0 1-1.28.594l1.29 2.663s.978-.27 2.082-.863zm2.07-.775l-.768-.412s-.27.4-.843.863l2.183 2.398c.773-.484 1.54-1.13 2.027-1.952z" fill="#4c9385"/><path d="M35.985 78.912l-.322-.328L78.02 65.542v.62L45.047 80.81z" fill="#829382"/><path d="M55.413 64.456l22.607 1.086L44.854 80.2l-9.19-1.615z" fill="#aeb7ae"/><path d="M18.615 65.542l-.217-.497 15.03-3.106v.52l-11.492 4.255z" fill="#829382"/><path d="M28.462 60.474l4.965 1.465-11.552 4.224-3.477-1.118z" fill="#aeb7ae"/></g></svg>