<svg xmlns="http://www.w3.org/2000/svg" width="96" height="96"><circle r="55" cy="55" cx="55" fill="#25b7d3" transform="scale(.872727)"/><path d="M27.055 72.436l23.438 23.492C67.41 95.423 76.545 87.1 80.51 83.29c4.37-4.2 11.636-12.953 13.91-23.236L55.01 25.248l-6.082 4.807z" fill="#1c8da1"/><g transform="scale(.872727)"><path d="M55 35L31 83s4 4 24 4 24-4 24-4z" fill="#df2c2c"/><path d="M42.352 60.3l19.63-11.334-2.7-5.376-12.072 6.97zm-10.27 20.535L67.65 60.3l-2.688-5.376-28.007 16.17zm38.643-14.38L37.667 85.55c2.398.52 5.606.986 9.843 1.245L73.414 71.84z" fill="#fff"/><path d="M55.25 35.5L55 35 31 83s4 4 24 4h.25z" fill="#fa5655"/><path d="M42.352 60.31l19.63-11.334-2.69-5.376-12.072 6.97z" fill="#f0f1f1"/><path d="M42.352 60.31l12.898-7.447v-6.928l-8.03 4.635z" fill="#fff"/><path d="M32.083 80.845L67.65 60.31l-2.688-5.376-28.007 16.17z" fill="#f0f1f1"/><path d="M32.083 80.845L55.25 67.47v-6.927L36.954 71.105z" fill="#fff"/><path d="M70.726 66.464L37.667 85.55c2.398.52 5.606.986 9.843 1.245L73.414 71.84z" fill="#f0f1f1"/><path d="M55.25 75.4L37.667 85.55c2.398.52 5.606.986 9.843 1.245l7.74-4.47z" fill="#fff"/><path d="M76.47 77.953l-15.452 8.92C75.82 86.178 79 83.01 79 83.01z" fill="#f0f1f1"/><path d="M65 33.858a1 1 0 0 0-.349-.759c-.22-.2-.515-.274-.803-.23l-5.893.907 4.81-3.526c.235-.173.383-.44.406-.73a1 1 0 0 0-.29-.783l-1.615-1.615a1 1 0 0 0-.783-.29c-.29.022-.558.17-.73.406l-3.527 4.81.907-5.894a1 1 0 0 0-.229-.803c-.2-.22-.47-.35-.76-.35h-2.284a1 1 0 0 0-.988 1.152l.907 5.893-3.526-4.808c-.173-.235-.44-.383-.73-.406a1 1 0 0 0-.783.29l-1.615 1.615a1 1 0 0 0-.29.783c.022.29.17.558.406.73l4.81 3.526-5.894-.907a1 1 0 0 0-.803.229c-.22.2-.35.47-.35.76v2.284a1 1 0 0 0 1.152.988l5.894-.907-4.81 3.526c-.235.173-.383.44-.406.73a1 1 0 0 0 .29.783l1.615 1.615a1 1 0 0 0 .783.29c.29-.022.558-.17.73-.406l3.526-4.808-.907 5.893a1 1 0 0 0 .229.803c.2.22.47.35.76.35h2.284a1 1 0 0 0 .759-.349c.2-.22.274-.515.23-.803l-.907-5.894 3.527 4.81c.173.235.44.383.73.406a1 1 0 0 0 .783-.29l1.615-1.615a1 1 0 0 0 .29-.783c-.022-.29-.17-.558-.406-.73l-4.81-3.526 5.893.907a1 1 0 0 0 1.154-.99z" fill="#facb1b"/></g></svg>