<svg xmlns="http://www.w3.org/2000/svg" width="48" height="48"><path d="M48 24a24.17 24.17 0 0 1-.274 3.633 24.02 24.02 0 0 1-20.394 20.138c-1.09.15-2.202.23-3.333.23C10.746 48 0 37.254 0 24S10.746 0 24 0s24 10.745 24 24z" fill="#72c6e9"/><g transform="scale(.09375)"><path d="M509.082 294.75c-16.914 111.42-105.65 199.253-217.532 214.8-1.99-1.64-108.912-108.634-109.603-109.49-6.502-5.3-10.683-13.5-10.683-22.7 0-7.143 6.527-18.978 6.434-19.098-1.018-.8-11.6-11.415-12.663-12.8-6.452-5.043-9.77-13.116-9.77-21.17 0-9.104 4.224-18.16 12.424-22.946L148.24 187.512c-.092-.057-49.08-49.325-49.204-49.698-2.66-.896-4.58-3.25-4.58-6.288 0-3.79 2.978-6.628 6.655-6.628h26.19c8.628 0 16.46 3.97 21.684 10.473 1.423 1.17 26.6 26.527 28.52 28.527h193.024c2.756 0 5.436 1.038 7.936 2.053l-.018.323c.076.052.28.06.28.1v.068c3 1.365 6.28 3.6 8.654 6.563.068.085.106.18.175.265.865.65 121.268 121.17 121.53 121.48z" opacity=".15"/><path d="M378.46 165.948l-13.688 80.3c-1.617 9.693-8.466 17.138-16.89 18.23l-1.52.247-148.64 19.2c-6.978.9-13.495-4.065-15.07-10.935l-24.848-109.096h212.725c2.75.001 5.436 1.04 7.933 2.052z" fill="#cfcdba"/><path d="M411.218 336.897H180.946c-9.137 0-12.38-6.628-12.38-12.512s3.242-12.632 12.38-12.632c3.678 0 6.655-3.01 6.655-6.792a7.11 7.11 0 0 0-.149-1.435l171.168-19.562c1.81-.2 3.557-.635 5.215-1.273 7.033-2.68 12.386-8.982 13.874-16.83l14.068-74.416c1.246-6.538-.43-13.293-4.536-18.438-2.37-2.954-5.4-5.195-8.78-6.563l-13.688 80.02c-1.617 9.692-8.466 17.03-16.89 18.125l-1.52.192-148.64 19.177c-6.978.897-13.495-3.74-15.07-10.6l-18.372-80.45h41.444v-4.134c0-7.448-6.102-13.866-13.544-13.866h-31.97l-2.397-10.293-2.642-15.512c-2.39-13.963-14.1-24.195-27.873-24.195h-26.184c-3.68 0-6.654 2.712-6.654 6.5s2.976 6.5 6.654 6.5h26.184c7.294 0 13.502 5.918 14.77 13.318l25.622 150.073c-8.196 4.788-12.426 14.003-12.426 23.108 0 13.15 8.823 26.5 25.685 26.5h230.27c3.68 0 6.654-3.213 6.654-7s-2.974-7-6.653-7zM219.68 377.37c0 11.568-9.103 20.948-20.327 20.948-11.23 0-20.332-9.38-20.332-20.948 0-11.562 9.1-20.943 20.332-20.943 11.224 0 20.327 9.38 20.327 20.943z" fill="#f3f1dd"/><path d="M199.354 406.315c-15.49 0-28.094-12.983-28.094-28.943s12.604-28.94 28.094-28.94 28.1 12.984 28.1 28.94-12.603 28.943-28.1 28.943zm0-41.89c-6.932 0-12.567 5.81-12.567 12.948 0 7.143 5.636 12.948 12.567 12.948s12.565-5.806 12.565-12.948-5.637-12.948-12.565-12.948z" fill="#45443d"/><path d="M355.447 377.372c0 11.567-9.103 20.945-20.33 20.945s-20.33-9.378-20.33-20.945 9.104-20.943 20.33-20.943 20.33 9.378 20.33 20.943z" fill="#f3f1dd"/><path d="M335.117 406.315c-15.488 0-28.09-12.983-28.09-28.943s12.6-28.94 28.09-28.94 28.093 12.984 28.093 28.94-12.602 28.943-28.093 28.943zm0-41.89c-6.928 0-12.563 5.81-12.563 12.948 0 7.143 5.636 12.948 12.563 12.948s12.568-5.806 12.568-12.948-5.636-12.948-12.568-12.948z" fill="#45443d"/></g></svg>